<svg width="1440" height="1150" viewBox="0 0 1440 1150" fill="none" xmlns="http://www.w3.org/2000/svg">
<g clip-path="url(#clip0_0_2745)">
<rect width="1440" height="1150" fill="white"/>
<g clip-path="url(#clip1_0_2745)">
<g opacity="0.51">
<path d="M1278.77 250.881C1278.77 251.057 1278.72 251.229 1278.62 251.376C1278.52 251.522 1278.38 251.636 1278.22 251.703C1278.06 251.771 1277.88 251.788 1277.71 251.754C1277.53 251.72 1277.38 251.635 1277.25 251.51C1277.13 251.386 1277.04 251.227 1277.01 251.055C1276.97 250.882 1276.99 250.703 1277.06 250.541C1277.13 250.378 1277.24 250.239 1277.39 250.141C1277.53 250.044 1277.7 249.991 1277.88 249.991C1278.12 249.991 1278.34 250.085 1278.51 250.252C1278.68 250.419 1278.77 250.645 1278.77 250.881Z" fill="#08A8E4"/>
<path d="M1291.19 251.762C1291.68 251.762 1292.07 251.368 1292.07 250.881C1292.07 250.395 1291.68 250 1291.19 250C1290.71 250 1290.31 250.395 1290.31 250.881C1290.31 251.368 1290.71 251.762 1291.19 251.762Z" fill="#08A8E4"/>
<path d="M1304.5 251.762C1304.99 251.762 1305.39 251.368 1305.39 250.881C1305.39 250.395 1304.99 250 1304.5 250C1304.02 250 1303.62 250.395 1303.62 250.881C1303.62 251.368 1304.02 251.762 1304.5 251.762Z" fill="#08A8E4"/>
<path d="M1317.81 251.762C1318.29 251.762 1318.69 251.368 1318.69 250.881C1318.69 250.395 1318.29 250 1317.81 250C1317.32 250 1316.93 250.395 1316.93 250.881C1316.93 251.368 1317.32 251.762 1317.81 251.762Z" fill="#08A8E4"/>
<path d="M1332 250.881C1332 251.057 1331.95 251.229 1331.85 251.376C1331.75 251.522 1331.61 251.636 1331.45 251.703C1331.29 251.771 1331.11 251.788 1330.94 251.754C1330.76 251.72 1330.6 251.635 1330.48 251.51C1330.36 251.386 1330.27 251.227 1330.24 251.055C1330.2 250.882 1330.22 250.703 1330.29 250.541C1330.35 250.378 1330.47 250.239 1330.62 250.141C1330.76 250.044 1330.93 249.991 1331.11 249.991C1331.35 249.991 1331.57 250.085 1331.74 250.252C1331.91 250.419 1332 250.645 1332 250.881Z" fill="#08A8E4"/>
<path d="M1285.42 261.017C1285.42 261.193 1285.37 261.365 1285.27 261.511C1285.17 261.658 1285.03 261.772 1284.87 261.839C1284.71 261.906 1284.53 261.924 1284.35 261.89C1284.18 261.855 1284.02 261.771 1283.9 261.646C1283.77 261.522 1283.69 261.363 1283.65 261.191C1283.62 261.018 1283.64 260.839 1283.71 260.676C1283.77 260.514 1283.89 260.375 1284.03 260.277C1284.18 260.179 1284.35 260.127 1284.53 260.127C1284.76 260.127 1284.99 260.221 1285.16 260.388C1285.32 260.555 1285.42 260.781 1285.42 261.017Z" fill="#08A8E4"/>
<path d="M1297.85 261.906C1298.33 261.906 1298.73 261.512 1298.73 261.025C1298.73 260.539 1298.33 260.144 1297.85 260.144C1297.36 260.144 1296.97 260.539 1296.97 261.025C1296.97 261.512 1297.36 261.906 1297.85 261.906Z" fill="#08A8E4"/>
<path d="M1311.15 261.907C1311.64 261.907 1312.03 261.512 1312.03 261.026C1312.03 260.539 1311.64 260.145 1311.15 260.145C1310.66 260.145 1310.27 260.539 1310.27 261.026C1310.27 261.512 1310.66 261.907 1311.15 261.907Z" fill="#08A8E4"/>
<path d="M1325.33 261.017C1325.33 261.193 1325.27 261.365 1325.18 261.511C1325.08 261.658 1324.94 261.772 1324.78 261.839C1324.61 261.906 1324.44 261.924 1324.26 261.89C1324.09 261.855 1323.93 261.771 1323.81 261.646C1323.68 261.522 1323.6 261.363 1323.56 261.191C1323.53 261.018 1323.55 260.839 1323.61 260.676C1323.68 260.514 1323.8 260.375 1323.94 260.277C1324.09 260.179 1324.26 260.127 1324.44 260.127C1324.67 260.127 1324.9 260.221 1325.07 260.388C1325.23 260.555 1325.33 260.781 1325.33 261.017Z" fill="#08A8E4"/>
<path d="M1278.77 271.205C1278.77 271.441 1278.68 271.667 1278.51 271.834C1278.34 272.001 1278.12 272.094 1277.88 272.094C1277.64 272.094 1277.42 272.001 1277.25 271.834C1277.08 271.667 1276.99 271.441 1276.99 271.205C1276.99 270.969 1277.08 270.742 1277.25 270.575C1277.42 270.409 1277.64 270.315 1277.88 270.315C1278.12 270.315 1278.34 270.409 1278.51 270.575C1278.68 270.742 1278.77 270.969 1278.77 271.205Z" fill="#08A8E4"/>
<path d="M1291.19 272.095C1291.68 272.095 1292.07 271.7 1292.07 271.214C1292.07 270.727 1291.68 270.333 1291.19 270.333C1290.71 270.333 1290.31 270.727 1290.31 271.214C1290.31 271.7 1290.71 272.095 1291.19 272.095Z" fill="#08A8E4"/>
<path d="M1304.5 272.095C1304.99 272.095 1305.39 271.7 1305.39 271.214C1305.39 270.727 1304.99 270.333 1304.5 270.333C1304.02 270.333 1303.62 270.727 1303.62 271.214C1303.62 271.7 1304.02 272.095 1304.5 272.095Z" fill="#08A8E4"/>
<path d="M1317.81 272.095C1318.29 272.095 1318.69 271.7 1318.69 271.214C1318.69 270.727 1318.29 270.333 1317.81 270.333C1317.32 270.333 1316.93 270.727 1316.93 271.214C1316.93 271.7 1317.32 272.095 1317.81 272.095Z" fill="#08A8E4"/>
<path d="M1332 271.205C1332 271.381 1331.95 271.553 1331.85 271.699C1331.75 271.845 1331.61 271.96 1331.45 272.027C1331.29 272.094 1331.11 272.112 1330.94 272.077C1330.76 272.043 1330.6 271.958 1330.48 271.834C1330.36 271.71 1330.27 271.551 1330.24 271.378C1330.2 271.206 1330.22 271.027 1330.29 270.864C1330.35 270.702 1330.47 270.563 1330.62 270.465C1330.76 270.367 1330.93 270.315 1331.11 270.315C1331.35 270.315 1331.57 270.409 1331.74 270.576C1331.91 270.742 1332 270.969 1332 271.205Z" fill="#08A8E4"/>
<path d="M1285.42 281.349C1285.42 281.525 1285.37 281.697 1285.27 281.843C1285.17 281.99 1285.03 282.104 1284.87 282.171C1284.71 282.238 1284.53 282.256 1284.35 282.222C1284.18 282.187 1284.02 282.103 1283.9 281.978C1283.77 281.854 1283.69 281.695 1283.65 281.523C1283.62 281.35 1283.64 281.171 1283.71 281.008C1283.77 280.846 1283.89 280.707 1284.03 280.609C1284.18 280.511 1284.35 280.459 1284.53 280.459C1284.76 280.459 1284.99 280.553 1285.16 280.72C1285.32 280.887 1285.42 281.113 1285.42 281.349Z" fill="#08A8E4"/>
<path d="M1297.85 282.23C1298.33 282.23 1298.73 281.836 1298.73 281.349C1298.73 280.863 1298.33 280.468 1297.85 280.468C1297.36 280.468 1296.97 280.863 1296.97 281.349C1296.97 281.836 1297.36 282.23 1297.85 282.23Z" fill="#08A8E4"/>
<path d="M1311.15 282.23C1311.64 282.23 1312.03 281.836 1312.03 281.349C1312.03 280.863 1311.64 280.468 1311.15 280.468C1310.66 280.468 1310.27 280.863 1310.27 281.349C1310.27 281.836 1310.66 282.23 1311.15 282.23Z" fill="#08A8E4"/>
<path d="M1325.33 281.349C1325.33 281.525 1325.27 281.697 1325.18 281.843C1325.08 281.99 1324.94 282.104 1324.78 282.171C1324.61 282.238 1324.44 282.256 1324.26 282.222C1324.09 282.187 1323.93 282.103 1323.81 281.978C1323.68 281.854 1323.6 281.695 1323.56 281.523C1323.53 281.35 1323.55 281.171 1323.61 281.008C1323.68 280.846 1323.8 280.707 1323.94 280.609C1324.09 280.511 1324.26 280.459 1324.44 280.459C1324.67 280.459 1324.9 280.553 1325.07 280.72C1325.23 280.887 1325.33 281.113 1325.33 281.349Z" fill="#08A8E4"/>
<path d="M1278.77 291.538C1278.77 291.714 1278.72 291.886 1278.62 292.032C1278.52 292.178 1278.38 292.292 1278.22 292.36C1278.06 292.427 1277.88 292.445 1277.71 292.41C1277.53 292.376 1277.38 292.291 1277.25 292.167C1277.13 292.042 1277.04 291.884 1277.01 291.711C1276.97 291.539 1276.99 291.36 1277.06 291.197C1277.13 291.034 1277.24 290.895 1277.39 290.798C1277.53 290.7 1277.7 290.648 1277.88 290.648C1278.12 290.648 1278.34 290.741 1278.51 290.908C1278.68 291.075 1278.77 291.302 1278.77 291.538Z" fill="#08A8E4"/>
<path d="M1291.19 292.419C1291.68 292.419 1292.07 292.024 1292.07 291.538C1292.07 291.051 1291.68 290.657 1291.19 290.657C1290.71 290.657 1290.31 291.051 1290.31 291.538C1290.31 292.024 1290.71 292.419 1291.19 292.419Z" fill="#08A8E4"/>
<path d="M1304.5 292.419C1304.99 292.419 1305.39 292.024 1305.39 291.538C1305.39 291.051 1304.99 290.657 1304.5 290.657C1304.02 290.657 1303.62 291.051 1303.62 291.538C1303.62 292.024 1304.02 292.419 1304.5 292.419Z" fill="#08A8E4"/>
<path d="M1317.81 292.419C1318.29 292.419 1318.69 292.024 1318.69 291.538C1318.69 291.051 1318.29 290.657 1317.81 290.657C1317.32 290.657 1316.93 291.051 1316.93 291.538C1316.93 292.024 1317.32 292.419 1317.81 292.419Z" fill="#08A8E4"/>
<path d="M1332 291.538C1332 291.774 1331.91 292 1331.74 292.167C1331.57 292.334 1331.35 292.427 1331.11 292.427C1330.87 292.427 1330.65 292.334 1330.48 292.167C1330.31 292 1330.22 291.774 1330.22 291.538C1330.22 291.302 1330.31 291.075 1330.48 290.908C1330.65 290.741 1330.87 290.648 1331.11 290.648C1331.35 290.648 1331.57 290.741 1331.74 290.908C1331.91 291.075 1332 291.302 1332 291.538Z" fill="#08A8E4"/>
<path d="M1285.42 301.673C1285.42 301.849 1285.37 302.021 1285.27 302.167C1285.17 302.313 1285.03 302.427 1284.87 302.495C1284.71 302.562 1284.53 302.58 1284.35 302.545C1284.18 302.511 1284.02 302.426 1283.9 302.302C1283.77 302.177 1283.69 302.019 1283.65 301.846C1283.62 301.674 1283.64 301.495 1283.71 301.332C1283.77 301.169 1283.89 301.03 1284.03 300.933C1284.18 300.835 1284.35 300.783 1284.53 300.783C1284.76 300.783 1284.99 300.876 1285.16 301.043C1285.32 301.21 1285.42 301.437 1285.42 301.673Z" fill="#08A8E4"/>
<path d="M1297.85 302.553C1298.33 302.553 1298.73 302.159 1298.73 301.672C1298.73 301.186 1298.33 300.791 1297.85 300.791C1297.36 300.791 1296.97 301.186 1296.97 301.672C1296.97 302.159 1297.36 302.553 1297.85 302.553Z" fill="#08A8E4"/>
<path d="M1311.15 302.553C1311.64 302.553 1312.03 302.159 1312.03 301.672C1312.03 301.186 1311.64 300.791 1311.15 300.791C1310.66 300.791 1310.27 301.186 1310.27 301.672C1310.27 302.159 1310.66 302.553 1311.15 302.553Z" fill="#08A8E4"/>
<path d="M1325.33 301.673C1325.33 301.849 1325.27 302.021 1325.18 302.167C1325.08 302.313 1324.94 302.427 1324.78 302.495C1324.61 302.562 1324.44 302.58 1324.26 302.545C1324.09 302.511 1323.93 302.426 1323.81 302.302C1323.68 302.177 1323.6 302.019 1323.56 301.846C1323.53 301.674 1323.55 301.495 1323.61 301.332C1323.68 301.169 1323.8 301.03 1323.94 300.933C1324.09 300.835 1324.26 300.783 1324.44 300.783C1324.67 300.783 1324.9 300.876 1325.07 301.043C1325.23 301.21 1325.33 301.437 1325.33 301.673Z" fill="#08A8E4"/>
</g>
</g>
<path d="M1110.59 232.023C1398.59 166.173 1396.68 -22.602 1481.18 -21.8533L1478.93 232.023C1483.13 282.535 1542.59 543.892 1542.59 640.173C1542.59 714.173 1578.09 1107.53 1340 1082.17C1101.91 1056.81 895.999 1418 595.999 1138C351.972 910.241 696.585 738.173 748.586 562.173C791.393 417.288 852.586 291.013 1110.59 232.023Z" fill="#F0FBFF"/>
<path d="M264.232 -190.433C201.848 -378.282 310.635 -442.806 280.837 -490.944L136.204 -401.414C105.812 -386.264 -64.553 -329.475 -119.701 -296.011C-162.086 -270.29 -349.947 -175.173 -252.666 -47.6128C-155.384 79.9471 -346.923 346.938 -37.8056 409.778C58.6583 429.388 118.217 222.624 200.952 131.666C269.06 56.7881 320.118 -22.1521 264.232 -190.433Z" fill="#FEF9FD"/>
<path d="M401.962 1296.43C345.247 1467.21 444.148 1525.87 417.058 1569.63L285.568 1488.24C257.938 1474.47 103.055 1422.84 52.919 1392.42C14.3851 1369.03 -156.404 1282.56 -67.9627 1166.59C20.4784 1050.62 -153.654 807.895 127.372 750.766C215.07 732.938 269.216 920.912 344.432 1003.6C406.351 1071.68 452.77 1143.44 401.962 1296.43Z" fill="#FEF9FD"/>
<circle cx="1358.5" cy="1117.5" r="5.5" fill="#BDEBFC"/>
<circle cx="82" cy="111" r="8" fill="#BDEBFC"/>
<g clip-path="url(#clip2_0_2745)">
<g opacity="0.51">
<path d="M1346.77 1053.88C1346.77 1054.06 1346.72 1054.23 1346.62 1054.38C1346.52 1054.52 1346.38 1054.64 1346.22 1054.7C1346.06 1054.77 1345.88 1054.79 1345.71 1054.75C1345.53 1054.72 1345.38 1054.63 1345.25 1054.51C1345.13 1054.39 1345.04 1054.23 1345.01 1054.05C1344.97 1053.88 1344.99 1053.7 1345.06 1053.54C1345.13 1053.38 1345.24 1053.24 1345.39 1053.14C1345.53 1053.04 1345.7 1052.99 1345.88 1052.99C1346.12 1052.99 1346.34 1053.09 1346.51 1053.25C1346.68 1053.42 1346.77 1053.65 1346.77 1053.88Z" fill="#7F2069"/>
<path d="M1359.19 1054.76C1359.68 1054.76 1360.07 1054.37 1360.07 1053.88C1360.07 1053.39 1359.68 1053 1359.19 1053C1358.71 1053 1358.31 1053.39 1358.31 1053.88C1358.31 1054.37 1358.71 1054.76 1359.19 1054.76Z" fill="#7F2069"/>
<path d="M1372.5 1054.76C1372.99 1054.76 1373.38 1054.37 1373.38 1053.88C1373.38 1053.39 1372.99 1053 1372.5 1053C1372.02 1053 1371.62 1053.39 1371.62 1053.88C1371.62 1054.37 1372.02 1054.76 1372.5 1054.76Z" fill="#7F2069"/>
<path d="M1385.81 1054.76C1386.29 1054.76 1386.69 1054.37 1386.69 1053.88C1386.69 1053.39 1386.29 1053 1385.81 1053C1385.32 1053 1384.93 1053.39 1384.93 1053.88C1384.93 1054.37 1385.32 1054.76 1385.81 1054.76Z" fill="#7F2069"/>
<path d="M1400 1053.88C1400 1054.06 1399.95 1054.23 1399.85 1054.38C1399.75 1054.52 1399.61 1054.64 1399.45 1054.7C1399.29 1054.77 1399.11 1054.79 1398.93 1054.75C1398.76 1054.72 1398.6 1054.63 1398.48 1054.51C1398.35 1054.39 1398.27 1054.23 1398.24 1054.05C1398.2 1053.88 1398.22 1053.7 1398.29 1053.54C1398.35 1053.38 1398.47 1053.24 1398.61 1053.14C1398.76 1053.04 1398.93 1052.99 1399.11 1052.99C1399.34 1052.99 1399.57 1053.09 1399.74 1053.25C1399.9 1053.42 1400 1053.65 1400 1053.88Z" fill="#7F2069"/>
<path d="M1353.42 1064.02C1353.42 1064.19 1353.36 1064.36 1353.27 1064.51C1353.17 1064.66 1353.03 1064.77 1352.87 1064.84C1352.7 1064.91 1352.53 1064.92 1352.35 1064.89C1352.18 1064.86 1352.02 1064.77 1351.9 1064.65C1351.77 1064.52 1351.69 1064.36 1351.65 1064.19C1351.62 1064.02 1351.64 1063.84 1351.7 1063.68C1351.77 1063.51 1351.89 1063.37 1352.03 1063.28C1352.18 1063.18 1352.35 1063.13 1352.53 1063.13C1352.76 1063.13 1352.99 1063.22 1353.16 1063.39C1353.32 1063.55 1353.42 1063.78 1353.42 1064.02Z" fill="#7F2069"/>
<path d="M1365.85 1064.91C1366.33 1064.91 1366.73 1064.51 1366.73 1064.03C1366.73 1063.54 1366.33 1063.14 1365.85 1063.14C1365.36 1063.14 1364.97 1063.54 1364.97 1064.03C1364.97 1064.51 1365.36 1064.91 1365.85 1064.91Z" fill="#7F2069"/>
<path d="M1379.15 1064.91C1379.64 1064.91 1380.03 1064.51 1380.03 1064.03C1380.03 1063.54 1379.64 1063.14 1379.15 1063.14C1378.66 1063.14 1378.27 1063.54 1378.27 1064.03C1378.27 1064.51 1378.66 1064.91 1379.15 1064.91Z" fill="#7F2069"/>
<path d="M1393.33 1064.02C1393.33 1064.19 1393.27 1064.36 1393.18 1064.51C1393.08 1064.66 1392.94 1064.77 1392.78 1064.84C1392.61 1064.91 1392.44 1064.92 1392.26 1064.89C1392.09 1064.86 1391.93 1064.77 1391.81 1064.65C1391.68 1064.52 1391.6 1064.36 1391.56 1064.19C1391.53 1064.02 1391.55 1063.84 1391.61 1063.68C1391.68 1063.51 1391.8 1063.37 1391.94 1063.28C1392.09 1063.18 1392.26 1063.13 1392.44 1063.13C1392.67 1063.13 1392.9 1063.22 1393.07 1063.39C1393.23 1063.55 1393.33 1063.78 1393.33 1064.02Z" fill="#7F2069"/>
<path d="M1346.77 1074.2C1346.77 1074.44 1346.68 1074.67 1346.51 1074.83C1346.34 1075 1346.12 1075.09 1345.88 1075.09C1345.64 1075.09 1345.42 1075 1345.25 1074.83C1345.08 1074.67 1344.99 1074.44 1344.99 1074.2C1344.99 1073.97 1345.08 1073.74 1345.25 1073.58C1345.42 1073.41 1345.64 1073.31 1345.88 1073.31C1346.12 1073.31 1346.34 1073.41 1346.51 1073.58C1346.68 1073.74 1346.77 1073.97 1346.77 1074.2Z" fill="#7F2069"/>
<path d="M1359.19 1075.09C1359.68 1075.09 1360.07 1074.7 1360.07 1074.21C1360.07 1073.73 1359.68 1073.33 1359.19 1073.33C1358.71 1073.33 1358.31 1073.73 1358.31 1074.21C1358.31 1074.7 1358.71 1075.09 1359.19 1075.09Z" fill="#7F2069"/>
<path d="M1372.5 1075.09C1372.99 1075.09 1373.38 1074.7 1373.38 1074.21C1373.38 1073.73 1372.99 1073.33 1372.5 1073.33C1372.02 1073.33 1371.62 1073.73 1371.62 1074.21C1371.62 1074.7 1372.02 1075.09 1372.5 1075.09Z" fill="#7F2069"/>
<path d="M1385.81 1075.09C1386.29 1075.09 1386.69 1074.7 1386.69 1074.21C1386.69 1073.73 1386.29 1073.33 1385.81 1073.33C1385.32 1073.33 1384.93 1073.73 1384.93 1074.21C1384.93 1074.7 1385.32 1075.09 1385.81 1075.09Z" fill="#7F2069"/>
<path d="M1400 1074.2C1400 1074.38 1399.95 1074.55 1399.85 1074.7C1399.75 1074.85 1399.61 1074.96 1399.45 1075.03C1399.29 1075.09 1399.11 1075.11 1398.93 1075.08C1398.76 1075.04 1398.6 1074.96 1398.48 1074.83C1398.35 1074.71 1398.27 1074.55 1398.24 1074.38C1398.2 1074.21 1398.22 1074.03 1398.29 1073.86C1398.35 1073.7 1398.47 1073.56 1398.61 1073.46C1398.76 1073.37 1398.93 1073.31 1399.11 1073.31C1399.34 1073.31 1399.57 1073.41 1399.74 1073.58C1399.9 1073.74 1400 1073.97 1400 1074.2Z" fill="#7F2069"/>
<path d="M1353.42 1084.35C1353.42 1084.53 1353.36 1084.7 1353.27 1084.84C1353.17 1084.99 1353.03 1085.1 1352.87 1085.17C1352.7 1085.24 1352.53 1085.26 1352.35 1085.22C1352.18 1085.19 1352.02 1085.1 1351.9 1084.98C1351.77 1084.85 1351.69 1084.7 1351.65 1084.52C1351.62 1084.35 1351.64 1084.17 1351.7 1084.01C1351.77 1083.85 1351.89 1083.71 1352.03 1083.61C1352.18 1083.51 1352.35 1083.46 1352.53 1083.46C1352.76 1083.46 1352.99 1083.55 1353.16 1083.72C1353.32 1083.89 1353.42 1084.11 1353.42 1084.35Z" fill="#7F2069"/>
<path d="M1365.85 1085.23C1366.33 1085.23 1366.73 1084.84 1366.73 1084.35C1366.73 1083.86 1366.33 1083.47 1365.85 1083.47C1365.36 1083.47 1364.97 1083.86 1364.97 1084.35C1364.97 1084.84 1365.36 1085.23 1365.85 1085.23Z" fill="#7F2069"/>
<path d="M1379.15 1085.23C1379.64 1085.23 1380.03 1084.84 1380.03 1084.35C1380.03 1083.86 1379.64 1083.47 1379.15 1083.47C1378.66 1083.47 1378.27 1083.86 1378.27 1084.35C1378.27 1084.84 1378.66 1085.23 1379.15 1085.23Z" fill="#7F2069"/>
<path d="M1393.33 1084.35C1393.33 1084.53 1393.27 1084.7 1393.18 1084.84C1393.08 1084.99 1392.94 1085.1 1392.78 1085.17C1392.61 1085.24 1392.44 1085.26 1392.26 1085.22C1392.09 1085.19 1391.93 1085.1 1391.81 1084.98C1391.68 1084.85 1391.6 1084.7 1391.56 1084.52C1391.53 1084.35 1391.55 1084.17 1391.61 1084.01C1391.68 1083.85 1391.8 1083.71 1391.94 1083.61C1392.09 1083.51 1392.26 1083.46 1392.44 1083.46C1392.67 1083.46 1392.9 1083.55 1393.07 1083.72C1393.23 1083.89 1393.33 1084.11 1393.33 1084.35Z" fill="#7F2069"/>
<path d="M1346.77 1094.54C1346.77 1094.71 1346.72 1094.89 1346.62 1095.03C1346.52 1095.18 1346.38 1095.29 1346.22 1095.36C1346.06 1095.43 1345.88 1095.44 1345.71 1095.41C1345.53 1095.38 1345.38 1095.29 1345.25 1095.17C1345.13 1095.04 1345.04 1094.88 1345.01 1094.71C1344.97 1094.54 1344.99 1094.36 1345.06 1094.2C1345.13 1094.03 1345.24 1093.9 1345.39 1093.8C1345.53 1093.7 1345.7 1093.65 1345.88 1093.65C1346.12 1093.65 1346.34 1093.74 1346.51 1093.91C1346.68 1094.08 1346.77 1094.3 1346.77 1094.54Z" fill="#7F2069"/>
<path d="M1359.19 1095.42C1359.68 1095.42 1360.07 1095.02 1360.07 1094.54C1360.07 1094.05 1359.68 1093.66 1359.19 1093.66C1358.71 1093.66 1358.31 1094.05 1358.31 1094.54C1358.31 1095.02 1358.71 1095.42 1359.19 1095.42Z" fill="#7F2069"/>
<path d="M1372.5 1095.42C1372.99 1095.42 1373.38 1095.02 1373.38 1094.54C1373.38 1094.05 1372.99 1093.66 1372.5 1093.66C1372.02 1093.66 1371.62 1094.05 1371.62 1094.54C1371.62 1095.02 1372.02 1095.42 1372.5 1095.42Z" fill="#7F2069"/>
<path d="M1385.81 1095.42C1386.29 1095.42 1386.69 1095.02 1386.69 1094.54C1386.69 1094.05 1386.29 1093.66 1385.81 1093.66C1385.32 1093.66 1384.93 1094.05 1384.93 1094.54C1384.93 1095.02 1385.32 1095.42 1385.81 1095.42Z" fill="#7F2069"/>
<path d="M1400 1094.54C1400 1094.77 1399.9 1095 1399.74 1095.17C1399.57 1095.33 1399.34 1095.43 1399.11 1095.43C1398.87 1095.43 1398.65 1095.33 1398.48 1095.17C1398.31 1095 1398.22 1094.77 1398.22 1094.54C1398.22 1094.3 1398.31 1094.08 1398.48 1093.91C1398.65 1093.74 1398.87 1093.65 1399.11 1093.65C1399.34 1093.65 1399.57 1093.74 1399.74 1093.91C1399.9 1094.08 1400 1094.3 1400 1094.54Z" fill="#7F2069"/>
<path d="M1353.42 1104.67C1353.42 1104.85 1353.36 1105.02 1353.27 1105.17C1353.17 1105.31 1353.03 1105.43 1352.87 1105.49C1352.7 1105.56 1352.53 1105.58 1352.35 1105.55C1352.18 1105.51 1352.02 1105.43 1351.9 1105.3C1351.77 1105.18 1351.69 1105.02 1351.65 1104.85C1351.62 1104.67 1351.64 1104.49 1351.7 1104.33C1351.77 1104.17 1351.89 1104.03 1352.03 1103.93C1352.18 1103.83 1352.35 1103.78 1352.53 1103.78C1352.76 1103.78 1352.99 1103.88 1353.16 1104.04C1353.32 1104.21 1353.42 1104.44 1353.42 1104.67Z" fill="#7F2069"/>
<path d="M1365.85 1105.55C1366.33 1105.55 1366.73 1105.16 1366.73 1104.67C1366.73 1104.19 1366.33 1103.79 1365.85 1103.79C1365.36 1103.79 1364.97 1104.19 1364.97 1104.67C1364.97 1105.16 1365.36 1105.55 1365.85 1105.55Z" fill="#7F2069"/>
<path d="M1379.15 1105.55C1379.64 1105.55 1380.03 1105.16 1380.03 1104.67C1380.03 1104.19 1379.64 1103.79 1379.15 1103.79C1378.66 1103.79 1378.27 1104.19 1378.27 1104.67C1378.27 1105.16 1378.66 1105.55 1379.15 1105.55Z" fill="#7F2069"/>
<path d="M1393.33 1104.67C1393.33 1104.85 1393.27 1105.02 1393.18 1105.17C1393.08 1105.31 1392.94 1105.43 1392.78 1105.49C1392.61 1105.56 1392.44 1105.58 1392.26 1105.55C1392.09 1105.51 1391.93 1105.43 1391.81 1105.3C1391.68 1105.18 1391.6 1105.02 1391.56 1104.85C1391.53 1104.67 1391.55 1104.49 1391.61 1104.33C1391.68 1104.17 1391.8 1104.03 1391.94 1103.93C1392.09 1103.83 1392.26 1103.78 1392.44 1103.78C1392.67 1103.78 1392.9 1103.88 1393.07 1104.04C1393.23 1104.21 1393.33 1104.44 1393.33 1104.67Z" fill="#7F2069"/>
</g>
</g>
<g clip-path="url(#clip3_0_2745)">
<g opacity="0.51">
<path d="M42.0619 1008.53C42.0619 1008.63 42.0306 1008.74 41.972 1008.83C41.9133 1008.91 41.8299 1008.98 41.7323 1009.02C41.6348 1009.06 41.5275 1009.07 41.4239 1009.05C41.3203 1009.03 41.2252 1008.98 41.1505 1008.91C41.0759 1008.83 41.025 1008.74 41.0044 1008.63C40.9838 1008.53 40.9944 1008.42 41.0348 1008.32C41.0752 1008.23 41.1436 1008.14 41.2314 1008.08C41.3192 1008.03 41.4224 1007.99 41.528 1007.99C41.6696 1007.99 41.8054 1008.05 41.9055 1008.15C42.0057 1008.25 42.0619 1008.39 42.0619 1008.53Z" fill="#7F2069"/>
<path d="M49.5168 1009.06C49.8087 1009.06 50.0454 1008.82 50.0454 1008.53C50.0454 1008.24 49.8087 1008 49.5168 1008C49.2249 1008 48.9883 1008.24 48.9883 1008.53C48.9883 1008.82 49.2249 1009.06 49.5168 1009.06Z" fill="#7F2069"/>
<path d="M57.5032 1009.06C57.7951 1009.06 58.0317 1008.82 58.0317 1008.53C58.0317 1008.24 57.7951 1008 57.5032 1008C57.2113 1008 56.9746 1008.24 56.9746 1008.53C56.9746 1008.82 57.2113 1009.06 57.5032 1009.06Z" fill="#7F2069"/>
<path d="M65.4836 1009.06C65.7755 1009.06 66.0122 1008.82 66.0122 1008.53C66.0122 1008.24 65.7755 1008 65.4836 1008C65.1917 1008 64.9551 1008.24 64.9551 1008.53C64.9551 1008.82 65.1917 1009.06 65.4836 1009.06Z" fill="#7F2069"/>
<path d="M73.9994 1008.53C73.9994 1008.63 73.9681 1008.74 73.9095 1008.83C73.8508 1008.91 73.7674 1008.98 73.6698 1009.02C73.5723 1009.06 73.465 1009.07 73.3614 1009.05C73.2578 1009.03 73.1627 1008.98 73.088 1008.91C73.0134 1008.83 72.9625 1008.74 72.9419 1008.63C72.9213 1008.53 72.9319 1008.42 72.9723 1008.32C73.0127 1008.23 73.0811 1008.14 73.1689 1008.08C73.2567 1008.03 73.3599 1007.99 73.4655 1007.99C73.6071 1007.99 73.7429 1008.05 73.843 1008.15C73.9432 1008.25 73.9994 1008.39 73.9994 1008.53Z" fill="#7F2069"/>
<path d="M46.0504 1014.61C46.0504 1014.72 46.0191 1014.82 45.9604 1014.91C45.9017 1014.99 45.8184 1015.06 45.7208 1015.1C45.6232 1015.14 45.5159 1015.15 45.4123 1015.13C45.3088 1015.11 45.2136 1015.06 45.139 1014.99C45.0643 1014.91 45.0135 1014.82 44.9929 1014.71C44.9723 1014.61 44.9829 1014.5 45.0233 1014.41C45.0637 1014.31 45.1321 1014.22 45.2199 1014.17C45.3077 1014.11 45.4109 1014.08 45.5165 1014.08C45.6581 1014.08 45.7939 1014.13 45.894 1014.23C45.9942 1014.33 46.0504 1014.47 46.0504 1014.61Z" fill="#7F2069"/>
<path d="M53.509 1015.14C53.8009 1015.14 54.0376 1014.91 54.0376 1014.62C54.0376 1014.32 53.8009 1014.09 53.509 1014.09C53.2171 1014.09 52.9805 1014.32 52.9805 1014.62C52.9805 1014.91 53.2171 1015.14 53.509 1015.14Z" fill="#7F2069"/>
<path d="M61.4895 1015.14C61.7814 1015.14 62.018 1014.91 62.018 1014.62C62.018 1014.32 61.7814 1014.09 61.4895 1014.09C61.1976 1014.09 60.9609 1014.32 60.9609 1014.62C60.9609 1014.91 61.1976 1015.14 61.4895 1015.14Z" fill="#7F2069"/>
<path d="M69.9953 1014.61C69.9953 1014.72 69.964 1014.82 69.9054 1014.91C69.8467 1014.99 69.7633 1015.06 69.6658 1015.1C69.5682 1015.14 69.4609 1015.15 69.3573 1015.13C69.2537 1015.11 69.1586 1015.06 69.0839 1014.99C69.0093 1014.91 68.9584 1014.82 68.9378 1014.71C68.9172 1014.61 68.9278 1014.5 68.9682 1014.41C69.0086 1014.31 69.077 1014.22 69.1648 1014.17C69.2526 1014.11 69.3558 1014.08 69.4614 1014.08C69.603 1014.08 69.7388 1014.13 69.839 1014.23C69.9391 1014.33 69.9953 1014.47 69.9953 1014.61Z" fill="#7F2069"/>
<path d="M42.0619 1020.72C42.0619 1020.86 42.0057 1021 41.9055 1021.1C41.8054 1021.2 41.6696 1021.26 41.528 1021.26C41.3864 1021.26 41.2506 1021.2 41.1505 1021.1C41.0504 1021 40.9941 1020.86 40.9941 1020.72C40.9941 1020.58 41.0504 1020.45 41.1505 1020.35C41.2506 1020.25 41.3864 1020.19 41.528 1020.19C41.6696 1020.19 41.8054 1020.25 41.9055 1020.35C42.0057 1020.45 42.0619 1020.58 42.0619 1020.72Z" fill="#7F2069"/>
<path d="M49.5168 1021.26C49.8087 1021.26 50.0454 1021.02 50.0454 1020.73C50.0454 1020.44 49.8087 1020.2 49.5168 1020.2C49.2249 1020.2 48.9883 1020.44 48.9883 1020.73C48.9883 1021.02 49.2249 1021.26 49.5168 1021.26Z" fill="#7F2069"/>
<path d="M57.5032 1021.26C57.7951 1021.26 58.0317 1021.02 58.0317 1020.73C58.0317 1020.44 57.7951 1020.2 57.5032 1020.2C57.2113 1020.2 56.9746 1020.44 56.9746 1020.73C56.9746 1021.02 57.2113 1021.26 57.5032 1021.26Z" fill="#7F2069"/>
<path d="M65.4836 1021.26C65.7755 1021.26 66.0122 1021.02 66.0122 1020.73C66.0122 1020.44 65.7755 1020.2 65.4836 1020.2C65.1917 1020.2 64.9551 1020.44 64.9551 1020.73C64.9551 1021.02 65.1917 1021.26 65.4836 1021.26Z" fill="#7F2069"/>
<path d="M73.9994 1020.72C73.9994 1020.83 73.9681 1020.93 73.9095 1021.02C73.8508 1021.11 73.7674 1021.18 73.6698 1021.22C73.5723 1021.26 73.465 1021.27 73.3614 1021.25C73.2578 1021.23 73.1627 1021.18 73.088 1021.1C73.0134 1021.03 72.9625 1020.93 72.9419 1020.83C72.9213 1020.72 72.9319 1020.62 72.9723 1020.52C73.0127 1020.42 73.0811 1020.34 73.1689 1020.28C73.2567 1020.22 73.3599 1020.19 73.4655 1020.19C73.6071 1020.19 73.7429 1020.25 73.843 1020.35C73.9432 1020.45 73.9994 1020.58 73.9994 1020.72Z" fill="#7F2069"/>
<path d="M46.0504 1026.81C46.0504 1026.91 46.0191 1027.02 45.9604 1027.11C45.9017 1027.19 45.8184 1027.26 45.7208 1027.3C45.6232 1027.34 45.5159 1027.35 45.4123 1027.33C45.3088 1027.31 45.2136 1027.26 45.139 1027.19C45.0643 1027.11 45.0135 1027.02 44.9929 1026.91C44.9723 1026.81 44.9829 1026.7 45.0233 1026.6C45.0637 1026.51 45.1321 1026.42 45.2199 1026.37C45.3077 1026.31 45.4109 1026.28 45.5165 1026.28C45.6581 1026.28 45.7939 1026.33 45.894 1026.43C45.9942 1026.53 46.0504 1026.67 46.0504 1026.81Z" fill="#7F2069"/>
<path d="M53.509 1027.34C53.8009 1027.34 54.0376 1027.1 54.0376 1026.81C54.0376 1026.52 53.8009 1026.28 53.509 1026.28C53.2171 1026.28 52.9805 1026.52 52.9805 1026.81C52.9805 1027.1 53.2171 1027.34 53.509 1027.34Z" fill="#7F2069"/>
<path d="M61.4895 1027.34C61.7814 1027.34 62.018 1027.1 62.018 1026.81C62.018 1026.52 61.7814 1026.28 61.4895 1026.28C61.1976 1026.28 60.9609 1026.52 60.9609 1026.81C60.9609 1027.1 61.1976 1027.34 61.4895 1027.34Z" fill="#7F2069"/>
<path d="M69.9953 1026.81C69.9953 1026.91 69.964 1027.02 69.9054 1027.11C69.8467 1027.19 69.7633 1027.26 69.6658 1027.3C69.5682 1027.34 69.4609 1027.35 69.3573 1027.33C69.2537 1027.31 69.1586 1027.26 69.0839 1027.19C69.0093 1027.11 68.9584 1027.02 68.9378 1026.91C68.9172 1026.81 68.9278 1026.7 68.9682 1026.6C69.0086 1026.51 69.077 1026.42 69.1648 1026.37C69.2526 1026.31 69.3558 1026.28 69.4614 1026.28C69.603 1026.28 69.7388 1026.33 69.839 1026.43C69.9391 1026.53 69.9953 1026.67 69.9953 1026.81Z" fill="#7F2069"/>
<path d="M42.0619 1032.92C42.0619 1033.03 42.0306 1033.13 41.972 1033.22C41.9133 1033.31 41.8299 1033.38 41.7323 1033.42C41.6348 1033.46 41.5275 1033.47 41.4239 1033.45C41.3203 1033.43 41.2252 1033.37 41.1505 1033.3C41.0759 1033.23 41.025 1033.13 41.0044 1033.03C40.9838 1032.92 40.9944 1032.82 41.0348 1032.72C41.0752 1032.62 41.1436 1032.54 41.2314 1032.48C41.3192 1032.42 41.4224 1032.39 41.528 1032.39C41.6696 1032.39 41.8054 1032.44 41.9055 1032.54C42.0057 1032.65 42.0619 1032.78 42.0619 1032.92Z" fill="#7F2069"/>
<path d="M49.5168 1033.45C49.8087 1033.45 50.0454 1033.21 50.0454 1032.92C50.0454 1032.63 49.8087 1032.39 49.5168 1032.39C49.2249 1032.39 48.9883 1032.63 48.9883 1032.92C48.9883 1033.21 49.2249 1033.45 49.5168 1033.45Z" fill="#7F2069"/>
<path d="M57.5032 1033.45C57.7951 1033.45 58.0317 1033.21 58.0317 1032.92C58.0317 1032.63 57.7951 1032.39 57.5032 1032.39C57.2113 1032.39 56.9746 1032.63 56.9746 1032.92C56.9746 1033.21 57.2113 1033.45 57.5032 1033.45Z" fill="#7F2069"/>
<path d="M65.4836 1033.45C65.7755 1033.45 66.0122 1033.21 66.0122 1032.92C66.0122 1032.63 65.7755 1032.39 65.4836 1032.39C65.1917 1032.39 64.9551 1032.63 64.9551 1032.92C64.9551 1033.21 65.1917 1033.45 65.4836 1033.45Z" fill="#7F2069"/>
<path d="M73.9994 1032.92C73.9994 1033.06 73.9432 1033.2 73.843 1033.3C73.7429 1033.4 73.6071 1033.46 73.4655 1033.46C73.3239 1033.46 73.1881 1033.4 73.088 1033.3C72.9879 1033.2 72.9316 1033.06 72.9316 1032.92C72.9316 1032.78 72.9879 1032.65 73.088 1032.54C73.1881 1032.44 73.3239 1032.39 73.4655 1032.39C73.6071 1032.39 73.7429 1032.44 73.843 1032.54C73.9432 1032.65 73.9994 1032.78 73.9994 1032.92Z" fill="#7F2069"/>
<path d="M46.0504 1039C46.0504 1039.11 46.0191 1039.21 45.9604 1039.3C45.9017 1039.39 45.8184 1039.46 45.7208 1039.5C45.6232 1039.54 45.5159 1039.55 45.4123 1039.53C45.3088 1039.51 45.2136 1039.46 45.139 1039.38C45.0643 1039.31 45.0135 1039.21 44.9929 1039.11C44.9723 1039 44.9829 1038.9 45.0233 1038.8C45.0637 1038.7 45.1321 1038.62 45.2199 1038.56C45.3077 1038.5 45.4109 1038.47 45.5165 1038.47C45.6581 1038.47 45.7939 1038.53 45.894 1038.63C45.9942 1038.73 46.0504 1038.86 46.0504 1039Z" fill="#7F2069"/>
<path d="M53.509 1039.53C53.8009 1039.53 54.0376 1039.3 54.0376 1039C54.0376 1038.71 53.8009 1038.47 53.509 1038.47C53.2171 1038.47 52.9805 1038.71 52.9805 1039C52.9805 1039.3 53.2171 1039.53 53.509 1039.53Z" fill="#7F2069"/>
<path d="M61.4895 1039.53C61.7814 1039.53 62.018 1039.3 62.018 1039C62.018 1038.71 61.7814 1038.47 61.4895 1038.47C61.1976 1038.47 60.9609 1038.71 60.9609 1039C60.9609 1039.3 61.1976 1039.53 61.4895 1039.53Z" fill="#7F2069"/>
<path d="M69.9953 1039C69.9953 1039.11 69.964 1039.21 69.9054 1039.3C69.8467 1039.39 69.7633 1039.46 69.6658 1039.5C69.5682 1039.54 69.4609 1039.55 69.3573 1039.53C69.2537 1039.51 69.1586 1039.46 69.0839 1039.38C69.0093 1039.31 68.9584 1039.21 68.9378 1039.11C68.9172 1039 68.9278 1038.9 68.9682 1038.8C69.0086 1038.7 69.077 1038.62 69.1648 1038.56C69.2526 1038.5 69.3558 1038.47 69.4614 1038.47C69.603 1038.47 69.7388 1038.53 69.839 1038.63C69.9391 1038.73 69.9953 1038.86 69.9953 1039Z" fill="#7F2069"/>
</g>
</g>
<circle cx="66" cy="1005" r="8" fill="#BDEBFC"/>
<circle cx="1387" cy="881" r="8" fill="#FFCCF2"/>
<g clip-path="url(#clip4_0_2745)">
<path d="M1324 116.989L1334.87 123.278V110.722L1324 116.989Z" fill="#FFCCF2"/>
<path d="M1366 116.989L1355.13 110.722V123.278L1366 116.989Z" fill="#FFCCF2"/>
<path d="M1344.99 138L1351.28 127.13H1338.72L1344.99 138Z" fill="#FFCCF2"/>
<path d="M1344.99 96L1338.72 106.87H1351.28L1344.99 96Z" fill="#FFCCF2"/>
</g>
<g clip-path="url(#clip5_0_2745)">
<path d="M58 1096.99L68.8703 1103.28V1090.72L58 1096.99Z" fill="#BDEBFC"/>
<path d="M99.9992 1096.99L89.1289 1090.72V1103.28L99.9992 1096.99Z" fill="#BDEBFC"/>
<path d="M78.9896 1118L85.2794 1107.13H72.7227L78.9896 1118Z" fill="#BDEBFC"/>
<path d="M78.9896 1076L72.7227 1086.87H85.2794L78.9896 1076Z" fill="#BDEBFC"/>
</g>
<g clip-path="url(#clip6_0_2745)">
<g opacity="0.51">
<path d="M75.7699 266.881C75.7699 267.057 75.7177 267.229 75.6199 267.376C75.5222 267.522 75.3832 267.636 75.2206 267.703C75.058 267.771 74.8791 267.788 74.7065 267.754C74.5339 267.72 74.3753 267.635 74.2509 267.51C74.1264 267.386 74.0417 267.227 74.0073 267.055C73.973 266.882 73.9906 266.703 74.058 266.541C74.1253 266.378 74.2394 266.239 74.3857 266.141C74.532 266.044 74.7041 265.991 74.8801 265.991C75.116 265.991 75.3424 266.085 75.5092 266.252C75.6761 266.419 75.7699 266.645 75.7699 266.881Z" fill="#08A8E4"/>
<path d="M88.1934 267.762C88.6799 267.762 89.0744 267.368 89.0744 266.881C89.0744 266.395 88.6799 266 88.1934 266C87.7069 266 87.3125 266.395 87.3125 266.881C87.3125 267.368 87.7069 267.762 88.1934 267.762Z" fill="#08A8E4"/>
<path d="M101.504 267.762C101.99 267.762 102.385 267.368 102.385 266.881C102.385 266.395 101.99 266 101.504 266C101.017 266 100.623 266.395 100.623 266.881C100.623 267.368 101.017 267.762 101.504 267.762Z" fill="#08A8E4"/>
<path d="M114.807 267.762C115.293 267.762 115.688 267.368 115.688 266.881C115.688 266.395 115.293 266 114.807 266C114.32 266 113.926 266.395 113.926 266.881C113.926 267.368 114.32 267.762 114.807 267.762Z" fill="#08A8E4"/>
<path d="M128.998 266.881C128.998 267.057 128.946 267.229 128.848 267.376C128.751 267.522 128.612 267.636 128.449 267.703C128.287 267.771 128.108 267.788 127.935 267.754C127.762 267.72 127.604 267.635 127.479 267.51C127.355 267.386 127.27 267.227 127.236 267.055C127.202 266.882 127.219 266.703 127.286 266.541C127.354 266.378 127.468 266.239 127.614 266.141C127.761 266.044 127.933 265.991 128.109 265.991C128.345 265.991 128.571 266.085 128.738 266.252C128.905 266.419 128.998 266.645 128.998 266.881Z" fill="#08A8E4"/>
<path d="M82.4164 277.017C82.4164 277.193 82.3642 277.365 82.2664 277.511C82.1686 277.658 82.0296 277.772 81.8671 277.839C81.7045 277.906 81.5256 277.924 81.3529 277.89C81.1803 277.855 81.0218 277.771 80.8973 277.646C80.7729 277.522 80.6881 277.363 80.6538 277.191C80.6195 277.018 80.6371 276.839 80.7045 276.676C80.7718 276.514 80.8859 276.375 81.0322 276.277C81.1785 276.179 81.3506 276.127 81.5266 276.127C81.7626 276.127 81.9889 276.221 82.1558 276.388C82.3226 276.555 82.4164 276.781 82.4164 277.017Z" fill="#08A8E4"/>
<path d="M94.8477 277.906C95.3342 277.906 95.7286 277.512 95.7286 277.025C95.7286 276.539 95.3342 276.145 94.8477 276.145C94.3612 276.145 93.9668 276.539 93.9668 277.025C93.9668 277.512 94.3612 277.906 94.8477 277.906Z" fill="#08A8E4"/>
<path d="M108.15 277.907C108.637 277.907 109.031 277.512 109.031 277.026C109.031 276.539 108.637 276.145 108.15 276.145C107.664 276.145 107.269 276.539 107.269 277.026C107.269 277.512 107.664 277.907 108.15 277.907Z" fill="#08A8E4"/>
<path d="M122.327 277.017C122.327 277.193 122.274 277.365 122.177 277.511C122.079 277.658 121.94 277.772 121.777 277.839C121.615 277.906 121.436 277.924 121.263 277.89C121.091 277.855 120.932 277.771 120.808 277.646C120.683 277.522 120.598 277.363 120.564 277.191C120.53 277.018 120.547 276.839 120.615 276.676C120.682 276.514 120.796 276.375 120.942 276.277C121.089 276.179 121.261 276.127 121.437 276.127C121.673 276.127 121.899 276.221 122.066 276.388C122.233 276.555 122.327 276.781 122.327 277.017Z" fill="#08A8E4"/>
<path d="M75.7698 287.205C75.7698 287.441 75.6761 287.667 75.5092 287.834C75.3423 288.001 75.116 288.094 74.88 288.094C74.644 288.094 74.4177 288.001 74.2508 287.834C74.0839 287.667 73.9902 287.441 73.9902 287.205C73.9902 286.969 74.0839 286.742 74.2508 286.575C74.4177 286.409 74.644 286.315 74.88 286.315C75.116 286.315 75.3423 286.409 75.5092 286.575C75.6761 286.742 75.7698 286.969 75.7698 287.205Z" fill="#08A8E4"/>
<path d="M88.1934 288.095C88.6799 288.095 89.0744 287.7 89.0744 287.214C89.0744 286.727 88.6799 286.333 88.1934 286.333C87.7069 286.333 87.3125 286.727 87.3125 287.214C87.3125 287.7 87.7069 288.095 88.1934 288.095Z" fill="#08A8E4"/>
<path d="M101.504 288.095C101.99 288.095 102.385 287.7 102.385 287.214C102.385 286.727 101.99 286.333 101.504 286.333C101.017 286.333 100.623 286.727 100.623 287.214C100.623 287.7 101.017 288.095 101.504 288.095Z" fill="#08A8E4"/>
<path d="M114.807 288.095C115.293 288.095 115.688 287.7 115.688 287.214C115.688 286.727 115.293 286.333 114.807 286.333C114.32 286.333 113.926 286.727 113.926 287.214C113.926 287.7 114.32 288.095 114.807 288.095Z" fill="#08A8E4"/>
<path d="M128.998 287.205C128.998 287.381 128.946 287.553 128.848 287.699C128.751 287.845 128.612 287.96 128.449 288.027C128.287 288.094 128.108 288.112 127.935 288.077C127.762 288.043 127.604 287.958 127.479 287.834C127.355 287.71 127.27 287.551 127.236 287.378C127.202 287.206 127.219 287.027 127.286 286.864C127.354 286.702 127.468 286.563 127.614 286.465C127.761 286.367 127.933 286.315 128.109 286.315C128.345 286.315 128.571 286.409 128.738 286.576C128.905 286.742 128.998 286.969 128.998 287.205Z" fill="#08A8E4"/>
<path d="M82.4164 297.349C82.4164 297.525 82.3642 297.697 82.2664 297.843C82.1686 297.99 82.0296 298.104 81.8671 298.171C81.7045 298.238 81.5256 298.256 81.3529 298.222C81.1803 298.187 81.0218 298.103 80.8973 297.978C80.7729 297.854 80.6881 297.695 80.6538 297.523C80.6195 297.35 80.6371 297.171 80.7045 297.008C80.7718 296.846 80.8859 296.707 81.0322 296.609C81.1785 296.511 81.3506 296.459 81.5266 296.459C81.7626 296.459 81.9889 296.553 82.1558 296.72C82.3226 296.887 82.4164 297.113 82.4164 297.349Z" fill="#08A8E4"/>
<path d="M94.8477 298.23C95.3342 298.23 95.7286 297.836 95.7286 297.349C95.7286 296.863 95.3342 296.468 94.8477 296.468C94.3612 296.468 93.9668 296.863 93.9668 297.349C93.9668 297.836 94.3612 298.23 94.8477 298.23Z" fill="#08A8E4"/>
<path d="M108.15 298.23C108.637 298.23 109.031 297.836 109.031 297.349C109.031 296.863 108.637 296.468 108.15 296.468C107.664 296.468 107.269 296.863 107.269 297.349C107.269 297.836 107.664 298.23 108.15 298.23Z" fill="#08A8E4"/>
<path d="M122.327 297.349C122.327 297.525 122.274 297.697 122.177 297.843C122.079 297.99 121.94 298.104 121.777 298.171C121.615 298.238 121.436 298.256 121.263 298.222C121.091 298.187 120.932 298.103 120.808 297.978C120.683 297.854 120.598 297.695 120.564 297.523C120.53 297.35 120.547 297.171 120.615 297.008C120.682 296.846 120.796 296.707 120.942 296.609C121.089 296.511 121.261 296.459 121.437 296.459C121.673 296.459 121.899 296.553 122.066 296.72C122.233 296.887 122.327 297.113 122.327 297.349Z" fill="#08A8E4"/>
<path d="M75.7698 307.538C75.7698 307.714 75.7176 307.886 75.6199 308.032C75.5221 308.178 75.3831 308.292 75.2205 308.36C75.0579 308.427 74.879 308.445 74.7064 308.41C74.5338 308.376 74.3752 308.291 74.2508 308.167C74.1264 308.042 74.0416 307.884 74.0073 307.711C73.9729 307.539 73.9905 307.36 74.0579 307.197C74.1252 307.034 74.2393 306.895 74.3857 306.798C74.532 306.7 74.704 306.648 74.88 306.648C75.116 306.648 75.3423 306.741 75.5092 306.908C75.6761 307.075 75.7698 307.302 75.7698 307.538Z" fill="#08A8E4"/>
<path d="M88.1934 308.419C88.6799 308.419 89.0744 308.024 89.0744 307.538C89.0744 307.051 88.6799 306.657 88.1934 306.657C87.7069 306.657 87.3125 307.051 87.3125 307.538C87.3125 308.024 87.7069 308.419 88.1934 308.419Z" fill="#08A8E4"/>
<path d="M101.504 308.419C101.99 308.419 102.385 308.024 102.385 307.538C102.385 307.051 101.99 306.657 101.504 306.657C101.017 306.657 100.623 307.051 100.623 307.538C100.623 308.024 101.017 308.419 101.504 308.419Z" fill="#08A8E4"/>
<path d="M114.807 308.419C115.293 308.419 115.688 308.024 115.688 307.538C115.688 307.051 115.293 306.657 114.807 306.657C114.32 306.657 113.926 307.051 113.926 307.538C113.926 308.024 114.32 308.419 114.807 308.419Z" fill="#08A8E4"/>
<path d="M128.998 307.538C128.998 307.774 128.905 308 128.738 308.167C128.571 308.334 128.345 308.427 128.109 308.427C127.873 308.427 127.646 308.334 127.479 308.167C127.313 308 127.219 307.774 127.219 307.538C127.219 307.302 127.313 307.075 127.479 306.908C127.646 306.741 127.873 306.648 128.109 306.648C128.345 306.648 128.571 306.741 128.738 306.908C128.905 307.075 128.998 307.302 128.998 307.538Z" fill="#08A8E4"/>
<path d="M82.4164 317.673C82.4164 317.849 82.3642 318.021 82.2664 318.167C82.1686 318.313 82.0296 318.427 81.8671 318.495C81.7045 318.562 81.5256 318.58 81.3529 318.545C81.1803 318.511 81.0218 318.426 80.8973 318.302C80.7729 318.177 80.6881 318.019 80.6538 317.846C80.6195 317.674 80.6371 317.495 80.7045 317.332C80.7718 317.169 80.8859 317.03 81.0322 316.933C81.1785 316.835 81.3506 316.783 81.5266 316.783C81.7626 316.783 81.9889 316.876 82.1558 317.043C82.3226 317.21 82.4164 317.437 82.4164 317.673Z" fill="#08A8E4"/>
<path d="M94.8477 318.553C95.3342 318.553 95.7286 318.159 95.7286 317.672C95.7286 317.186 95.3342 316.791 94.8477 316.791C94.3612 316.791 93.9668 317.186 93.9668 317.672C93.9668 318.159 94.3612 318.553 94.8477 318.553Z" fill="#08A8E4"/>
<path d="M108.15 318.553C108.637 318.553 109.031 318.159 109.031 317.672C109.031 317.186 108.637 316.791 108.15 316.791C107.664 316.791 107.269 317.186 107.269 317.672C107.269 318.159 107.664 318.553 108.15 318.553Z" fill="#08A8E4"/>
<path d="M122.327 317.673C122.327 317.849 122.274 318.021 122.177 318.167C122.079 318.313 121.94 318.427 121.777 318.495C121.615 318.562 121.436 318.58 121.263 318.545C121.091 318.511 120.932 318.426 120.808 318.302C120.683 318.177 120.598 318.019 120.564 317.846C120.53 317.674 120.547 317.495 120.615 317.332C120.682 317.169 120.796 317.03 120.942 316.933C121.089 316.835 121.261 316.783 121.437 316.783C121.673 316.783 121.899 316.876 122.066 317.043C122.233 317.21 122.327 317.437 122.327 317.673Z" fill="#08A8E4"/>
</g>
</g>
<circle cx="83" cy="881" r="8" fill="#FFCCF2"/>
<circle cx="134.5" cy="1126.5" r="5.5" fill="#FFCCF2"/>
<circle cx="1343" cy="508" r="8" fill="#FFCCF2"/>
<circle cx="1282.5" cy="1136.5" r="5.5" fill="#BDEBFC"/>
<circle cx="1293.5" cy="696.5" r="5.5" fill="#BDEBFC"/>
<g clip-path="url(#clip7_0_2745)">
<path d="M45 384.989L55.8703 391.279V378.722L45 384.989Z" fill="#BDEBFC"/>
<path d="M87.0002 384.989L76.1299 378.722V391.278L87.0002 384.989Z" fill="#BDEBFC"/>
<path d="M65.9906 406.001L72.2803 395.13H59.7236L65.9906 406.001Z" fill="#BDEBFC"/>
<path d="M65.9906 364L59.7236 374.87H72.2803L65.9906 364Z" fill="#BDEBFC"/>
</g>
</g>
<defs>
<clipPath id="clip0_0_2745">
<rect width="1440" height="1150" fill="white"/>
</clipPath>
<clipPath id="clip1_0_2745">
<rect width="55" height="52.5619" fill="white" transform="translate(1277 250)"/>
</clipPath>
<clipPath id="clip2_0_2745">
<rect width="55" height="52.5619" fill="white" transform="translate(1345 1053)"/>
</clipPath>
<clipPath id="clip3_0_2745">
<rect width="33" height="31.5371" fill="white" transform="translate(41 1008)"/>
</clipPath>
<clipPath id="clip4_0_2745">
<rect width="42" height="42" fill="white" transform="translate(1324 96)"/>
</clipPath>
<clipPath id="clip5_0_2745">
<rect width="42" height="42" fill="white" transform="translate(58 1076)"/>
</clipPath>
<clipPath id="clip6_0_2745">
<rect width="55" height="52.5619" fill="white" transform="translate(74 266)"/>
</clipPath>
<clipPath id="clip7_0_2745">
<rect width="42" height="42" fill="white" transform="translate(45 364)"/>
</clipPath>
</defs>
</svg>
