<svg width="1440" height="1251" viewBox="0 0 1440 1251" fill="none" xmlns="http://www.w3.org/2000/svg">
<g clip-path="url(#clip0_0_3140)">
<rect width="1440" height="1251" fill="white"/>
<g clip-path="url(#clip1_0_3140)">
<g opacity="0.51">
<path d="M1342.77 211.881C1342.77 212.057 1342.72 212.229 1342.62 212.376C1342.52 212.522 1342.38 212.636 1342.22 212.703C1342.06 212.771 1341.88 212.788 1341.71 212.754C1341.53 212.72 1341.38 212.635 1341.25 212.51C1341.13 212.386 1341.04 212.227 1341.01 212.055C1340.97 211.882 1340.99 211.703 1341.06 211.541C1341.13 211.378 1341.24 211.239 1341.39 211.141C1341.53 211.044 1341.7 210.991 1341.88 210.991C1342.12 210.991 1342.34 211.085 1342.51 211.252C1342.68 211.419 1342.77 211.645 1342.77 211.881Z" fill="#08A8E4"/>
<path d="M1355.19 212.762C1355.68 212.762 1356.07 212.368 1356.07 211.881C1356.07 211.395 1355.68 211 1355.19 211C1354.71 211 1354.31 211.395 1354.31 211.881C1354.31 212.368 1354.71 212.762 1355.19 212.762Z" fill="#08A8E4"/>
<path d="M1368.5 212.762C1368.99 212.762 1369.39 212.368 1369.39 211.881C1369.39 211.395 1368.99 211 1368.5 211C1368.02 211 1367.62 211.395 1367.62 211.881C1367.62 212.368 1368.02 212.762 1368.5 212.762Z" fill="#08A8E4"/>
<path d="M1381.81 212.762C1382.29 212.762 1382.69 212.368 1382.69 211.881C1382.69 211.395 1382.29 211 1381.81 211C1381.32 211 1380.93 211.395 1380.93 211.881C1380.93 212.368 1381.32 212.762 1381.81 212.762Z" fill="#08A8E4"/>
<path d="M1396 211.881C1396 212.057 1395.95 212.229 1395.85 212.376C1395.75 212.522 1395.61 212.636 1395.45 212.703C1395.29 212.771 1395.11 212.788 1394.94 212.754C1394.76 212.72 1394.6 212.635 1394.48 212.51C1394.36 212.386 1394.27 212.227 1394.24 212.055C1394.2 211.882 1394.22 211.703 1394.29 211.541C1394.35 211.378 1394.47 211.239 1394.62 211.141C1394.76 211.044 1394.93 210.991 1395.11 210.991C1395.35 210.991 1395.57 211.085 1395.74 211.252C1395.91 211.419 1396 211.645 1396 211.881Z" fill="#08A8E4"/>
<path d="M1349.42 222.017C1349.42 222.193 1349.37 222.365 1349.27 222.511C1349.17 222.658 1349.03 222.772 1348.87 222.839C1348.71 222.906 1348.53 222.924 1348.35 222.89C1348.18 222.855 1348.02 222.771 1347.9 222.646C1347.77 222.522 1347.69 222.363 1347.66 222.191C1347.62 222.018 1347.64 221.839 1347.71 221.676C1347.77 221.514 1347.89 221.375 1348.03 221.277C1348.18 221.179 1348.35 221.127 1348.53 221.127C1348.76 221.127 1348.99 221.221 1349.16 221.388C1349.32 221.555 1349.42 221.781 1349.42 222.017Z" fill="#08A8E4"/>
<path d="M1361.85 222.906C1362.33 222.906 1362.73 222.512 1362.73 222.025C1362.73 221.539 1362.33 221.144 1361.85 221.144C1361.36 221.144 1360.97 221.539 1360.97 222.025C1360.97 222.512 1361.36 222.906 1361.85 222.906Z" fill="#08A8E4"/>
<path d="M1375.15 222.907C1375.64 222.907 1376.03 222.512 1376.03 222.026C1376.03 221.539 1375.64 221.145 1375.15 221.145C1374.66 221.145 1374.27 221.539 1374.27 222.026C1374.27 222.512 1374.66 222.907 1375.15 222.907Z" fill="#08A8E4"/>
<path d="M1389.33 222.017C1389.33 222.193 1389.27 222.365 1389.18 222.511C1389.08 222.658 1388.94 222.772 1388.78 222.839C1388.61 222.906 1388.44 222.924 1388.26 222.89C1388.09 222.855 1387.93 222.771 1387.81 222.646C1387.68 222.522 1387.6 222.363 1387.56 222.191C1387.53 222.018 1387.55 221.839 1387.61 221.676C1387.68 221.514 1387.8 221.375 1387.94 221.277C1388.09 221.179 1388.26 221.127 1388.44 221.127C1388.67 221.127 1388.9 221.221 1389.07 221.388C1389.23 221.555 1389.33 221.781 1389.33 222.017Z" fill="#08A8E4"/>
<path d="M1342.77 232.205C1342.77 232.441 1342.68 232.667 1342.51 232.834C1342.34 233.001 1342.12 233.094 1341.88 233.094C1341.64 233.094 1341.42 233.001 1341.25 232.834C1341.08 232.667 1340.99 232.441 1340.99 232.205C1340.99 231.969 1341.08 231.742 1341.25 231.575C1341.42 231.409 1341.64 231.315 1341.88 231.315C1342.12 231.315 1342.34 231.409 1342.51 231.575C1342.68 231.742 1342.77 231.969 1342.77 232.205Z" fill="#08A8E4"/>
<path d="M1355.19 233.095C1355.68 233.095 1356.07 232.7 1356.07 232.214C1356.07 231.727 1355.68 231.333 1355.19 231.333C1354.71 231.333 1354.31 231.727 1354.31 232.214C1354.31 232.7 1354.71 233.095 1355.19 233.095Z" fill="#08A8E4"/>
<path d="M1368.5 233.095C1368.99 233.095 1369.39 232.7 1369.39 232.214C1369.39 231.727 1368.99 231.333 1368.5 231.333C1368.02 231.333 1367.62 231.727 1367.62 232.214C1367.62 232.7 1368.02 233.095 1368.5 233.095Z" fill="#08A8E4"/>
<path d="M1381.81 233.095C1382.29 233.095 1382.69 232.7 1382.69 232.214C1382.69 231.727 1382.29 231.333 1381.81 231.333C1381.32 231.333 1380.93 231.727 1380.93 232.214C1380.93 232.7 1381.32 233.095 1381.81 233.095Z" fill="#08A8E4"/>
<path d="M1396 232.205C1396 232.381 1395.95 232.553 1395.85 232.699C1395.75 232.845 1395.61 232.96 1395.45 233.027C1395.29 233.094 1395.11 233.112 1394.94 233.077C1394.76 233.043 1394.6 232.958 1394.48 232.834C1394.36 232.71 1394.27 232.551 1394.24 232.378C1394.2 232.206 1394.22 232.027 1394.29 231.864C1394.35 231.702 1394.47 231.563 1394.62 231.465C1394.76 231.367 1394.93 231.315 1395.11 231.315C1395.35 231.315 1395.57 231.409 1395.74 231.576C1395.91 231.742 1396 231.969 1396 232.205Z" fill="#08A8E4"/>
<path d="M1349.42 242.349C1349.42 242.525 1349.37 242.697 1349.27 242.843C1349.17 242.99 1349.03 243.104 1348.87 243.171C1348.71 243.238 1348.53 243.256 1348.35 243.222C1348.18 243.187 1348.02 243.103 1347.9 242.978C1347.77 242.854 1347.69 242.695 1347.66 242.523C1347.62 242.35 1347.64 242.171 1347.71 242.008C1347.77 241.846 1347.89 241.707 1348.03 241.609C1348.18 241.511 1348.35 241.459 1348.53 241.459C1348.76 241.459 1348.99 241.553 1349.16 241.72C1349.32 241.887 1349.42 242.113 1349.42 242.349Z" fill="#08A8E4"/>
<path d="M1361.85 243.23C1362.33 243.23 1362.73 242.836 1362.73 242.349C1362.73 241.863 1362.33 241.468 1361.85 241.468C1361.36 241.468 1360.97 241.863 1360.97 242.349C1360.97 242.836 1361.36 243.23 1361.85 243.23Z" fill="#08A8E4"/>
<path d="M1375.15 243.23C1375.64 243.23 1376.03 242.836 1376.03 242.349C1376.03 241.863 1375.64 241.468 1375.15 241.468C1374.66 241.468 1374.27 241.863 1374.27 242.349C1374.27 242.836 1374.66 243.23 1375.15 243.23Z" fill="#08A8E4"/>
<path d="M1389.33 242.349C1389.33 242.525 1389.27 242.697 1389.18 242.843C1389.08 242.99 1388.94 243.104 1388.78 243.171C1388.61 243.238 1388.44 243.256 1388.26 243.222C1388.09 243.187 1387.93 243.103 1387.81 242.978C1387.68 242.854 1387.6 242.695 1387.56 242.523C1387.53 242.35 1387.55 242.171 1387.61 242.008C1387.68 241.846 1387.8 241.707 1387.94 241.609C1388.09 241.511 1388.26 241.459 1388.44 241.459C1388.67 241.459 1388.9 241.553 1389.07 241.72C1389.23 241.887 1389.33 242.113 1389.33 242.349Z" fill="#08A8E4"/>
<path d="M1342.77 252.538C1342.77 252.714 1342.72 252.886 1342.62 253.032C1342.52 253.178 1342.38 253.292 1342.22 253.36C1342.06 253.427 1341.88 253.445 1341.71 253.41C1341.53 253.376 1341.38 253.291 1341.25 253.167C1341.13 253.042 1341.04 252.884 1341.01 252.711C1340.97 252.539 1340.99 252.36 1341.06 252.197C1341.13 252.034 1341.24 251.895 1341.39 251.798C1341.53 251.7 1341.7 251.648 1341.88 251.648C1342.12 251.648 1342.34 251.741 1342.51 251.908C1342.68 252.075 1342.77 252.302 1342.77 252.538Z" fill="#08A8E4"/>
<path d="M1355.19 253.419C1355.68 253.419 1356.07 253.024 1356.07 252.538C1356.07 252.051 1355.68 251.657 1355.19 251.657C1354.71 251.657 1354.31 252.051 1354.31 252.538C1354.31 253.024 1354.71 253.419 1355.19 253.419Z" fill="#08A8E4"/>
<path d="M1368.5 253.419C1368.99 253.419 1369.39 253.024 1369.39 252.538C1369.39 252.051 1368.99 251.657 1368.5 251.657C1368.02 251.657 1367.62 252.051 1367.62 252.538C1367.62 253.024 1368.02 253.419 1368.5 253.419Z" fill="#08A8E4"/>
<path d="M1381.81 253.419C1382.29 253.419 1382.69 253.024 1382.69 252.538C1382.69 252.051 1382.29 251.657 1381.81 251.657C1381.32 251.657 1380.93 252.051 1380.93 252.538C1380.93 253.024 1381.32 253.419 1381.81 253.419Z" fill="#08A8E4"/>
<path d="M1396 252.538C1396 252.774 1395.91 253 1395.74 253.167C1395.57 253.334 1395.35 253.427 1395.11 253.427C1394.87 253.427 1394.65 253.334 1394.48 253.167C1394.31 253 1394.22 252.774 1394.22 252.538C1394.22 252.302 1394.31 252.075 1394.48 251.908C1394.65 251.741 1394.87 251.648 1395.11 251.648C1395.35 251.648 1395.57 251.741 1395.74 251.908C1395.91 252.075 1396 252.302 1396 252.538Z" fill="#08A8E4"/>
<path d="M1349.42 262.673C1349.42 262.849 1349.37 263.021 1349.27 263.167C1349.17 263.313 1349.03 263.427 1348.87 263.495C1348.71 263.562 1348.53 263.58 1348.35 263.545C1348.18 263.511 1348.02 263.426 1347.9 263.302C1347.77 263.177 1347.69 263.019 1347.66 262.846C1347.62 262.674 1347.64 262.495 1347.71 262.332C1347.77 262.169 1347.89 262.03 1348.03 261.933C1348.18 261.835 1348.35 261.783 1348.53 261.783C1348.76 261.783 1348.99 261.876 1349.16 262.043C1349.32 262.21 1349.42 262.437 1349.42 262.673Z" fill="#08A8E4"/>
<path d="M1361.85 263.553C1362.33 263.553 1362.73 263.159 1362.73 262.672C1362.73 262.186 1362.33 261.791 1361.85 261.791C1361.36 261.791 1360.97 262.186 1360.97 262.672C1360.97 263.159 1361.36 263.553 1361.85 263.553Z" fill="#08A8E4"/>
<path d="M1375.15 263.553C1375.64 263.553 1376.03 263.159 1376.03 262.672C1376.03 262.186 1375.64 261.791 1375.15 261.791C1374.66 261.791 1374.27 262.186 1374.27 262.672C1374.27 263.159 1374.66 263.553 1375.15 263.553Z" fill="#08A8E4"/>
<path d="M1389.33 262.673C1389.33 262.849 1389.27 263.021 1389.18 263.167C1389.08 263.313 1388.94 263.427 1388.78 263.495C1388.61 263.562 1388.44 263.58 1388.26 263.545C1388.09 263.511 1387.93 263.426 1387.81 263.302C1387.68 263.177 1387.6 263.019 1387.56 262.846C1387.53 262.674 1387.55 262.495 1387.61 262.332C1387.68 262.169 1387.8 262.03 1387.94 261.933C1388.09 261.835 1388.26 261.783 1388.44 261.783C1388.67 261.783 1388.9 261.876 1389.07 262.043C1389.23 262.21 1389.33 262.437 1389.33 262.673Z" fill="#08A8E4"/>
</g>
</g>
<path d="M1174.59 193.023C1462.59 127.173 1460.68 -61.602 1545.18 -60.8533L1542.93 193.023C1547.13 243.535 1606.59 504.892 1606.59 601.173C1606.59 675.173 1642.09 1068.53 1404 1043.17C1165.91 1017.81 959.999 1379 659.999 1099C415.972 871.241 760.585 699.173 812.586 523.173C855.393 378.288 916.586 252.013 1174.59 193.023Z" fill="#F0FBFF"/>
<path d="M328.232 -229.433C265.848 -417.282 374.635 -481.806 344.837 -529.944L200.204 -440.414C169.812 -425.264 -0.552864 -368.475 -55.7006 -335.011C-98.0863 -309.29 -285.947 -214.173 -188.665 -86.6128C-91.3839 40.9471 -282.923 307.938 26.1946 370.778C122.658 390.388 182.217 183.624 264.952 92.6656C333.06 17.7881 384.119 -61.1521 328.232 -229.433Z" fill="#FEF9FD"/>
<path d="M465.962 1257.43C409.247 1428.21 508.148 1486.87 481.058 1530.63L349.568 1449.24C321.938 1435.47 167.055 1383.84 116.919 1353.42C78.3851 1330.03 -92.4037 1243.56 -3.96261 1127.59C84.4785 1011.62 -89.6541 768.895 191.372 711.766C279.07 693.938 333.216 881.912 408.432 964.604C470.351 1032.68 516.77 1104.44 465.962 1257.43Z" fill="#FEF9FD"/>
<circle cx="1422.5" cy="1078.5" r="5.5" fill="#BDEBFC"/>
<circle cx="146" cy="72" r="8" fill="#BDEBFC"/>
<g clip-path="url(#clip2_0_3140)">
<g opacity="0.51">
<path d="M1410.77 1014.88C1410.77 1015.06 1410.72 1015.23 1410.62 1015.38C1410.52 1015.52 1410.38 1015.64 1410.22 1015.7C1410.06 1015.77 1409.88 1015.79 1409.71 1015.75C1409.53 1015.72 1409.38 1015.63 1409.25 1015.51C1409.13 1015.39 1409.04 1015.23 1409.01 1015.05C1408.97 1014.88 1408.99 1014.7 1409.06 1014.54C1409.13 1014.38 1409.24 1014.24 1409.39 1014.14C1409.53 1014.04 1409.7 1013.99 1409.88 1013.99C1410.12 1013.99 1410.34 1014.09 1410.51 1014.25C1410.68 1014.42 1410.77 1014.65 1410.77 1014.88Z" fill="#7F2069"/>
<path d="M1423.19 1015.76C1423.68 1015.76 1424.07 1015.37 1424.07 1014.88C1424.07 1014.39 1423.68 1014 1423.19 1014C1422.71 1014 1422.31 1014.39 1422.31 1014.88C1422.31 1015.37 1422.71 1015.76 1423.19 1015.76Z" fill="#7F2069"/>
<path d="M1436.5 1015.76C1436.99 1015.76 1437.38 1015.37 1437.38 1014.88C1437.38 1014.39 1436.99 1014 1436.5 1014C1436.02 1014 1435.62 1014.39 1435.62 1014.88C1435.62 1015.37 1436.02 1015.76 1436.5 1015.76Z" fill="#7F2069"/>
<path d="M1417.42 1025.02C1417.42 1025.19 1417.36 1025.36 1417.27 1025.51C1417.17 1025.66 1417.03 1025.77 1416.87 1025.84C1416.7 1025.91 1416.53 1025.92 1416.35 1025.89C1416.18 1025.86 1416.02 1025.77 1415.9 1025.65C1415.77 1025.52 1415.69 1025.36 1415.65 1025.19C1415.62 1025.02 1415.64 1024.84 1415.7 1024.68C1415.77 1024.51 1415.89 1024.37 1416.03 1024.28C1416.18 1024.18 1416.35 1024.13 1416.53 1024.13C1416.76 1024.13 1416.99 1024.22 1417.16 1024.39C1417.32 1024.55 1417.42 1024.78 1417.42 1025.02Z" fill="#7F2069"/>
<path d="M1429.85 1025.91C1430.33 1025.91 1430.73 1025.51 1430.73 1025.03C1430.73 1024.54 1430.33 1024.14 1429.85 1024.14C1429.36 1024.14 1428.97 1024.54 1428.97 1025.03C1428.97 1025.51 1429.36 1025.91 1429.85 1025.91Z" fill="#7F2069"/>
<path d="M1410.77 1035.2C1410.77 1035.44 1410.68 1035.67 1410.51 1035.83C1410.34 1036 1410.12 1036.09 1409.88 1036.09C1409.64 1036.09 1409.42 1036 1409.25 1035.83C1409.08 1035.67 1408.99 1035.44 1408.99 1035.2C1408.99 1034.97 1409.08 1034.74 1409.25 1034.58C1409.42 1034.41 1409.64 1034.31 1409.88 1034.31C1410.12 1034.31 1410.34 1034.41 1410.51 1034.58C1410.68 1034.74 1410.77 1034.97 1410.77 1035.2Z" fill="#7F2069"/>
<path d="M1423.19 1036.09C1423.68 1036.09 1424.07 1035.7 1424.07 1035.21C1424.07 1034.73 1423.68 1034.33 1423.19 1034.33C1422.71 1034.33 1422.31 1034.73 1422.31 1035.21C1422.31 1035.7 1422.71 1036.09 1423.19 1036.09Z" fill="#7F2069"/>
<path d="M1436.5 1036.09C1436.99 1036.09 1437.38 1035.7 1437.38 1035.21C1437.38 1034.73 1436.99 1034.33 1436.5 1034.33C1436.02 1034.33 1435.62 1034.73 1435.62 1035.21C1435.62 1035.7 1436.02 1036.09 1436.5 1036.09Z" fill="#7F2069"/>
<path d="M1417.42 1045.35C1417.42 1045.53 1417.36 1045.7 1417.27 1045.84C1417.17 1045.99 1417.03 1046.1 1416.87 1046.17C1416.7 1046.24 1416.53 1046.26 1416.35 1046.22C1416.18 1046.19 1416.02 1046.1 1415.9 1045.98C1415.77 1045.85 1415.69 1045.7 1415.65 1045.52C1415.62 1045.35 1415.64 1045.17 1415.7 1045.01C1415.77 1044.85 1415.89 1044.71 1416.03 1044.61C1416.18 1044.51 1416.35 1044.46 1416.53 1044.46C1416.76 1044.46 1416.99 1044.55 1417.16 1044.72C1417.32 1044.89 1417.42 1045.11 1417.42 1045.35Z" fill="#7F2069"/>
<path d="M1429.85 1046.23C1430.33 1046.23 1430.73 1045.84 1430.73 1045.35C1430.73 1044.86 1430.33 1044.47 1429.85 1044.47C1429.36 1044.47 1428.97 1044.86 1428.97 1045.35C1428.97 1045.84 1429.36 1046.23 1429.85 1046.23Z" fill="#7F2069"/>
<path d="M1410.77 1055.54C1410.77 1055.71 1410.72 1055.89 1410.62 1056.03C1410.52 1056.18 1410.38 1056.29 1410.22 1056.36C1410.06 1056.43 1409.88 1056.44 1409.71 1056.41C1409.53 1056.38 1409.38 1056.29 1409.25 1056.17C1409.13 1056.04 1409.04 1055.88 1409.01 1055.71C1408.97 1055.54 1408.99 1055.36 1409.06 1055.2C1409.13 1055.03 1409.24 1054.9 1409.39 1054.8C1409.53 1054.7 1409.7 1054.65 1409.88 1054.65C1410.12 1054.65 1410.34 1054.74 1410.51 1054.91C1410.68 1055.08 1410.77 1055.3 1410.77 1055.54Z" fill="#7F2069"/>
<path d="M1423.19 1056.42C1423.68 1056.42 1424.07 1056.02 1424.07 1055.54C1424.07 1055.05 1423.68 1054.66 1423.19 1054.66C1422.71 1054.66 1422.31 1055.05 1422.31 1055.54C1422.31 1056.02 1422.71 1056.42 1423.19 1056.42Z" fill="#7F2069"/>
<path d="M1436.5 1056.42C1436.99 1056.42 1437.38 1056.02 1437.38 1055.54C1437.38 1055.05 1436.99 1054.66 1436.5 1054.66C1436.02 1054.66 1435.62 1055.05 1435.62 1055.54C1435.62 1056.02 1436.02 1056.42 1436.5 1056.42Z" fill="#7F2069"/>
<path d="M1417.42 1065.67C1417.42 1065.85 1417.36 1066.02 1417.27 1066.17C1417.17 1066.31 1417.03 1066.43 1416.87 1066.49C1416.7 1066.56 1416.53 1066.58 1416.35 1066.55C1416.18 1066.51 1416.02 1066.43 1415.9 1066.3C1415.77 1066.18 1415.69 1066.02 1415.65 1065.85C1415.62 1065.67 1415.64 1065.49 1415.7 1065.33C1415.77 1065.17 1415.89 1065.03 1416.03 1064.93C1416.18 1064.83 1416.35 1064.78 1416.53 1064.78C1416.76 1064.78 1416.99 1064.88 1417.16 1065.04C1417.32 1065.21 1417.42 1065.44 1417.42 1065.67Z" fill="#7F2069"/>
<path d="M1429.85 1066.55C1430.33 1066.55 1430.73 1066.16 1430.73 1065.67C1430.73 1065.19 1430.33 1064.79 1429.85 1064.79C1429.36 1064.79 1428.97 1065.19 1428.97 1065.67C1428.97 1066.16 1429.36 1066.55 1429.85 1066.55Z" fill="#7F2069"/>
</g>
</g>
<g clip-path="url(#clip3_0_3140)">
<g opacity="0.51">
<path d="M106.062 969.529C106.062 969.634 106.031 969.738 105.972 969.825C105.913 969.913 105.83 969.982 105.732 970.022C105.635 970.062 105.527 970.073 105.424 970.052C105.32 970.032 105.225 969.981 105.151 969.906C105.076 969.832 105.025 969.736 105.004 969.633C104.984 969.529 104.994 969.422 105.035 969.324C105.075 969.227 105.144 969.144 105.231 969.085C105.319 969.026 105.422 968.995 105.528 968.995C105.67 968.995 105.805 969.051 105.906 969.151C106.006 969.251 106.062 969.387 106.062 969.529Z" fill="#7F2069"/>
<path d="M113.517 970.057C113.809 970.057 114.045 969.821 114.045 969.529C114.045 969.237 113.809 969 113.517 969C113.225 969 112.988 969.237 112.988 969.529C112.988 969.821 113.225 970.057 113.517 970.057Z" fill="#7F2069"/>
<path d="M121.503 970.057C121.795 970.057 122.032 969.821 122.032 969.529C122.032 969.237 121.795 969 121.503 969C121.211 969 120.975 969.237 120.975 969.529C120.975 969.821 121.211 970.057 121.503 970.057Z" fill="#7F2069"/>
<path d="M129.484 970.057C129.776 970.057 130.012 969.821 130.012 969.529C130.012 969.237 129.776 969 129.484 969C129.192 969 128.955 969.237 128.955 969.529C128.955 969.821 129.192 970.057 129.484 970.057Z" fill="#7F2069"/>
<path d="M137.999 969.529C137.999 969.634 137.968 969.738 137.909 969.825C137.851 969.913 137.767 969.982 137.67 970.022C137.572 970.062 137.465 970.073 137.361 970.052C137.258 970.032 137.163 969.981 137.088 969.906C137.013 969.832 136.963 969.736 136.942 969.633C136.921 969.529 136.932 969.422 136.972 969.324C137.013 969.227 137.081 969.144 137.169 969.085C137.257 969.026 137.36 968.995 137.466 968.995C137.607 968.995 137.743 969.051 137.843 969.151C137.943 969.251 137.999 969.387 137.999 969.529Z" fill="#7F2069"/>
<path d="M110.05 975.61C110.05 975.716 110.019 975.819 109.96 975.907C109.902 975.994 109.818 976.063 109.721 976.103C109.623 976.144 109.516 976.154 109.412 976.134C109.309 976.113 109.214 976.062 109.139 975.988C109.064 975.913 109.014 975.818 108.993 975.714C108.972 975.611 108.983 975.503 109.023 975.406C109.064 975.308 109.132 975.225 109.22 975.166C109.308 975.107 109.411 975.076 109.517 975.076C109.658 975.076 109.794 975.132 109.894 975.233C109.994 975.333 110.05 975.468 110.05 975.61Z" fill="#7F2069"/>
<path d="M117.509 976.144C117.801 976.144 118.038 975.907 118.038 975.615C118.038 975.323 117.801 975.087 117.509 975.087C117.217 975.087 116.98 975.323 116.98 975.615C116.98 975.907 117.217 976.144 117.509 976.144Z" fill="#7F2069"/>
<path d="M125.489 976.144C125.781 976.144 126.018 975.907 126.018 975.615C126.018 975.323 125.781 975.087 125.489 975.087C125.198 975.087 124.961 975.323 124.961 975.615C124.961 975.907 125.198 976.144 125.489 976.144Z" fill="#7F2069"/>
<path d="M133.995 975.61C133.995 975.716 133.964 975.819 133.905 975.907C133.847 975.994 133.763 976.063 133.666 976.103C133.568 976.144 133.461 976.154 133.357 976.134C133.254 976.113 133.159 976.062 133.084 975.988C133.009 975.913 132.958 975.818 132.938 975.714C132.917 975.611 132.928 975.503 132.968 975.406C133.009 975.308 133.077 975.225 133.165 975.166C133.253 975.107 133.356 975.076 133.461 975.076C133.603 975.076 133.739 975.132 133.839 975.233C133.939 975.333 133.995 975.468 133.995 975.61Z" fill="#7F2069"/>
<path d="M106.062 981.723C106.062 981.864 106.006 982 105.906 982.1C105.805 982.2 105.67 982.257 105.528 982.257C105.386 982.257 105.251 982.2 105.151 982.1C105.05 982 104.994 981.864 104.994 981.723C104.994 981.581 105.05 981.445 105.151 981.345C105.251 981.245 105.386 981.189 105.528 981.189C105.67 981.189 105.805 981.245 105.906 981.345C106.006 981.445 106.062 981.581 106.062 981.723Z" fill="#7F2069"/>
<path d="M113.517 982.257C113.809 982.257 114.045 982.02 114.045 981.728C114.045 981.436 113.809 981.2 113.517 981.2C113.225 981.2 112.988 981.436 112.988 981.728C112.988 982.02 113.225 982.257 113.517 982.257Z" fill="#7F2069"/>
<path d="M121.503 982.257C121.795 982.257 122.032 982.02 122.032 981.728C122.032 981.436 121.795 981.2 121.503 981.2C121.211 981.2 120.975 981.436 120.975 981.728C120.975 982.02 121.211 982.257 121.503 982.257Z" fill="#7F2069"/>
<path d="M129.484 982.257C129.776 982.257 130.012 982.02 130.012 981.728C130.012 981.436 129.776 981.2 129.484 981.2C129.192 981.2 128.955 981.436 128.955 981.728C128.955 982.02 129.192 982.257 129.484 982.257Z" fill="#7F2069"/>
<path d="M137.999 981.723C137.999 981.828 137.968 981.932 137.909 982.019C137.851 982.107 137.767 982.176 137.67 982.216C137.572 982.257 137.465 982.267 137.361 982.246C137.258 982.226 137.163 982.175 137.088 982.1C137.013 982.026 136.963 981.931 136.942 981.827C136.921 981.723 136.932 981.616 136.972 981.519C137.013 981.421 137.081 981.338 137.169 981.279C137.257 981.22 137.36 981.189 137.466 981.189C137.607 981.189 137.743 981.245 137.843 981.345C137.943 981.445 137.999 981.581 137.999 981.723Z" fill="#7F2069"/>
<path d="M110.05 987.809C110.05 987.915 110.019 988.018 109.96 988.106C109.902 988.194 109.818 988.262 109.721 988.303C109.623 988.343 109.516 988.354 109.412 988.333C109.309 988.312 109.214 988.261 109.139 988.187C109.064 988.112 109.014 988.017 108.993 987.913C108.972 987.81 108.983 987.703 109.023 987.605C109.064 987.507 109.132 987.424 109.22 987.365C109.308 987.307 109.411 987.275 109.517 987.275C109.658 987.275 109.794 987.332 109.894 987.432C109.994 987.532 110.05 987.668 110.05 987.809Z" fill="#7F2069"/>
<path d="M117.509 988.338C117.801 988.338 118.038 988.101 118.038 987.809C118.038 987.518 117.801 987.281 117.509 987.281C117.217 987.281 116.98 987.518 116.98 987.809C116.98 988.101 117.217 988.338 117.509 988.338Z" fill="#7F2069"/>
<path d="M125.489 988.338C125.781 988.338 126.018 988.101 126.018 987.809C126.018 987.518 125.781 987.281 125.489 987.281C125.198 987.281 124.961 987.518 124.961 987.809C124.961 988.101 125.198 988.338 125.489 988.338Z" fill="#7F2069"/>
<path d="M133.995 987.809C133.995 987.915 133.964 988.018 133.905 988.106C133.847 988.194 133.763 988.262 133.666 988.303C133.568 988.343 133.461 988.354 133.357 988.333C133.254 988.312 133.159 988.261 133.084 988.187C133.009 988.112 132.958 988.017 132.938 987.913C132.917 987.81 132.928 987.703 132.968 987.605C133.009 987.507 133.077 987.424 133.165 987.365C133.253 987.307 133.356 987.275 133.461 987.275C133.603 987.275 133.739 987.332 133.839 987.432C133.939 987.532 133.995 987.668 133.995 987.809Z" fill="#7F2069"/>
<path d="M106.062 993.922C106.062 994.028 106.031 994.131 105.972 994.219C105.913 994.307 105.83 994.375 105.732 994.416C105.635 994.456 105.527 994.467 105.424 994.446C105.32 994.425 105.225 994.375 105.151 994.3C105.076 994.225 105.025 994.13 105.004 994.027C104.984 993.923 104.994 993.816 105.035 993.718C105.075 993.621 105.144 993.537 105.231 993.479C105.319 993.42 105.422 993.389 105.528 993.389C105.67 993.389 105.805 993.445 105.906 993.545C106.006 993.645 106.062 993.781 106.062 993.922Z" fill="#7F2069"/>
<path d="M113.517 994.451C113.809 994.451 114.045 994.215 114.045 993.923C114.045 993.631 113.809 993.394 113.517 993.394C113.225 993.394 112.988 993.631 112.988 993.923C112.988 994.215 113.225 994.451 113.517 994.451Z" fill="#7F2069"/>
<path d="M121.503 994.451C121.795 994.451 122.032 994.215 122.032 993.923C122.032 993.631 121.795 993.394 121.503 993.394C121.211 993.394 120.975 993.631 120.975 993.923C120.975 994.215 121.211 994.451 121.503 994.451Z" fill="#7F2069"/>
<path d="M129.484 994.451C129.776 994.451 130.012 994.215 130.012 993.923C130.012 993.631 129.776 993.394 129.484 993.394C129.192 993.394 128.955 993.631 128.955 993.923C128.955 994.215 129.192 994.451 129.484 994.451Z" fill="#7F2069"/>
<path d="M137.999 993.922C137.999 994.064 137.943 994.2 137.843 994.3C137.743 994.4 137.607 994.456 137.466 994.456C137.324 994.456 137.188 994.4 137.088 994.3C136.988 994.2 136.932 994.064 136.932 993.922C136.932 993.781 136.988 993.645 137.088 993.545C137.188 993.445 137.324 993.389 137.466 993.389C137.607 993.389 137.743 993.445 137.843 993.545C137.943 993.645 137.999 993.781 137.999 993.922Z" fill="#7F2069"/>
<path d="M110.05 1000C110.05 1000.11 110.019 1000.21 109.96 1000.3C109.902 1000.39 109.818 1000.46 109.721 1000.5C109.623 1000.54 109.516 1000.55 109.412 1000.53C109.309 1000.51 109.214 1000.46 109.139 1000.38C109.064 1000.31 109.014 1000.21 108.993 1000.11C108.972 1000 108.983 999.897 109.023 999.799C109.064 999.702 109.132 999.618 109.22 999.56C109.308 999.501 109.411 999.47 109.517 999.47C109.658 999.47 109.794 999.526 109.894 999.626C109.994 999.726 110.05 999.862 110.05 1000Z" fill="#7F2069"/>
<path d="M117.509 1000.53C117.801 1000.53 118.038 1000.3 118.038 1000C118.038 999.711 117.801 999.475 117.509 999.475C117.217 999.475 116.98 999.711 116.98 1000C116.98 1000.3 117.217 1000.53 117.509 1000.53Z" fill="#7F2069"/>
<path d="M125.489 1000.53C125.781 1000.53 126.018 1000.3 126.018 1000C126.018 999.711 125.781 999.475 125.489 999.475C125.198 999.475 124.961 999.711 124.961 1000C124.961 1000.3 125.198 1000.53 125.489 1000.53Z" fill="#7F2069"/>
<path d="M133.995 1000C133.995 1000.11 133.964 1000.21 133.905 1000.3C133.847 1000.39 133.763 1000.46 133.666 1000.5C133.568 1000.54 133.461 1000.55 133.357 1000.53C133.254 1000.51 133.159 1000.46 133.084 1000.38C133.009 1000.31 132.958 1000.21 132.938 1000.11C132.917 1000 132.928 999.897 132.968 999.799C133.009 999.702 133.077 999.618 133.165 999.56C133.253 999.501 133.356 999.47 133.461 999.47C133.603 999.47 133.739 999.526 133.839 999.626C133.939 999.726 133.995 999.862 133.995 1000Z" fill="#7F2069"/>
</g>
</g>
<circle cx="130" cy="966" r="8" fill="#BDEBFC"/>
<g clip-path="url(#clip4_0_3140)">
<path d="M1388 77.9886L1398.87 84.2784V71.7217L1388 77.9886Z" fill="#FFCCF2"/>
<path d="M1430 77.9886L1419.13 71.7217V84.2784L1430 77.9886Z" fill="#FFCCF2"/>
<path d="M1408.99 99.0002L1415.28 88.1299H1402.72L1408.99 99.0002Z" fill="#FFCCF2"/>
<path d="M1408.99 57L1402.72 67.8703H1415.28L1408.99 57Z" fill="#FFCCF2"/>
</g>
<g clip-path="url(#clip5_0_3140)">
<path d="M122 1057.99L132.87 1064.28V1051.72L122 1057.99Z" fill="#BDEBFC"/>
<path d="M163.999 1057.99L153.129 1051.72V1064.28L163.999 1057.99Z" fill="#BDEBFC"/>
<path d="M142.99 1079L149.279 1068.13H136.723L142.99 1079Z" fill="#BDEBFC"/>
<path d="M142.99 1037L136.723 1047.87H149.279L142.99 1037Z" fill="#BDEBFC"/>
</g>
<g clip-path="url(#clip6_0_3140)">
<path d="M1394 1159.99L1404.87 1166.28V1153.72L1394 1159.99Z" fill="#BDEBFC"/>
<path d="M1436 1159.99L1425.13 1153.72V1166.28L1436 1159.99Z" fill="#BDEBFC"/>
<path d="M1414.99 1181L1421.28 1170.13H1408.72L1414.99 1181Z" fill="#BDEBFC"/>
<path d="M1414.99 1139L1408.72 1149.87H1421.28L1414.99 1139Z" fill="#BDEBFC"/>
</g>
<g clip-path="url(#clip7_0_3140)">
<g opacity="0.51">
<path d="M133.366 1240.68C133.366 1240.82 133.325 1240.95 133.25 1241.06C133.174 1241.17 133.067 1241.26 132.942 1241.31C132.816 1241.37 132.678 1241.38 132.545 1241.35C132.412 1241.33 132.289 1241.26 132.193 1241.17C132.097 1241.07 132.032 1240.95 132.005 1240.81C131.979 1240.68 131.992 1240.54 132.044 1240.42C132.096 1240.29 132.184 1240.18 132.297 1240.11C132.41 1240.03 132.543 1239.99 132.679 1239.99C132.861 1239.99 133.036 1240.07 133.164 1240.19C133.293 1240.32 133.366 1240.5 133.366 1240.68Z" fill="#7F2069"/>
<path d="M142.953 1241.36C143.329 1241.36 143.633 1241.06 143.633 1240.68C143.633 1240.3 143.329 1240 142.953 1240C142.578 1240 142.273 1240.3 142.273 1240.68C142.273 1241.06 142.578 1241.36 142.953 1241.36Z" fill="#7F2069"/>
<path d="M153.225 1241.36C153.6 1241.36 153.905 1241.06 153.905 1240.68C153.905 1240.3 153.6 1240 153.225 1240C152.849 1240 152.545 1240.3 152.545 1240.68C152.545 1241.06 152.849 1241.36 153.225 1241.36Z" fill="#7F2069"/>
<path d="M163.49 1241.36C163.866 1241.36 164.17 1241.06 164.17 1240.68C164.17 1240.3 163.866 1240 163.49 1240C163.115 1240 162.811 1240.3 162.811 1240.68C162.811 1241.06 163.115 1241.36 163.49 1241.36Z" fill="#7F2069"/>
<path d="M174.444 1240.68C174.444 1240.82 174.403 1240.95 174.328 1241.06C174.252 1241.17 174.145 1241.26 174.02 1241.31C173.894 1241.37 173.756 1241.38 173.623 1241.35C173.49 1241.33 173.367 1241.26 173.271 1241.17C173.175 1241.07 173.11 1240.95 173.084 1240.81C173.057 1240.68 173.071 1240.54 173.123 1240.42C173.175 1240.29 173.263 1240.18 173.376 1240.11C173.488 1240.03 173.621 1239.99 173.757 1239.99C173.939 1239.99 174.114 1240.07 174.243 1240.19C174.371 1240.32 174.444 1240.5 174.444 1240.68Z" fill="#7F2069"/>
<path d="M138.496 1248.5C138.496 1248.64 138.456 1248.77 138.381 1248.88C138.305 1249 138.198 1249.08 138.072 1249.14C137.947 1249.19 137.809 1249.2 137.676 1249.18C137.543 1249.15 137.42 1249.08 137.324 1248.99C137.228 1248.89 137.163 1248.77 137.136 1248.64C137.11 1248.5 137.123 1248.36 137.175 1248.24C137.227 1248.11 137.315 1248.01 137.428 1247.93C137.541 1247.86 137.674 1247.81 137.81 1247.81C137.992 1247.81 138.167 1247.89 138.295 1248.02C138.424 1248.14 138.496 1248.32 138.496 1248.5Z" fill="#7F2069"/>
<path d="M148.088 1249.19C148.463 1249.19 148.768 1248.88 148.768 1248.51C148.768 1248.13 148.463 1247.83 148.088 1247.83C147.713 1247.83 147.408 1248.13 147.408 1248.51C147.408 1248.88 147.713 1249.19 148.088 1249.19Z" fill="#7F2069"/>
<path d="M158.354 1249.19C158.729 1249.19 159.033 1248.88 159.033 1248.51C159.033 1248.13 158.729 1247.83 158.354 1247.83C157.978 1247.83 157.674 1248.13 157.674 1248.51C157.674 1248.88 157.978 1249.19 158.354 1249.19Z" fill="#7F2069"/>
<path d="M169.291 1248.5C169.291 1248.64 169.251 1248.77 169.176 1248.88C169.1 1249 168.993 1249.08 168.867 1249.14C168.742 1249.19 168.604 1249.2 168.471 1249.18C168.337 1249.15 168.215 1249.08 168.119 1248.99C168.023 1248.89 167.958 1248.77 167.931 1248.64C167.905 1248.5 167.918 1248.36 167.97 1248.24C168.022 1248.11 168.11 1248.01 168.223 1247.93C168.336 1247.86 168.469 1247.81 168.605 1247.81C168.787 1247.81 168.961 1247.89 169.09 1248.02C169.219 1248.14 169.291 1248.32 169.291 1248.5Z" fill="#7F2069"/>
</g>
</g>
<g clip-path="url(#clip8_0_3140)">
<path d="M173.99 1246L167.723 1256.87H180.279L173.99 1246Z" fill="#FFCCF2"/>
</g>
<g clip-path="url(#clip9_0_3140)">
<g opacity="0.51">
<path d="M139.77 227.881C139.77 228.057 139.718 228.229 139.62 228.376C139.522 228.522 139.383 228.636 139.221 228.703C139.058 228.771 138.879 228.788 138.706 228.754C138.534 228.72 138.375 228.635 138.251 228.51C138.126 228.386 138.042 228.227 138.007 228.055C137.973 227.882 137.991 227.703 138.058 227.541C138.125 227.378 138.239 227.239 138.386 227.141C138.532 227.044 138.704 226.991 138.88 226.991C139.116 226.991 139.342 227.085 139.509 227.252C139.676 227.419 139.77 227.645 139.77 227.881Z" fill="#08A8E4"/>
<path d="M152.193 228.762C152.68 228.762 153.074 228.368 153.074 227.881C153.074 227.395 152.68 227 152.193 227C151.707 227 151.312 227.395 151.312 227.881C151.312 228.368 151.707 228.762 152.193 228.762Z" fill="#08A8E4"/>
<path d="M165.504 228.762C165.99 228.762 166.385 228.368 166.385 227.881C166.385 227.395 165.99 227 165.504 227C165.017 227 164.623 227.395 164.623 227.881C164.623 228.368 165.017 228.762 165.504 228.762Z" fill="#08A8E4"/>
<path d="M178.807 228.762C179.293 228.762 179.688 228.368 179.688 227.881C179.688 227.395 179.293 227 178.807 227C178.32 227 177.926 227.395 177.926 227.881C177.926 228.368 178.32 228.762 178.807 228.762Z" fill="#08A8E4"/>
<path d="M192.998 227.881C192.998 228.057 192.946 228.229 192.848 228.376C192.751 228.522 192.612 228.636 192.449 228.703C192.287 228.771 192.108 228.788 191.935 228.754C191.762 228.72 191.604 228.635 191.479 228.51C191.355 228.386 191.27 228.227 191.236 228.055C191.202 227.882 191.219 227.703 191.286 227.541C191.354 227.378 191.468 227.239 191.614 227.141C191.761 227.044 191.933 226.991 192.109 226.991C192.345 226.991 192.571 227.085 192.738 227.252C192.905 227.419 192.998 227.645 192.998 227.881Z" fill="#08A8E4"/>
<path d="M146.416 238.017C146.416 238.193 146.364 238.365 146.266 238.511C146.169 238.658 146.03 238.772 145.867 238.839C145.704 238.906 145.526 238.924 145.353 238.89C145.18 238.855 145.022 238.771 144.897 238.646C144.773 238.522 144.688 238.363 144.654 238.191C144.619 238.018 144.637 237.839 144.704 237.676C144.772 237.514 144.886 237.375 145.032 237.277C145.179 237.179 145.351 237.127 145.527 237.127C145.763 237.127 145.989 237.221 146.156 237.388C146.323 237.555 146.416 237.781 146.416 238.017Z" fill="#08A8E4"/>
<path d="M158.848 238.906C159.334 238.906 159.729 238.512 159.729 238.025C159.729 237.539 159.334 237.145 158.848 237.145C158.361 237.145 157.967 237.539 157.967 238.025C157.967 238.512 158.361 238.906 158.848 238.906Z" fill="#08A8E4"/>
<path d="M172.15 238.907C172.637 238.907 173.031 238.512 173.031 238.026C173.031 237.539 172.637 237.145 172.15 237.145C171.664 237.145 171.27 237.539 171.27 238.026C171.27 238.512 171.664 238.907 172.15 238.907Z" fill="#08A8E4"/>
<path d="M186.327 238.017C186.327 238.193 186.274 238.365 186.177 238.511C186.079 238.658 185.94 238.772 185.777 238.839C185.615 238.906 185.436 238.924 185.263 238.89C185.091 238.855 184.932 238.771 184.808 238.646C184.683 238.522 184.598 238.363 184.564 238.191C184.53 238.018 184.547 237.839 184.615 237.676C184.682 237.514 184.796 237.375 184.942 237.277C185.089 237.179 185.261 237.127 185.437 237.127C185.673 237.127 185.899 237.221 186.066 237.388C186.233 237.555 186.327 237.781 186.327 238.017Z" fill="#08A8E4"/>
<path d="M139.77 248.205C139.77 248.441 139.676 248.667 139.509 248.834C139.342 249.001 139.116 249.094 138.88 249.094C138.644 249.094 138.418 249.001 138.251 248.834C138.084 248.667 137.99 248.441 137.99 248.205C137.99 247.969 138.084 247.742 138.251 247.575C138.418 247.409 138.644 247.315 138.88 247.315C139.116 247.315 139.342 247.409 139.509 247.575C139.676 247.742 139.77 247.969 139.77 248.205Z" fill="#08A8E4"/>
<path d="M152.193 249.095C152.68 249.095 153.074 248.7 153.074 248.214C153.074 247.727 152.68 247.333 152.193 247.333C151.707 247.333 151.312 247.727 151.312 248.214C151.312 248.7 151.707 249.095 152.193 249.095Z" fill="#08A8E4"/>
<path d="M165.504 249.095C165.99 249.095 166.385 248.7 166.385 248.214C166.385 247.727 165.99 247.333 165.504 247.333C165.017 247.333 164.623 247.727 164.623 248.214C164.623 248.7 165.017 249.095 165.504 249.095Z" fill="#08A8E4"/>
<path d="M178.807 249.095C179.293 249.095 179.688 248.7 179.688 248.214C179.688 247.727 179.293 247.333 178.807 247.333C178.32 247.333 177.926 247.727 177.926 248.214C177.926 248.7 178.32 249.095 178.807 249.095Z" fill="#08A8E4"/>
<path d="M192.998 248.205C192.998 248.381 192.946 248.553 192.848 248.699C192.751 248.845 192.612 248.96 192.449 249.027C192.287 249.094 192.108 249.112 191.935 249.077C191.762 249.043 191.604 248.958 191.479 248.834C191.355 248.71 191.27 248.551 191.236 248.378C191.202 248.206 191.219 248.027 191.286 247.864C191.354 247.702 191.468 247.563 191.614 247.465C191.761 247.367 191.933 247.315 192.109 247.315C192.345 247.315 192.571 247.409 192.738 247.576C192.905 247.742 192.998 247.969 192.998 248.205Z" fill="#08A8E4"/>
<path d="M146.416 258.349C146.416 258.525 146.364 258.697 146.266 258.843C146.169 258.99 146.03 259.104 145.867 259.171C145.704 259.238 145.526 259.256 145.353 259.222C145.18 259.187 145.022 259.103 144.897 258.978C144.773 258.854 144.688 258.695 144.654 258.523C144.619 258.35 144.637 258.171 144.704 258.008C144.772 257.846 144.886 257.707 145.032 257.609C145.179 257.511 145.351 257.459 145.527 257.459C145.763 257.459 145.989 257.553 146.156 257.72C146.323 257.887 146.416 258.113 146.416 258.349Z" fill="#08A8E4"/>
<path d="M158.848 259.23C159.334 259.23 159.729 258.836 159.729 258.349C159.729 257.863 159.334 257.468 158.848 257.468C158.361 257.468 157.967 257.863 157.967 258.349C157.967 258.836 158.361 259.23 158.848 259.23Z" fill="#08A8E4"/>
<path d="M172.15 259.23C172.637 259.23 173.031 258.836 173.031 258.349C173.031 257.863 172.637 257.468 172.15 257.468C171.664 257.468 171.27 257.863 171.27 258.349C171.27 258.836 171.664 259.23 172.15 259.23Z" fill="#08A8E4"/>
<path d="M186.327 258.349C186.327 258.525 186.274 258.697 186.177 258.843C186.079 258.99 185.94 259.104 185.777 259.171C185.615 259.238 185.436 259.256 185.263 259.222C185.091 259.187 184.932 259.103 184.808 258.978C184.683 258.854 184.598 258.695 184.564 258.523C184.53 258.35 184.547 258.171 184.615 258.008C184.682 257.846 184.796 257.707 184.942 257.609C185.089 257.511 185.261 257.459 185.437 257.459C185.673 257.459 185.899 257.553 186.066 257.72C186.233 257.887 186.327 258.113 186.327 258.349Z" fill="#08A8E4"/>
<path d="M139.77 268.538C139.77 268.714 139.718 268.886 139.62 269.032C139.522 269.178 139.383 269.292 139.221 269.36C139.058 269.427 138.879 269.445 138.706 269.41C138.534 269.376 138.375 269.291 138.251 269.167C138.126 269.042 138.042 268.884 138.007 268.711C137.973 268.539 137.991 268.36 138.058 268.197C138.125 268.034 138.239 267.895 138.386 267.798C138.532 267.7 138.704 267.648 138.88 267.648C139.116 267.648 139.342 267.741 139.509 267.908C139.676 268.075 139.77 268.302 139.77 268.538Z" fill="#08A8E4"/>
<path d="M152.193 269.419C152.68 269.419 153.074 269.024 153.074 268.538C153.074 268.051 152.68 267.657 152.193 267.657C151.707 267.657 151.312 268.051 151.312 268.538C151.312 269.024 151.707 269.419 152.193 269.419Z" fill="#08A8E4"/>
<path d="M165.504 269.419C165.99 269.419 166.385 269.024 166.385 268.538C166.385 268.051 165.99 267.657 165.504 267.657C165.017 267.657 164.623 268.051 164.623 268.538C164.623 269.024 165.017 269.419 165.504 269.419Z" fill="#08A8E4"/>
<path d="M178.807 269.419C179.293 269.419 179.688 269.024 179.688 268.538C179.688 268.051 179.293 267.657 178.807 267.657C178.32 267.657 177.926 268.051 177.926 268.538C177.926 269.024 178.32 269.419 178.807 269.419Z" fill="#08A8E4"/>
<path d="M192.998 268.538C192.998 268.774 192.905 269 192.738 269.167C192.571 269.334 192.345 269.427 192.109 269.427C191.873 269.427 191.646 269.334 191.479 269.167C191.313 269 191.219 268.774 191.219 268.538C191.219 268.302 191.313 268.075 191.479 267.908C191.646 267.741 191.873 267.648 192.109 267.648C192.345 267.648 192.571 267.741 192.738 267.908C192.905 268.075 192.998 268.302 192.998 268.538Z" fill="#08A8E4"/>
<path d="M146.416 278.673C146.416 278.849 146.364 279.021 146.266 279.167C146.169 279.313 146.03 279.427 145.867 279.495C145.704 279.562 145.526 279.58 145.353 279.545C145.18 279.511 145.022 279.426 144.897 279.302C144.773 279.177 144.688 279.019 144.654 278.846C144.619 278.674 144.637 278.495 144.704 278.332C144.772 278.169 144.886 278.03 145.032 277.933C145.179 277.835 145.351 277.783 145.527 277.783C145.763 277.783 145.989 277.876 146.156 278.043C146.323 278.21 146.416 278.437 146.416 278.673Z" fill="#08A8E4"/>
<path d="M158.848 279.553C159.334 279.553 159.729 279.159 159.729 278.672C159.729 278.186 159.334 277.791 158.848 277.791C158.361 277.791 157.967 278.186 157.967 278.672C157.967 279.159 158.361 279.553 158.848 279.553Z" fill="#08A8E4"/>
<path d="M172.15 279.553C172.637 279.553 173.031 279.159 173.031 278.672C173.031 278.186 172.637 277.791 172.15 277.791C171.664 277.791 171.27 278.186 171.27 278.672C171.27 279.159 171.664 279.553 172.15 279.553Z" fill="#08A8E4"/>
<path d="M186.327 278.673C186.327 278.849 186.274 279.021 186.177 279.167C186.079 279.313 185.94 279.427 185.777 279.495C185.615 279.562 185.436 279.58 185.263 279.545C185.091 279.511 184.932 279.426 184.808 279.302C184.683 279.177 184.598 279.019 184.564 278.846C184.53 278.674 184.547 278.495 184.615 278.332C184.682 278.169 184.796 278.03 184.942 277.933C185.089 277.835 185.261 277.783 185.437 277.783C185.673 277.783 185.899 277.876 186.066 278.043C186.233 278.21 186.327 278.437 186.327 278.673Z" fill="#08A8E4"/>
</g>
</g>
<circle cx="147" cy="842" r="8" fill="#FFCCF2"/>
<circle cx="198.5" cy="1087.5" r="5.5" fill="#FFCCF2"/>
<circle cx="1407" cy="469" r="8" fill="#FFCCF2"/>
<circle cx="1346.5" cy="1097.5" r="5.5" fill="#BDEBFC"/>
<circle cx="1357.5" cy="657.5" r="5.5" fill="#BDEBFC"/>
<g clip-path="url(#clip10_0_3140)">
<path d="M109 345.989L119.87 352.279V339.722L109 345.989Z" fill="#BDEBFC"/>
<path d="M151 345.989L140.13 339.722V352.278L151 345.989Z" fill="#BDEBFC"/>
<path d="M129.991 367.001L136.28 356.13H123.724L129.991 367.001Z" fill="#BDEBFC"/>
<path d="M129.991 325L123.724 335.87H136.28L129.991 325Z" fill="#BDEBFC"/>
</g>
</g>
<defs>
<clipPath id="clip0_0_3140">
<rect width="1440" height="1251" fill="white"/>
</clipPath>
<clipPath id="clip1_0_3140">
<rect width="55" height="52.5619" fill="white" transform="translate(1341 211)"/>
</clipPath>
<clipPath id="clip2_0_3140">
<rect width="55" height="52.5619" fill="white" transform="translate(1409 1014)"/>
</clipPath>
<clipPath id="clip3_0_3140">
<rect width="33" height="31.5371" fill="white" transform="translate(105 969)"/>
</clipPath>
<clipPath id="clip4_0_3140">
<rect width="42" height="42" fill="white" transform="translate(1388 57)"/>
</clipPath>
<clipPath id="clip5_0_3140">
<rect width="42" height="42" fill="white" transform="translate(122 1037)"/>
</clipPath>
<clipPath id="clip6_0_3140">
<rect width="42" height="42" fill="white" transform="translate(1394 1139)"/>
</clipPath>
<clipPath id="clip7_0_3140">
<rect width="42.4434" height="40.5619" fill="white" transform="translate(132 1240)"/>
</clipPath>
<clipPath id="clip8_0_3140">
<rect width="42" height="42" fill="white" transform="translate(153 1246)"/>
</clipPath>
<clipPath id="clip9_0_3140">
<rect width="55" height="52.5619" fill="white" transform="translate(138 227)"/>
</clipPath>
<clipPath id="clip10_0_3140">
<rect width="42" height="42" fill="white" transform="translate(109 325)"/>
</clipPath>
</defs>
</svg>
