<svg width="1440" height="1559" viewBox="0 0 1440 1559" fill="none" xmlns="http://www.w3.org/2000/svg">
<g clip-path="url(#clip0_0_1585)">
<rect width="1440" height="1559" fill="white"/>
<path d="M1110.59 232.023C1398.59 166.173 1396.68 -22.602 1481.18 -21.8533L1478.93 232.023C1483.13 282.535 1542.59 543.892 1542.58 640.173C1542.59 714.173 1578.09 1107.53 1340 1082.17C1101.91 1056.81 895.999 1418 595.999 1138C351.971 910.241 696.585 738.173 748.585 562.173C791.392 417.288 852.585 291.013 1110.59 232.023Z" fill="#F0FBFF"/>
<path d="M264.232 -190.433C201.848 -378.282 310.635 -442.806 280.837 -490.944L136.204 -401.414C105.812 -386.264 -64.5531 -329.475 -119.701 -296.011C-162.087 -270.29 -349.947 -175.173 -252.666 -47.6128C-155.384 79.9471 -346.923 346.938 -37.8057 409.778C58.6582 429.388 118.217 222.624 200.952 131.666C269.06 56.7881 320.118 -22.1521 264.232 -190.433Z" fill="#FEF9FD"/>
<path d="M401.962 1004.44C345.247 833.658 444.148 774.997 417.057 731.234L285.568 812.628C257.938 826.402 103.055 878.029 52.9188 908.453C14.3849 931.836 -156.404 1018.31 -67.9629 1134.28C20.4783 1250.25 -153.654 1492.97 127.372 1550.1C215.07 1567.93 269.216 1379.96 344.432 1297.26C406.351 1229.19 452.769 1157.42 401.962 1004.44Z" fill="#FEF9FD"/>
<circle cx="82" cy="111" r="8" fill="#BDEBFC"/>
<g clip-path="url(#clip1_0_1585)">
<g opacity="0.51">
<path d="M42.0619 1547.53C42.0619 1547.63 42.0306 1547.74 41.972 1547.83C41.9133 1547.91 41.8299 1547.98 41.7323 1548.02C41.6348 1548.06 41.5275 1548.07 41.4239 1548.05C41.3203 1548.03 41.2252 1547.98 41.1505 1547.91C41.0759 1547.83 41.025 1547.74 41.0044 1547.63C40.9838 1547.53 40.9944 1547.42 41.0348 1547.32C41.0752 1547.23 41.1436 1547.14 41.2314 1547.08C41.3192 1547.03 41.4224 1546.99 41.528 1546.99C41.6696 1546.99 41.8054 1547.05 41.9055 1547.15C42.0057 1547.25 42.0619 1547.39 42.0619 1547.53Z" fill="#7F2069"/>
<path d="M49.5168 1548.06C49.8087 1548.06 50.0454 1547.82 50.0454 1547.53C50.0454 1547.24 49.8087 1547 49.5168 1547C49.2249 1547 48.9883 1547.24 48.9883 1547.53C48.9883 1547.82 49.2249 1548.06 49.5168 1548.06Z" fill="#7F2069"/>
<path d="M57.5032 1548.06C57.7951 1548.06 58.0317 1547.82 58.0317 1547.53C58.0317 1547.24 57.7951 1547 57.5032 1547C57.2113 1547 56.9746 1547.24 56.9746 1547.53C56.9746 1547.82 57.2113 1548.06 57.5032 1548.06Z" fill="#7F2069"/>
<path d="M65.4836 1548.06C65.7755 1548.06 66.0122 1547.82 66.0122 1547.53C66.0122 1547.24 65.7755 1547 65.4836 1547C65.1917 1547 64.9551 1547.24 64.9551 1547.53C64.9551 1547.82 65.1917 1548.06 65.4836 1548.06Z" fill="#7F2069"/>
<path d="M73.9994 1547.53C73.9994 1547.63 73.9681 1547.74 73.9095 1547.83C73.8508 1547.91 73.7674 1547.98 73.6698 1548.02C73.5723 1548.06 73.465 1548.07 73.3614 1548.05C73.2578 1548.03 73.1627 1547.98 73.088 1547.91C73.0134 1547.83 72.9625 1547.74 72.9419 1547.63C72.9213 1547.53 72.9319 1547.42 72.9723 1547.32C73.0127 1547.23 73.0811 1547.14 73.1689 1547.08C73.2567 1547.03 73.3599 1546.99 73.4655 1546.99C73.6071 1546.99 73.7429 1547.05 73.843 1547.15C73.9432 1547.25 73.9994 1547.39 73.9994 1547.53Z" fill="#7F2069"/>
<path d="M46.0502 1553.61C46.0502 1553.72 46.0189 1553.82 45.9602 1553.91C45.9016 1553.99 45.8182 1554.06 45.7206 1554.1C45.6231 1554.14 45.5157 1554.15 45.4122 1554.13C45.3086 1554.11 45.2135 1554.06 45.1388 1553.99C45.0641 1553.91 45.0133 1553.82 44.9927 1553.71C44.9721 1553.61 44.9827 1553.5 45.0231 1553.41C45.0635 1553.31 45.1319 1553.22 45.2197 1553.17C45.3075 1553.11 45.4107 1553.08 45.5163 1553.08C45.6579 1553.08 45.7937 1553.13 45.8938 1553.23C45.994 1553.33 46.0502 1553.47 46.0502 1553.61Z" fill="#7F2069"/>
<path d="M53.509 1554.14C53.8009 1554.14 54.0376 1553.91 54.0376 1553.62C54.0376 1553.32 53.8009 1553.09 53.509 1553.09C53.2171 1553.09 52.9805 1553.32 52.9805 1553.62C52.9805 1553.91 53.2171 1554.14 53.509 1554.14Z" fill="#7F2069"/>
<path d="M61.4895 1554.14C61.7814 1554.14 62.018 1553.91 62.018 1553.62C62.018 1553.32 61.7814 1553.09 61.4895 1553.09C61.1976 1553.09 60.9609 1553.32 60.9609 1553.62C60.9609 1553.91 61.1976 1554.14 61.4895 1554.14Z" fill="#7F2069"/>
<path d="M69.9955 1553.61C69.9955 1553.72 69.9642 1553.82 69.9055 1553.91C69.8469 1553.99 69.7635 1554.06 69.6659 1554.1C69.5684 1554.14 69.461 1554.15 69.3575 1554.13C69.2539 1554.11 69.1588 1554.06 69.0841 1553.99C69.0094 1553.91 68.9586 1553.82 68.938 1553.71C68.9174 1553.61 68.928 1553.5 68.9684 1553.41C69.0088 1553.31 69.0772 1553.22 69.165 1553.17C69.2528 1553.11 69.356 1553.08 69.4616 1553.08C69.6032 1553.08 69.739 1553.13 69.8391 1553.23C69.9393 1553.33 69.9955 1553.47 69.9955 1553.61Z" fill="#7F2069"/>
</g>
</g>
<circle cx="66" cy="1544" r="8" fill="#BDEBFC"/>
<circle cx="1387" cy="881" r="8" fill="#FFCCF2"/>
<g clip-path="url(#clip2_0_1585)">
<path d="M1324 116.989L1334.87 123.278V110.722L1324 116.989Z" fill="#FFCCF2"/>
<path d="M1366 116.989L1355.13 110.722V123.278L1366 116.989Z" fill="#FFCCF2"/>
<path d="M1344.99 138L1351.28 127.13H1338.72L1344.99 138Z" fill="#FFCCF2"/>
<path d="M1344.99 96L1338.72 106.87H1351.28L1344.99 96Z" fill="#FFCCF2"/>
</g>
<g clip-path="url(#clip3_0_1585)">
<g opacity="0.51">
<path d="M75.7699 266.881C75.7699 267.057 75.7177 267.229 75.6199 267.376C75.5222 267.522 75.3832 267.636 75.2206 267.703C75.058 267.771 74.8791 267.788 74.7065 267.754C74.5339 267.72 74.3753 267.635 74.2509 267.51C74.1264 267.386 74.0417 267.227 74.0073 267.055C73.973 266.882 73.9906 266.703 74.058 266.541C74.1253 266.378 74.2394 266.239 74.3857 266.141C74.532 266.044 74.7041 265.991 74.8801 265.991C75.116 265.991 75.3424 266.085 75.5092 266.252C75.6761 266.419 75.7699 266.645 75.7699 266.881Z" fill="#08A8E4"/>
<path d="M88.1934 267.762C88.6799 267.762 89.0744 267.368 89.0744 266.881C89.0744 266.395 88.6799 266 88.1934 266C87.7069 266 87.3125 266.395 87.3125 266.881C87.3125 267.368 87.7069 267.762 88.1934 267.762Z" fill="#08A8E4"/>
<path d="M101.504 267.762C101.99 267.762 102.385 267.368 102.385 266.881C102.385 266.395 101.99 266 101.504 266C101.017 266 100.623 266.395 100.623 266.881C100.623 267.368 101.017 267.762 101.504 267.762Z" fill="#08A8E4"/>
<path d="M114.807 267.762C115.293 267.762 115.688 267.368 115.688 266.881C115.688 266.395 115.293 266 114.807 266C114.32 266 113.926 266.395 113.926 266.881C113.926 267.368 114.32 267.762 114.807 267.762Z" fill="#08A8E4"/>
<path d="M128.998 266.881C128.998 267.057 128.946 267.229 128.848 267.376C128.751 267.522 128.612 267.636 128.449 267.703C128.287 267.771 128.108 267.788 127.935 267.754C127.762 267.72 127.604 267.635 127.479 267.51C127.355 267.386 127.27 267.227 127.236 267.055C127.202 266.882 127.219 266.703 127.286 266.541C127.354 266.378 127.468 266.239 127.614 266.141C127.761 266.044 127.933 265.991 128.109 265.991C128.345 265.991 128.571 266.085 128.738 266.252C128.905 266.419 128.998 266.645 128.998 266.881Z" fill="#08A8E4"/>
<path d="M82.4164 277.017C82.4164 277.193 82.3642 277.365 82.2664 277.511C82.1686 277.658 82.0296 277.772 81.8671 277.839C81.7045 277.906 81.5256 277.924 81.3529 277.89C81.1803 277.855 81.0218 277.771 80.8973 277.646C80.7729 277.522 80.6881 277.363 80.6538 277.191C80.6195 277.018 80.6371 276.839 80.7045 276.676C80.7718 276.514 80.8859 276.375 81.0322 276.277C81.1785 276.179 81.3506 276.127 81.5266 276.127C81.7626 276.127 81.9889 276.221 82.1558 276.388C82.3226 276.555 82.4164 276.781 82.4164 277.017Z" fill="#08A8E4"/>
<path d="M94.8477 277.906C95.3342 277.906 95.7286 277.512 95.7286 277.025C95.7286 276.539 95.3342 276.145 94.8477 276.145C94.3612 276.145 93.9668 276.539 93.9668 277.025C93.9668 277.512 94.3612 277.906 94.8477 277.906Z" fill="#08A8E4"/>
<path d="M108.15 277.907C108.637 277.907 109.031 277.512 109.031 277.026C109.031 276.539 108.637 276.145 108.15 276.145C107.664 276.145 107.27 276.539 107.27 277.026C107.27 277.512 107.664 277.907 108.15 277.907Z" fill="#08A8E4"/>
<path d="M122.327 277.017C122.327 277.193 122.274 277.365 122.177 277.511C122.079 277.658 121.94 277.772 121.777 277.839C121.615 277.906 121.436 277.924 121.263 277.89C121.091 277.855 120.932 277.771 120.808 277.646C120.683 277.522 120.598 277.363 120.564 277.191C120.53 277.018 120.547 276.839 120.615 276.676C120.682 276.514 120.796 276.375 120.942 276.277C121.089 276.179 121.261 276.127 121.437 276.127C121.673 276.127 121.899 276.221 122.066 276.388C122.233 276.555 122.327 276.781 122.327 277.017Z" fill="#08A8E4"/>
<path d="M75.7699 287.205C75.7699 287.441 75.6761 287.667 75.5092 287.834C75.3424 288.001 75.1161 288.094 74.8801 288.094C74.6441 288.094 74.4177 288.001 74.2509 287.834C74.084 287.667 73.9902 287.441 73.9902 287.205C73.9902 286.969 74.084 286.742 74.2509 286.575C74.4177 286.409 74.6441 286.315 74.8801 286.315C75.1161 286.315 75.3424 286.409 75.5092 286.575C75.6761 286.742 75.7699 286.969 75.7699 287.205Z" fill="#08A8E4"/>
<path d="M88.1934 288.095C88.6799 288.095 89.0744 287.7 89.0744 287.214C89.0744 286.727 88.6799 286.333 88.1934 286.333C87.7069 286.333 87.3125 286.727 87.3125 287.214C87.3125 287.7 87.7069 288.095 88.1934 288.095Z" fill="#08A8E4"/>
<path d="M101.504 288.095C101.99 288.095 102.385 287.7 102.385 287.214C102.385 286.727 101.99 286.333 101.504 286.333C101.017 286.333 100.623 286.727 100.623 287.214C100.623 287.7 101.017 288.095 101.504 288.095Z" fill="#08A8E4"/>
<path d="M114.807 288.095C115.293 288.095 115.688 287.7 115.688 287.214C115.688 286.727 115.293 286.333 114.807 286.333C114.32 286.333 113.926 286.727 113.926 287.214C113.926 287.7 114.32 288.095 114.807 288.095Z" fill="#08A8E4"/>
<path d="M128.998 287.205C128.998 287.381 128.946 287.553 128.848 287.699C128.751 287.845 128.612 287.96 128.449 288.027C128.287 288.094 128.108 288.112 127.935 288.077C127.762 288.043 127.604 287.958 127.479 287.834C127.355 287.71 127.27 287.551 127.236 287.378C127.202 287.206 127.219 287.027 127.286 286.864C127.354 286.702 127.468 286.563 127.614 286.465C127.761 286.367 127.933 286.315 128.109 286.315C128.345 286.315 128.571 286.409 128.738 286.576C128.905 286.742 128.998 286.969 128.998 287.205Z" fill="#08A8E4"/>
<path d="M82.4164 297.349C82.4164 297.525 82.3642 297.697 82.2664 297.843C82.1686 297.99 82.0296 298.104 81.8671 298.171C81.7045 298.238 81.5256 298.256 81.3529 298.222C81.1803 298.187 81.0218 298.103 80.8973 297.978C80.7729 297.854 80.6881 297.695 80.6538 297.523C80.6195 297.35 80.6371 297.171 80.7045 297.008C80.7718 296.846 80.8859 296.707 81.0322 296.609C81.1785 296.511 81.3506 296.459 81.5266 296.459C81.7626 296.459 81.9889 296.553 82.1558 296.72C82.3226 296.887 82.4164 297.113 82.4164 297.349Z" fill="#08A8E4"/>
<path d="M94.8477 298.23C95.3342 298.23 95.7286 297.836 95.7286 297.349C95.7286 296.863 95.3342 296.468 94.8477 296.468C94.3612 296.468 93.9668 296.863 93.9668 297.349C93.9668 297.836 94.3612 298.23 94.8477 298.23Z" fill="#08A8E4"/>
<path d="M108.15 298.23C108.637 298.23 109.031 297.836 109.031 297.349C109.031 296.863 108.637 296.468 108.15 296.468C107.664 296.468 107.27 296.863 107.27 297.349C107.27 297.836 107.664 298.23 108.15 298.23Z" fill="#08A8E4"/>
<path d="M122.327 297.349C122.327 297.525 122.274 297.697 122.177 297.843C122.079 297.99 121.94 298.104 121.777 298.171C121.615 298.238 121.436 298.256 121.263 298.222C121.091 298.187 120.932 298.103 120.808 297.978C120.683 297.854 120.598 297.695 120.564 297.523C120.53 297.35 120.547 297.171 120.615 297.008C120.682 296.846 120.796 296.707 120.942 296.609C121.089 296.511 121.261 296.459 121.437 296.459C121.673 296.459 121.899 296.553 122.066 296.72C122.233 296.887 122.327 297.113 122.327 297.349Z" fill="#08A8E4"/>
<path d="M75.7699 307.538C75.7699 307.714 75.7177 307.886 75.6199 308.032C75.5222 308.178 75.3832 308.292 75.2206 308.36C75.058 308.427 74.8791 308.445 74.7065 308.41C74.5339 308.376 74.3753 308.291 74.2509 308.167C74.1264 308.042 74.0417 307.884 74.0073 307.711C73.973 307.539 73.9906 307.36 74.058 307.197C74.1253 307.034 74.2394 306.895 74.3857 306.798C74.532 306.7 74.7041 306.648 74.8801 306.648C75.116 306.648 75.3424 306.741 75.5092 306.908C75.6761 307.075 75.7699 307.302 75.7699 307.538Z" fill="#08A8E4"/>
<path d="M88.1934 308.419C88.6799 308.419 89.0744 308.024 89.0744 307.538C89.0744 307.051 88.6799 306.657 88.1934 306.657C87.7069 306.657 87.3125 307.051 87.3125 307.538C87.3125 308.024 87.7069 308.419 88.1934 308.419Z" fill="#08A8E4"/>
<path d="M101.504 308.419C101.99 308.419 102.385 308.024 102.385 307.538C102.385 307.051 101.99 306.657 101.504 306.657C101.017 306.657 100.623 307.051 100.623 307.538C100.623 308.024 101.017 308.419 101.504 308.419Z" fill="#08A8E4"/>
<path d="M114.807 308.419C115.293 308.419 115.688 308.024 115.688 307.538C115.688 307.051 115.293 306.657 114.807 306.657C114.32 306.657 113.926 307.051 113.926 307.538C113.926 308.024 114.32 308.419 114.807 308.419Z" fill="#08A8E4"/>
<path d="M128.998 307.538C128.998 307.774 128.905 308 128.738 308.167C128.571 308.334 128.345 308.427 128.109 308.427C127.873 308.427 127.646 308.334 127.479 308.167C127.313 308 127.219 307.774 127.219 307.538C127.219 307.302 127.313 307.075 127.479 306.908C127.646 306.741 127.873 306.648 128.109 306.648C128.345 306.648 128.571 306.741 128.738 306.908C128.905 307.075 128.998 307.302 128.998 307.538Z" fill="#08A8E4"/>
<path d="M82.4164 317.673C82.4164 317.849 82.3642 318.021 82.2664 318.167C82.1686 318.313 82.0296 318.427 81.8671 318.495C81.7045 318.562 81.5256 318.58 81.3529 318.545C81.1803 318.511 81.0218 318.426 80.8973 318.302C80.7729 318.177 80.6881 318.019 80.6538 317.846C80.6195 317.674 80.6371 317.495 80.7045 317.332C80.7718 317.169 80.8859 317.03 81.0322 316.933C81.1785 316.835 81.3506 316.783 81.5266 316.783C81.7626 316.783 81.9889 316.876 82.1558 317.043C82.3226 317.21 82.4164 317.437 82.4164 317.673Z" fill="#08A8E4"/>
<path d="M94.8477 318.553C95.3342 318.553 95.7286 318.159 95.7286 317.672C95.7286 317.186 95.3342 316.791 94.8477 316.791C94.3612 316.791 93.9668 317.186 93.9668 317.672C93.9668 318.159 94.3612 318.553 94.8477 318.553Z" fill="#08A8E4"/>
<path d="M108.15 318.553C108.637 318.553 109.031 318.159 109.031 317.672C109.031 317.186 108.637 316.791 108.15 316.791C107.664 316.791 107.27 317.186 107.27 317.672C107.27 318.159 107.664 318.553 108.15 318.553Z" fill="#08A8E4"/>
<path d="M122.327 317.673C122.327 317.849 122.274 318.021 122.177 318.167C122.079 318.313 121.94 318.427 121.777 318.495C121.615 318.562 121.436 318.58 121.263 318.545C121.091 318.511 120.932 318.426 120.808 318.302C120.683 318.177 120.598 318.019 120.564 317.846C120.53 317.674 120.547 317.495 120.615 317.332C120.682 317.169 120.796 317.03 120.942 316.933C121.089 316.835 121.261 316.783 121.437 316.783C121.673 316.783 121.899 316.876 122.066 317.043C122.233 317.21 122.327 317.437 122.327 317.673Z" fill="#08A8E4"/>
</g>
</g>
<circle cx="83" cy="881" r="8" fill="#FFCCF2"/>
<circle cx="1343" cy="508" r="8" fill="#FFCCF2"/>
<circle cx="110.5" cy="1118.5" r="5.5" fill="#BDEBFC"/>
<circle cx="1251.5" cy="1002.5" r="5.5" fill="#BDEBFC"/>
<circle cx="1439.7" cy="668.703" r="27.7027" fill="#FCE9F7"/>
<g clip-path="url(#clip4_0_1585)">
<path d="M1366 1071.99L1376.87 1078.28V1065.72L1366 1071.99Z" fill="#BDEBFC"/>
<path d="M1408 1071.99L1397.13 1065.72V1078.28L1408 1071.99Z" fill="#BDEBFC"/>
<path d="M1386.99 1093L1393.28 1082.13H1380.72L1386.99 1093Z" fill="#BDEBFC"/>
<path d="M1386.99 1051L1380.72 1061.87H1393.28L1386.99 1051Z" fill="#BDEBFC"/>
</g>
<g clip-path="url(#clip5_0_1585)">
<g opacity="0.51">
<path d="M19.7704 863.881C19.7704 864.057 19.7182 864.229 19.6204 864.376C19.5226 864.522 19.3837 864.636 19.2211 864.703C19.0585 864.771 18.8796 864.788 18.707 864.754C18.5344 864.72 18.3758 864.635 18.2514 864.51C18.1269 864.386 18.0422 864.227 18.0078 864.055C17.9735 863.882 17.9911 863.703 18.0584 863.541C18.1258 863.378 18.2399 863.239 18.3862 863.141C18.5325 863.044 18.7046 862.991 18.8805 862.991C19.1165 862.991 19.3429 863.085 19.5097 863.252C19.6766 863.419 19.7704 863.645 19.7704 863.881Z" fill="#08A8E4"/>
<path d="M32.1924 864.762C32.679 864.762 33.0734 864.368 33.0734 863.881C33.0734 863.395 32.679 863 32.1924 863C31.7059 863 31.3115 863.395 31.3115 863.881C31.3115 864.368 31.7059 864.762 32.1924 864.762Z" fill="#08A8E4"/>
<path d="M45.5045 864.762C45.991 864.762 46.3854 864.368 46.3854 863.881C46.3854 863.395 45.991 863 45.5045 863C45.0179 863 44.6235 863.395 44.6235 863.881C44.6235 864.368 45.0179 864.762 45.5045 864.762Z" fill="#08A8E4"/>
<path d="M58.8067 864.762C59.2932 864.762 59.6876 864.368 59.6876 863.881C59.6876 863.395 59.2932 863 58.8067 863C58.3202 863 57.9258 863.395 57.9258 863.881C57.9258 864.368 58.3202 864.762 58.8067 864.762Z" fill="#08A8E4"/>
<path d="M72.9994 863.881C72.9994 864.057 72.9472 864.229 72.8494 864.376C72.7516 864.522 72.6127 864.636 72.4501 864.703C72.2875 864.771 72.1086 864.788 71.936 864.754C71.7634 864.72 71.6048 864.635 71.4804 864.51C71.3559 864.386 71.2712 864.227 71.2368 864.055C71.2025 863.882 71.2201 863.703 71.2874 863.541C71.3548 863.378 71.4689 863.239 71.6152 863.141C71.7615 863.044 71.9336 862.991 72.1095 862.991C72.3455 862.991 72.5719 863.085 72.7387 863.252C72.9056 863.419 72.9994 863.645 72.9994 863.881Z" fill="#08A8E4"/>
<path d="M26.4179 874.017C26.4179 874.193 26.3656 874.365 26.2679 874.511C26.1701 874.658 26.0311 874.772 25.8685 874.839C25.7059 874.906 25.527 874.924 25.3544 874.89C25.1818 874.855 25.0232 874.771 24.8988 874.646C24.7744 874.522 24.6896 874.363 24.6553 874.191C24.6209 874.018 24.6386 873.839 24.7059 873.676C24.7733 873.514 24.8873 873.375 25.0337 873.277C25.18 873.179 25.3521 873.127 25.528 873.127C25.764 873.127 25.9904 873.221 26.1572 873.388C26.3241 873.555 26.4179 873.781 26.4179 874.017Z" fill="#08A8E4"/>
<path d="M38.8477 874.906C39.3342 874.906 39.7286 874.512 39.7286 874.025C39.7286 873.539 39.3342 873.144 38.8477 873.144C38.3612 873.144 37.9668 873.539 37.9668 874.025C37.9668 874.512 38.3612 874.906 38.8477 874.906Z" fill="#08A8E4"/>
<path d="M52.1509 874.907C52.6375 874.907 53.0319 874.512 53.0319 874.026C53.0319 873.539 52.6375 873.145 52.1509 873.145C51.6644 873.145 51.27 873.539 51.27 874.026C51.27 874.512 51.6644 874.907 52.1509 874.907Z" fill="#08A8E4"/>
<path d="M66.326 874.017C66.326 874.193 66.2739 874.365 66.1761 874.511C66.0783 874.658 65.9393 874.772 65.7767 874.839C65.6141 874.906 65.4352 874.924 65.2626 874.89C65.09 874.855 64.9315 874.771 64.807 874.646C64.6826 874.522 64.5978 874.363 64.5635 874.191C64.5292 874.018 64.5468 873.839 64.6141 873.676C64.6815 873.514 64.7955 873.375 64.9419 873.277C65.0882 873.179 65.2602 873.127 65.4362 873.127C65.6722 873.127 65.8985 873.221 66.0654 873.388C66.2323 873.555 66.326 873.781 66.326 874.017Z" fill="#08A8E4"/>
<path d="M19.7704 884.205C19.7704 884.441 19.6766 884.667 19.5097 884.834C19.3429 885.001 19.1165 885.094 18.8805 885.094C18.6446 885.094 18.4182 885.001 18.2514 884.834C18.0845 884.667 17.9907 884.441 17.9907 884.205C17.9907 883.969 18.0845 883.742 18.2514 883.575C18.4182 883.409 18.6446 883.315 18.8805 883.315C19.1165 883.315 19.3429 883.409 19.5097 883.575C19.6766 883.742 19.7704 883.969 19.7704 884.205Z" fill="#08A8E4"/>
<path d="M32.1924 885.095C32.679 885.095 33.0734 884.7 33.0734 884.214C33.0734 883.727 32.679 883.333 32.1924 883.333C31.7059 883.333 31.3115 883.727 31.3115 884.214C31.3115 884.7 31.7059 885.095 32.1924 885.095Z" fill="#08A8E4"/>
<path d="M45.5045 885.095C45.991 885.095 46.3854 884.7 46.3854 884.214C46.3854 883.727 45.991 883.333 45.5045 883.333C45.0179 883.333 44.6235 883.727 44.6235 884.214C44.6235 884.7 45.0179 885.095 45.5045 885.095Z" fill="#08A8E4"/>
<path d="M58.8067 885.095C59.2932 885.095 59.6876 884.7 59.6876 884.214C59.6876 883.727 59.2932 883.333 58.8067 883.333C58.3202 883.333 57.9258 883.727 57.9258 884.214C57.9258 884.7 58.3202 885.095 58.8067 885.095Z" fill="#08A8E4"/>
<path d="M72.9994 884.205C72.9994 884.381 72.9472 884.553 72.8494 884.699C72.7516 884.845 72.6127 884.96 72.4501 885.027C72.2875 885.094 72.1086 885.112 71.936 885.077C71.7634 885.043 71.6048 884.958 71.4804 884.834C71.3559 884.71 71.2712 884.551 71.2368 884.378C71.2025 884.206 71.2201 884.027 71.2874 883.864C71.3548 883.702 71.4689 883.563 71.6152 883.465C71.7615 883.367 71.9336 883.315 72.1095 883.315C72.3455 883.315 72.5719 883.409 72.7387 883.576C72.9056 883.742 72.9994 883.969 72.9994 884.205Z" fill="#08A8E4"/>
<path d="M26.4179 894.349C26.4179 894.525 26.3656 894.697 26.2679 894.843C26.1701 894.99 26.0311 895.104 25.8685 895.171C25.7059 895.238 25.527 895.256 25.3544 895.222C25.1818 895.187 25.0232 895.103 24.8988 894.978C24.7744 894.854 24.6896 894.695 24.6553 894.523C24.6209 894.35 24.6386 894.171 24.7059 894.008C24.7733 893.846 24.8873 893.707 25.0337 893.609C25.18 893.511 25.3521 893.459 25.528 893.459C25.764 893.459 25.9904 893.553 26.1572 893.72C26.3241 893.887 26.4179 894.113 26.4179 894.349Z" fill="#08A8E4"/>
<path d="M38.8477 895.23C39.3342 895.23 39.7286 894.836 39.7286 894.349C39.7286 893.863 39.3342 893.468 38.8477 893.468C38.3612 893.468 37.9668 893.863 37.9668 894.349C37.9668 894.836 38.3612 895.23 38.8477 895.23Z" fill="#08A8E4"/>
<path d="M52.1509 895.23C52.6375 895.23 53.0319 894.836 53.0319 894.349C53.0319 893.863 52.6375 893.468 52.1509 893.468C51.6644 893.468 51.27 893.863 51.27 894.349C51.27 894.836 51.6644 895.23 52.1509 895.23Z" fill="#08A8E4"/>
<path d="M66.326 894.349C66.326 894.525 66.2739 894.697 66.1761 894.843C66.0783 894.99 65.9393 895.104 65.7767 895.171C65.6141 895.238 65.4352 895.256 65.2626 895.222C65.09 895.187 64.9315 895.103 64.807 894.978C64.6826 894.854 64.5978 894.695 64.5635 894.523C64.5292 894.35 64.5468 894.171 64.6141 894.008C64.6815 893.846 64.7955 893.707 64.9419 893.609C65.0882 893.511 65.2602 893.459 65.4362 893.459C65.6722 893.459 65.8985 893.553 66.0654 893.72C66.2323 893.887 66.326 894.113 66.326 894.349Z" fill="#08A8E4"/>
<path d="M19.7704 904.538C19.7704 904.714 19.7182 904.886 19.6204 905.032C19.5226 905.178 19.3837 905.292 19.2211 905.36C19.0585 905.427 18.8796 905.445 18.707 905.41C18.5344 905.376 18.3758 905.291 18.2514 905.167C18.1269 905.042 18.0422 904.884 18.0078 904.711C17.9735 904.539 17.9911 904.36 18.0584 904.197C18.1258 904.034 18.2399 903.895 18.3862 903.798C18.5325 903.7 18.7046 903.648 18.8805 903.648C19.1165 903.648 19.3429 903.741 19.5097 903.908C19.6766 904.075 19.7704 904.302 19.7704 904.538Z" fill="#08A8E4"/>
<path d="M32.1924 905.419C32.679 905.419 33.0734 905.024 33.0734 904.538C33.0734 904.051 32.679 903.657 32.1924 903.657C31.7059 903.657 31.3115 904.051 31.3115 904.538C31.3115 905.024 31.7059 905.419 32.1924 905.419Z" fill="#08A8E4"/>
<path d="M45.5045 905.419C45.991 905.419 46.3854 905.024 46.3854 904.538C46.3854 904.051 45.991 903.657 45.5045 903.657C45.0179 903.657 44.6235 904.051 44.6235 904.538C44.6235 905.024 45.0179 905.419 45.5045 905.419Z" fill="#08A8E4"/>
<path d="M58.8067 905.419C59.2932 905.419 59.6876 905.024 59.6876 904.538C59.6876 904.051 59.2932 903.657 58.8067 903.657C58.3202 903.657 57.9258 904.051 57.9258 904.538C57.9258 905.024 58.3202 905.419 58.8067 905.419Z" fill="#08A8E4"/>
<path d="M72.9994 904.538C72.9994 904.774 72.9056 905 72.7387 905.167C72.5719 905.334 72.3455 905.427 72.1096 905.427C71.8736 905.427 71.6472 905.334 71.4804 905.167C71.3135 905 71.2197 904.774 71.2197 904.538C71.2197 904.302 71.3135 904.075 71.4804 903.908C71.6472 903.741 71.8736 903.648 72.1096 903.648C72.3455 903.648 72.5719 903.741 72.7387 903.908C72.9056 904.075 72.9994 904.302 72.9994 904.538Z" fill="#08A8E4"/>
<path d="M26.4179 914.673C26.4179 914.849 26.3656 915.021 26.2679 915.167C26.1701 915.313 26.0311 915.427 25.8685 915.495C25.7059 915.562 25.527 915.58 25.3544 915.545C25.1818 915.511 25.0232 915.426 24.8988 915.302C24.7744 915.177 24.6896 915.019 24.6553 914.846C24.6209 914.674 24.6386 914.495 24.7059 914.332C24.7733 914.169 24.8873 914.03 25.0337 913.933C25.18 913.835 25.3521 913.783 25.528 913.783C25.764 913.783 25.9904 913.876 26.1572 914.043C26.3241 914.21 26.4179 914.437 26.4179 914.673Z" fill="#08A8E4"/>
<path d="M38.8477 915.553C39.3342 915.553 39.7286 915.159 39.7286 914.672C39.7286 914.186 39.3342 913.791 38.8477 913.791C38.3612 913.791 37.9668 914.186 37.9668 914.672C37.9668 915.159 38.3612 915.553 38.8477 915.553Z" fill="#08A8E4"/>
<path d="M52.1509 915.553C52.6375 915.553 53.0319 915.159 53.0319 914.672C53.0319 914.186 52.6375 913.791 52.1509 913.791C51.6644 913.791 51.27 914.186 51.27 914.672C51.27 915.159 51.6644 915.553 52.1509 915.553Z" fill="#08A8E4"/>
<path d="M66.326 914.673C66.326 914.849 66.2739 915.021 66.1761 915.167C66.0783 915.313 65.9393 915.427 65.7767 915.495C65.6141 915.562 65.4352 915.58 65.2626 915.545C65.09 915.511 64.9315 915.426 64.807 915.302C64.6826 915.177 64.5978 915.019 64.5635 914.846C64.5292 914.674 64.5468 914.495 64.6141 914.332C64.6815 914.169 64.7955 914.03 64.9419 913.933C65.0882 913.835 65.2602 913.783 65.4362 913.783C65.6722 913.783 65.8985 913.876 66.0654 914.043C66.2323 914.21 66.326 914.437 66.326 914.673Z" fill="#08A8E4"/>
</g>
</g>
<g clip-path="url(#clip6_0_1585)">
<g opacity="0.51">
<path d="M1327.77 430.881C1327.77 431.057 1327.72 431.229 1327.62 431.376C1327.52 431.522 1327.38 431.636 1327.22 431.703C1327.06 431.771 1326.88 431.788 1326.71 431.754C1326.53 431.72 1326.38 431.635 1326.25 431.51C1326.13 431.386 1326.04 431.227 1326.01 431.055C1325.97 430.882 1325.99 430.703 1326.06 430.541C1326.13 430.378 1326.24 430.239 1326.39 430.141C1326.53 430.044 1326.7 429.991 1326.88 429.991C1327.12 429.991 1327.34 430.085 1327.51 430.252C1327.68 430.419 1327.77 430.645 1327.77 430.881Z" fill="#7F2069"/>
<path d="M1340.19 431.762C1340.68 431.762 1341.07 431.368 1341.07 430.881C1341.07 430.395 1340.68 430 1340.19 430C1339.71 430 1339.31 430.395 1339.31 430.881C1339.31 431.368 1339.71 431.762 1340.19 431.762Z" fill="#7F2069"/>
<path d="M1353.5 431.762C1353.99 431.762 1354.39 431.368 1354.39 430.881C1354.39 430.395 1353.99 430 1353.5 430C1353.02 430 1352.62 430.395 1352.62 430.881C1352.62 431.368 1353.02 431.762 1353.5 431.762Z" fill="#7F2069"/>
<path d="M1366.81 431.762C1367.29 431.762 1367.69 431.368 1367.69 430.881C1367.69 430.395 1367.29 430 1366.81 430C1366.32 430 1365.93 430.395 1365.93 430.881C1365.93 431.368 1366.32 431.762 1366.81 431.762Z" fill="#7F2069"/>
<path d="M1381 430.881C1381 431.057 1380.95 431.229 1380.85 431.376C1380.75 431.522 1380.61 431.636 1380.45 431.703C1380.29 431.771 1380.11 431.788 1379.94 431.754C1379.76 431.72 1379.6 431.635 1379.48 431.51C1379.36 431.386 1379.27 431.227 1379.24 431.055C1379.2 430.882 1379.22 430.703 1379.29 430.541C1379.35 430.378 1379.47 430.239 1379.62 430.141C1379.76 430.044 1379.93 429.991 1380.11 429.991C1380.35 429.991 1380.57 430.085 1380.74 430.252C1380.91 430.419 1381 430.645 1381 430.881Z" fill="#7F2069"/>
<path d="M1334.42 441.017C1334.42 441.193 1334.37 441.365 1334.27 441.511C1334.17 441.658 1334.03 441.772 1333.87 441.839C1333.71 441.906 1333.53 441.924 1333.35 441.89C1333.18 441.855 1333.02 441.771 1332.9 441.646C1332.77 441.522 1332.69 441.363 1332.66 441.191C1332.62 441.018 1332.64 440.839 1332.71 440.676C1332.77 440.514 1332.89 440.375 1333.03 440.277C1333.18 440.179 1333.35 440.127 1333.53 440.127C1333.76 440.127 1333.99 440.221 1334.16 440.388C1334.32 440.555 1334.42 440.781 1334.42 441.017Z" fill="#7F2069"/>
<path d="M1346.85 441.906C1347.33 441.906 1347.73 441.512 1347.73 441.025C1347.73 440.539 1347.33 440.144 1346.85 440.144C1346.36 440.144 1345.97 440.539 1345.97 441.025C1345.97 441.512 1346.36 441.906 1346.85 441.906Z" fill="#7F2069"/>
<path d="M1360.15 441.907C1360.64 441.907 1361.03 441.512 1361.03 441.026C1361.03 440.539 1360.64 440.145 1360.15 440.145C1359.66 440.145 1359.27 440.539 1359.27 441.026C1359.27 441.512 1359.66 441.907 1360.15 441.907Z" fill="#7F2069"/>
<path d="M1374.33 441.017C1374.33 441.193 1374.27 441.365 1374.18 441.511C1374.08 441.658 1373.94 441.772 1373.78 441.839C1373.61 441.906 1373.44 441.924 1373.26 441.89C1373.09 441.855 1372.93 441.771 1372.81 441.646C1372.68 441.522 1372.6 441.363 1372.56 441.191C1372.53 441.018 1372.55 440.839 1372.61 440.676C1372.68 440.514 1372.8 440.375 1372.94 440.277C1373.09 440.179 1373.26 440.127 1373.44 440.127C1373.67 440.127 1373.9 440.221 1374.07 440.388C1374.23 440.555 1374.33 440.781 1374.33 441.017Z" fill="#7F2069"/>
<path d="M1327.77 451.205C1327.77 451.441 1327.68 451.667 1327.51 451.834C1327.34 452.001 1327.12 452.094 1326.88 452.094C1326.64 452.094 1326.42 452.001 1326.25 451.834C1326.08 451.667 1325.99 451.441 1325.99 451.205C1325.99 450.969 1326.08 450.742 1326.25 450.575C1326.42 450.409 1326.64 450.315 1326.88 450.315C1327.12 450.315 1327.34 450.409 1327.51 450.575C1327.68 450.742 1327.77 450.969 1327.77 451.205Z" fill="#7F2069"/>
<path d="M1340.19 452.095C1340.68 452.095 1341.07 451.7 1341.07 451.214C1341.07 450.727 1340.68 450.333 1340.19 450.333C1339.71 450.333 1339.31 450.727 1339.31 451.214C1339.31 451.7 1339.71 452.095 1340.19 452.095Z" fill="#7F2069"/>
<path d="M1353.5 452.095C1353.99 452.095 1354.39 451.7 1354.39 451.214C1354.39 450.727 1353.99 450.333 1353.5 450.333C1353.02 450.333 1352.62 450.727 1352.62 451.214C1352.62 451.7 1353.02 452.095 1353.5 452.095Z" fill="#7F2069"/>
<path d="M1366.81 452.095C1367.29 452.095 1367.69 451.7 1367.69 451.214C1367.69 450.727 1367.29 450.333 1366.81 450.333C1366.32 450.333 1365.93 450.727 1365.93 451.214C1365.93 451.7 1366.32 452.095 1366.81 452.095Z" fill="#7F2069"/>
<path d="M1381 451.205C1381 451.381 1380.95 451.553 1380.85 451.699C1380.75 451.845 1380.61 451.96 1380.45 452.027C1380.29 452.094 1380.11 452.112 1379.94 452.077C1379.76 452.043 1379.6 451.958 1379.48 451.834C1379.36 451.71 1379.27 451.551 1379.24 451.378C1379.2 451.206 1379.22 451.027 1379.29 450.864C1379.35 450.702 1379.47 450.563 1379.62 450.465C1379.76 450.367 1379.93 450.315 1380.11 450.315C1380.35 450.315 1380.57 450.409 1380.74 450.576C1380.91 450.742 1381 450.969 1381 451.205Z" fill="#7F2069"/>
<path d="M1334.42 461.349C1334.42 461.525 1334.37 461.697 1334.27 461.843C1334.17 461.99 1334.03 462.104 1333.87 462.171C1333.71 462.238 1333.53 462.256 1333.35 462.222C1333.18 462.187 1333.02 462.103 1332.9 461.978C1332.77 461.854 1332.69 461.695 1332.66 461.523C1332.62 461.35 1332.64 461.171 1332.71 461.008C1332.77 460.846 1332.89 460.707 1333.03 460.609C1333.18 460.511 1333.35 460.459 1333.53 460.459C1333.76 460.459 1333.99 460.553 1334.16 460.72C1334.32 460.887 1334.42 461.113 1334.42 461.349Z" fill="#7F2069"/>
<path d="M1346.85 462.23C1347.33 462.23 1347.73 461.836 1347.73 461.349C1347.73 460.863 1347.33 460.468 1346.85 460.468C1346.36 460.468 1345.97 460.863 1345.97 461.349C1345.97 461.836 1346.36 462.23 1346.85 462.23Z" fill="#7F2069"/>
<path d="M1360.15 462.23C1360.64 462.23 1361.03 461.836 1361.03 461.349C1361.03 460.863 1360.64 460.468 1360.15 460.468C1359.66 460.468 1359.27 460.863 1359.27 461.349C1359.27 461.836 1359.66 462.23 1360.15 462.23Z" fill="#7F2069"/>
<path d="M1374.33 461.349C1374.33 461.525 1374.27 461.697 1374.18 461.843C1374.08 461.99 1373.94 462.104 1373.78 462.171C1373.61 462.238 1373.44 462.256 1373.26 462.222C1373.09 462.187 1372.93 462.103 1372.81 461.978C1372.68 461.854 1372.6 461.695 1372.56 461.523C1372.53 461.35 1372.55 461.171 1372.61 461.008C1372.68 460.846 1372.8 460.707 1372.94 460.609C1373.09 460.511 1373.26 460.459 1373.44 460.459C1373.67 460.459 1373.9 460.553 1374.07 460.72C1374.23 460.887 1374.33 461.113 1374.33 461.349Z" fill="#7F2069"/>
<path d="M1327.77 471.538C1327.77 471.714 1327.72 471.886 1327.62 472.032C1327.52 472.178 1327.38 472.292 1327.22 472.36C1327.06 472.427 1326.88 472.445 1326.71 472.41C1326.53 472.376 1326.38 472.291 1326.25 472.167C1326.13 472.042 1326.04 471.884 1326.01 471.711C1325.97 471.539 1325.99 471.36 1326.06 471.197C1326.13 471.034 1326.24 470.895 1326.39 470.798C1326.53 470.7 1326.7 470.648 1326.88 470.648C1327.12 470.648 1327.34 470.741 1327.51 470.908C1327.68 471.075 1327.77 471.302 1327.77 471.538Z" fill="#7F2069"/>
<path d="M1340.19 472.419C1340.68 472.419 1341.07 472.024 1341.07 471.538C1341.07 471.051 1340.68 470.657 1340.19 470.657C1339.71 470.657 1339.31 471.051 1339.31 471.538C1339.31 472.024 1339.71 472.419 1340.19 472.419Z" fill="#7F2069"/>
<path d="M1353.5 472.419C1353.99 472.419 1354.39 472.024 1354.39 471.538C1354.39 471.051 1353.99 470.657 1353.5 470.657C1353.02 470.657 1352.62 471.051 1352.62 471.538C1352.62 472.024 1353.02 472.419 1353.5 472.419Z" fill="#7F2069"/>
<path d="M1366.81 472.419C1367.29 472.419 1367.69 472.024 1367.69 471.538C1367.69 471.051 1367.29 470.657 1366.81 470.657C1366.32 470.657 1365.93 471.051 1365.93 471.538C1365.93 472.024 1366.32 472.419 1366.81 472.419Z" fill="#7F2069"/>
<path d="M1381 471.538C1381 471.774 1380.91 472 1380.74 472.167C1380.57 472.334 1380.35 472.427 1380.11 472.427C1379.87 472.427 1379.65 472.334 1379.48 472.167C1379.31 472 1379.22 471.774 1379.22 471.538C1379.22 471.302 1379.31 471.075 1379.48 470.908C1379.65 470.741 1379.87 470.648 1380.11 470.648C1380.35 470.648 1380.57 470.741 1380.74 470.908C1380.91 471.075 1381 471.302 1381 471.538Z" fill="#7F2069"/>
<path d="M1334.42 481.673C1334.42 481.849 1334.37 482.021 1334.27 482.167C1334.17 482.313 1334.03 482.427 1333.87 482.495C1333.71 482.562 1333.53 482.58 1333.35 482.545C1333.18 482.511 1333.02 482.426 1332.9 482.302C1332.77 482.177 1332.69 482.019 1332.66 481.846C1332.62 481.674 1332.64 481.495 1332.71 481.332C1332.77 481.169 1332.89 481.03 1333.03 480.933C1333.18 480.835 1333.35 480.783 1333.53 480.783C1333.76 480.783 1333.99 480.876 1334.16 481.043C1334.32 481.21 1334.42 481.437 1334.42 481.673Z" fill="#7F2069"/>
<path d="M1346.85 482.553C1347.33 482.553 1347.73 482.159 1347.73 481.672C1347.73 481.186 1347.33 480.791 1346.85 480.791C1346.36 480.791 1345.97 481.186 1345.97 481.672C1345.97 482.159 1346.36 482.553 1346.85 482.553Z" fill="#7F2069"/>
<path d="M1360.15 482.553C1360.64 482.553 1361.03 482.159 1361.03 481.672C1361.03 481.186 1360.64 480.791 1360.15 480.791C1359.66 480.791 1359.27 481.186 1359.27 481.672C1359.27 482.159 1359.66 482.553 1360.15 482.553Z" fill="#7F2069"/>
<path d="M1374.33 481.673C1374.33 481.849 1374.27 482.021 1374.18 482.167C1374.08 482.313 1373.94 482.427 1373.78 482.495C1373.61 482.562 1373.44 482.58 1373.26 482.545C1373.09 482.511 1372.93 482.426 1372.81 482.302C1372.68 482.177 1372.6 482.019 1372.56 481.846C1372.53 481.674 1372.55 481.495 1372.61 481.332C1372.68 481.169 1372.8 481.03 1372.94 480.933C1373.09 480.835 1373.26 480.783 1373.44 480.783C1373.67 480.783 1373.9 480.876 1374.07 481.043C1374.23 481.21 1374.33 481.437 1374.33 481.673Z" fill="#7F2069"/>
</g>
</g>
</g>
<defs>
<clipPath id="clip0_0_1585">
<rect width="1440" height="1559" fill="white"/>
</clipPath>
<clipPath id="clip1_0_1585">
<rect width="33" height="31.5371" fill="white" transform="translate(41 1547)"/>
</clipPath>
<clipPath id="clip2_0_1585">
<rect width="42" height="42" fill="white" transform="translate(1324 96)"/>
</clipPath>
<clipPath id="clip3_0_1585">
<rect width="55" height="52.5619" fill="white" transform="translate(74 266)"/>
</clipPath>
<clipPath id="clip4_0_1585">
<rect width="42" height="42" fill="white" transform="translate(1366 1051)"/>
</clipPath>
<clipPath id="clip5_0_1585">
<rect width="55" height="52.5619" fill="white" transform="translate(18 863)"/>
</clipPath>
<clipPath id="clip6_0_1585">
<rect width="55" height="52.5619" fill="white" transform="translate(1326 430)"/>
</clipPath>
</defs>
</svg>
