<svg width="28" height="28" viewBox="0 0 28 28" fill="none" xmlns="http://www.w3.org/2000/svg">
<path d="M9.33301 2.3335V5.8335" stroke="#08A8E4" stroke-width="1.5" stroke-miterlimit="10" stroke-linecap="round" stroke-linejoin="round"/>
<path d="M18.667 2.3335V5.8335" stroke="#08A8E4" stroke-width="1.5" stroke-miterlimit="10" stroke-linecap="round" stroke-linejoin="round"/>
<path d="M4.08301 10.605H23.9163" stroke="#08A8E4" stroke-width="1.5" stroke-miterlimit="10" stroke-linecap="round" stroke-linejoin="round"/>
<path d="M20.9997 26.8333C23.577 26.8333 25.6663 24.744 25.6663 22.1667C25.6663 19.5893 23.577 17.5 20.9997 17.5C18.4223 17.5 16.333 19.5893 16.333 22.1667C16.333 24.744 18.4223 26.8333 20.9997 26.8333Z" stroke="#08A8E4" stroke-width="1.5" stroke-miterlimit="10" stroke-linecap="round" stroke-linejoin="round"/>
<path d="M22.7384 22.2246H19.2617" stroke="#08A8E4" stroke-width="1.5" stroke-miterlimit="10" stroke-linecap="round" stroke-linejoin="round"/>
<path d="M21 20.5215V24.0098" stroke="#08A8E4" stroke-width="1.5" stroke-miterlimit="10" stroke-linecap="round" stroke-linejoin="round"/>
<path d="M24.5 9.91683V19.0868C23.6483 18.1185 22.4 17.5002 21 17.5002C18.4217 17.5002 16.3333 19.5885 16.3333 22.1668C16.3333 23.0418 16.5783 23.8702 17.01 24.5702C17.255 24.9902 17.57 25.3635 17.9317 25.6668H9.33333C5.25 25.6668 3.5 23.3335 3.5 19.8335V9.91683C3.5 6.41683 5.25 4.0835 9.33333 4.0835H18.6667C22.75 4.0835 24.5 6.41683 24.5 9.91683Z" stroke="#08A8E4" stroke-width="1.5" stroke-miterlimit="10" stroke-linecap="round" stroke-linejoin="round"/>
<path d="M13.9949 15.9832H14.0054" stroke="#08A8E4" stroke-width="2" stroke-linecap="round" stroke-linejoin="round"/>
<path d="M9.67653 15.9832H9.68701" stroke="#08A8E4" stroke-width="2" stroke-linecap="round" stroke-linejoin="round"/>
<path d="M9.67653 19.4832H9.68701" stroke="#08A8E4" stroke-width="2" stroke-linecap="round" stroke-linejoin="round"/>
</svg>
