<svg width="522" height="94" viewBox="0 0 522 94" fill="none" xmlns="http://www.w3.org/2000/svg">
<path d="M39.1836 18.0361V39.5603C39.1836 41.9168 40.1197 44.1767 41.786 45.843C43.4523 47.5093 45.7122 48.4454 48.0687 48.4454C50.4252 48.4454 52.6851 47.5093 54.3514 45.843C56.0177 44.1767 56.9538 41.9168 56.9538 39.5603V18.0361H39.1836Z" fill="#8EE0FF"/>
<path d="M26.1444 17.9688H496.344C503.278 17.9688 509.928 20.7232 514.831 25.6263C519.734 30.5293 522.489 37.1792 522.489 44.1132V93.1145H0V44.1132C0 37.1792 2.75449 30.5293 7.65753 25.6263C12.5606 20.7232 19.2105 17.9688 26.1444 17.9688Z" fill="#8EE0FF"/>
<path d="M44.6898 48.4675C42.3333 48.4675 40.0734 47.5314 38.4071 45.8651C36.7408 44.1989 35.8047 41.9389 35.8047 39.5824V8.90659C35.8047 6.55011 36.7408 4.29015 38.4071 2.62387C40.0734 0.957591 42.3333 0.0214844 44.6898 0.0214844C47.0463 0.0214844 49.3062 0.957591 50.9725 2.62387C52.6388 4.29015 53.5749 6.55011 53.5749 8.90659V39.5602C53.5778 40.7289 53.3502 41.8867 52.9049 42.9672C52.4597 44.0478 51.8057 45.0299 50.9804 45.8573C50.155 46.6847 49.1746 47.3412 48.0951 47.7891C47.0157 48.237 45.8585 48.4675 44.6898 48.4675Z" fill="#6D6D6D"/>
<g style="mix-blend-mode:multiply" opacity="0.6">
<path d="M44.6915 -0.000726431C43.9875 0.00712276 43.2869 0.0965709 42.6035 0.265826C43.9291 0.577233 45.1669 1.18477 46.2242 2.04285L46.6018 2.35383C46.828 2.5646 47.043 2.78703 47.246 3.02021C47.4061 3.19535 47.5545 3.38086 47.6902 3.57553L48.1567 4.24191L48.5565 4.99715C48.6661 5.20566 48.7625 5.4208 48.8453 5.64132C48.975 5.96584 49.079 6.30006 49.1563 6.64089C49.1563 6.81859 49.2673 6.99629 49.3118 7.19621C49.4281 7.74395 49.4876 8.30222 49.4895 8.86217V39.5158C49.4876 40.0757 49.4281 40.634 49.3118 41.1817C49.3118 41.3817 49.2007 41.5594 49.1563 41.7371C49.073 42.0762 48.9691 42.41 48.8453 42.7366C48.8453 42.9588 48.6676 43.1587 48.5565 43.3808L48.1567 44.136L47.6902 44.8024L47.246 45.3355C47.0489 45.581 46.8336 45.8112 46.6018 46.0241L46.2242 46.4684C45.1945 47.3347 43.9779 47.9506 42.6702 48.2676C43.3505 48.4551 44.0525 48.5522 44.7582 48.5564C47.1146 48.5564 49.3746 47.6203 51.0409 45.954C52.7071 44.2877 53.6433 42.0278 53.6433 39.6713V8.90659C53.6462 7.73229 53.4164 6.56904 52.967 5.48411C52.5177 4.39918 51.8577 3.41409 51.0253 2.5858C50.1928 1.75751 49.2045 1.10244 48.1173 0.658479C47.0302 0.214516 45.8658 -0.0095375 44.6915 -0.000726431Z" fill="#6D6D6D"/>
</g>
<g style="mix-blend-mode:multiply">
<path d="M92.6758 18.0361V39.5603C92.6758 41.9168 93.6119 44.1767 95.2782 45.843C96.9445 47.5093 99.2044 48.4454 101.561 48.4454C103.917 48.4454 106.177 47.5093 107.844 45.843C109.51 44.1767 110.446 41.9168 110.446 39.5603V18.0361H92.6758Z" fill="#8EE0FF"/>
</g>
<path d="M107.086 8.90732C107.086 3.98794 103.098 0 98.1788 0C93.2594 0 89.2715 3.98794 89.2715 8.90732V39.5609C89.2715 44.4803 93.2594 48.4683 98.1788 48.4683C103.098 48.4683 107.086 44.4803 107.086 39.5609V8.90732Z" fill="#6D6D6D"/>
<g style="mix-blend-mode:multiply" opacity="0.6">
<path d="M98.1583 0C97.4546 0.0107366 96.7542 0.100143 96.0703 0.266553C97.3818 0.579857 98.6048 1.18755 99.6466 2.04357L100.024 2.35455L100.646 3.02094C100.813 3.19576 100.969 3.38126 101.113 3.57626C101.268 3.79838 101.424 4.02051 101.557 4.24264C101.711 4.48684 101.852 4.73893 101.979 4.99787C101.979 5.19779 102.179 5.41991 102.268 5.64204C102.397 5.96656 102.501 6.30079 102.579 6.64162C102.636 6.82337 102.681 7.00893 102.712 7.19694C102.828 7.74468 102.888 8.30294 102.89 8.86289V39.5165C102.888 40.0765 102.828 40.6347 102.712 41.1825C102.681 41.3705 102.636 41.556 102.579 41.7378C102.495 42.077 102.391 42.4108 102.268 42.7374C102.268 42.9595 102.068 43.1594 101.979 43.3815C101.852 43.6405 101.711 43.8926 101.557 44.1368C101.424 44.3589 101.268 44.581 101.113 44.8031C100.957 45.0253 100.824 45.1586 100.646 45.3363C100.451 45.5762 100.243 45.806 100.024 46.0248L99.6466 46.3358C98.6118 47.2073 97.3868 47.8235 96.0703 48.1351C96.7512 48.3196 97.4529 48.4166 98.1583 48.4238C100.515 48.4238 102.775 47.4877 104.441 45.8214C106.107 44.1552 107.043 41.8952 107.043 39.5387V8.90732C107.046 7.73864 106.819 6.58087 106.373 5.50031C105.928 4.41976 105.274 3.43765 104.449 2.61024C103.624 1.78282 102.643 1.12636 101.564 0.678457C100.484 0.23055 99.327 -3.65209e-06 98.1583 0Z" fill="#6D6D6D"/>
</g>
<g style="mix-blend-mode:multiply">
<path d="M146.184 18.0361V39.5603C146.184 41.9168 147.12 44.1767 148.786 45.843C150.452 47.5093 152.712 48.4454 155.069 48.4454C157.425 48.4454 159.685 47.5093 161.351 45.843C163.018 44.1767 163.954 41.9168 163.954 39.5603V18.0361H146.184Z" fill="#8EE0FF"/>
</g>
<path d="M151.647 48.4675C149.29 48.4675 147.03 47.5314 145.364 45.8651C143.698 44.1989 142.762 41.9389 142.762 39.5824V8.90659C142.762 6.55011 143.698 4.29015 145.364 2.62387C147.03 0.957591 149.29 0.0214844 151.647 0.0214844C154.003 0.0214844 156.263 0.957591 157.93 2.62387C159.596 4.29015 160.532 6.55011 160.532 8.90659V39.5602C160.535 40.7289 160.307 41.8867 159.862 42.9672C159.417 44.0478 158.763 45.0299 157.937 45.8573C157.112 46.6847 156.132 47.3412 155.052 47.7891C153.973 48.237 152.816 48.4675 151.647 48.4675Z" fill="#6D6D6D"/>
<g style="mix-blend-mode:multiply" opacity="0.6">
<path d="M151.647 2.78381e-05C150.943 0.00787702 150.242 0.0973251 149.559 0.266581C150.866 0.591848 152.086 1.19828 153.135 2.0436L153.512 2.35458L154.134 3.02096C154.295 3.1961 154.443 3.38161 154.579 3.57628C154.756 3.79841 154.89 4.02054 155.045 4.24267L155.445 4.9979C155.555 5.20641 155.651 5.42155 155.734 5.64207C155.863 5.96659 155.967 6.30081 156.045 6.64164C156.045 6.81935 156.045 6.99705 156.2 7.19696C156.317 7.74471 156.376 8.30297 156.378 8.86292V39.5165C156.376 40.0765 156.317 40.6348 156.2 41.1825C156.2 41.3824 156.089 41.5601 156.045 41.7378C155.961 42.077 155.858 42.4108 155.734 42.7374C155.734 42.9595 155.556 43.1594 155.445 43.3816L155.067 44.2479C154.912 44.47 154.779 44.6921 154.601 44.9142L154.157 45.4473C153.961 45.6873 153.754 45.9171 153.535 46.1359L153.157 46.4469C152.117 47.3109 150.894 47.9263 149.581 48.2462C150.261 48.4336 150.963 48.5307 151.669 48.5349C154.025 48.5349 156.285 47.5988 157.952 45.9325C159.618 44.2663 160.554 42.0063 160.554 39.6498V8.90735C160.557 7.7368 160.328 6.57721 159.882 5.4952C159.435 4.41319 158.779 3.43009 157.952 2.60239C157.124 1.77468 156.141 1.11869 155.059 0.67209C153.977 0.225493 152.817 -0.00290221 151.647 2.78381e-05Z" fill="#6D6D6D"/>
</g>
<g style="mix-blend-mode:multiply">
<path d="M199.625 18.0361V39.5603C199.625 41.9168 200.561 44.1767 202.227 45.843C203.894 47.5093 206.154 48.4454 208.51 48.4454C210.867 48.4454 213.127 47.5093 214.793 45.843C216.459 44.1767 217.395 41.9168 217.395 39.5603V18.0361H199.625Z" fill="#8EE0FF"/>
</g>
<path d="M205.114 48.4675C202.757 48.4675 200.497 47.5314 198.831 45.8651C197.165 44.1989 196.229 41.9389 196.229 39.5824V8.90659C196.229 6.55011 197.165 4.29015 198.831 2.62387C200.497 0.957591 202.757 0.0214844 205.114 0.0214844C207.47 0.0214844 209.73 0.957591 211.396 2.62387C213.063 4.29015 213.999 6.55011 213.999 8.90659V39.5602C214.002 40.7289 213.774 41.8867 213.329 42.9672C212.884 44.0478 212.23 45.0299 211.404 45.8573C210.579 46.6847 209.598 47.3412 208.519 47.7891C207.44 48.237 206.282 48.4675 205.114 48.4675Z" fill="#6D6D6D"/>
<g style="mix-blend-mode:multiply" opacity="0.6">
<path d="M205.113 0C204.41 0.0107366 203.709 0.100143 203.025 0.266553C204.337 0.579857 205.56 1.18755 206.602 2.04357L206.979 2.35455L207.623 3.02094L208.068 3.57626L208.512 4.24264C208.666 4.48684 208.807 4.73893 208.934 4.99787C208.934 5.19779 209.134 5.41992 209.223 5.64204C209.352 5.96656 209.456 6.30079 209.534 6.64162C209.591 6.82337 209.636 7.00893 209.667 7.19694C209.783 7.74468 209.843 8.30295 209.845 8.86289V39.5165C209.843 40.0765 209.783 40.6347 209.667 41.1825C209.636 41.3705 209.591 41.556 209.534 41.7378C209.45 42.077 209.347 42.4108 209.223 42.7374C209.223 42.9595 209.023 43.1594 208.934 43.3815C208.807 43.6405 208.666 43.8926 208.512 44.1368L208.068 44.8032L207.623 45.3363L206.979 46.0249L206.602 46.4691C205.567 47.3405 204.342 47.9568 203.025 48.2683C203.706 48.4529 204.408 48.5499 205.113 48.5571C207.47 48.5571 209.73 47.621 211.396 45.9547C213.062 44.2884 213.999 42.0285 213.999 39.672V8.90732C214.001 7.73864 213.774 6.58087 213.329 5.50032C212.883 4.41976 212.229 3.43765 211.404 2.61024C210.579 1.78282 209.598 1.12636 208.519 0.678457C207.439 0.23055 206.282 -3.65209e-06 205.113 0Z" fill="#6D6D6D"/>
</g>
<g style="mix-blend-mode:multiply">
<path d="M253.113 18.0361V39.5603C253.113 40.7271 253.343 41.8825 253.79 42.9605C254.236 44.0385 254.891 45.018 255.716 45.843C256.541 46.6681 257.52 47.3226 258.598 47.7691C259.676 48.2156 260.832 48.4454 261.998 48.4454C263.165 48.4454 264.321 48.2156 265.399 47.7691C266.477 47.3226 267.456 46.6681 268.281 45.843C269.106 45.018 269.761 44.0385 270.207 42.9605C270.654 41.8825 270.883 40.7271 270.883 39.5603V18.0361H253.113Z" fill="#8EE0FF"/>
</g>
<path d="M258.6 48.4675C256.243 48.4675 253.984 47.5314 252.317 45.8651C250.651 44.1989 249.715 41.9389 249.715 39.5824V8.90659C249.715 6.55011 250.651 4.29015 252.317 2.62387C253.984 0.957591 256.243 0.0214844 258.6 0.0214844C260.956 0.0214844 263.216 0.957591 264.883 2.62387C266.549 4.29015 267.485 6.55011 267.485 8.90659V39.5602C267.488 40.7289 267.26 41.8867 266.815 42.9672C266.37 44.0478 265.716 45.0299 264.891 45.8573C264.065 46.6847 263.085 47.3412 262.005 47.7891C260.926 48.237 259.769 48.4675 258.6 48.4675Z" fill="#6D6D6D"/>
<g style="mix-blend-mode:multiply" opacity="0.6">
<path d="M258.604 0C257.9 0.00784919 257.199 0.0972973 256.516 0.266553C257.826 0.605047 259.047 1.22679 260.092 2.088L260.469 2.39898L261.091 3.06536C261.252 3.2405 261.4 3.42601 261.536 3.62068C261.713 3.84281 261.847 4.06494 262.002 4.28706L262.402 5.0423C262.512 5.25081 262.608 5.46595 262.691 5.68647C262.82 6.01099 262.924 6.34521 263.002 6.68604C263.067 6.86721 263.119 7.05279 263.157 7.24136C263.274 7.7891 263.333 8.34737 263.335 8.90732V39.5609C263.333 40.1209 263.274 40.6791 263.157 41.2269C263.119 41.4155 263.067 41.601 263.002 41.7822C262.918 42.1214 262.815 42.4552 262.691 42.7818C262.691 43.0039 262.513 43.2038 262.402 43.426L262.002 44.1812C261.847 44.4033 261.713 44.6254 261.536 44.8476L261.091 45.3807C260.896 45.6206 260.688 45.8504 260.469 46.0693L260.092 46.3803C259.052 47.2442 257.829 47.8596 256.516 48.1795C257.196 48.3669 257.898 48.464 258.604 48.4683C260.96 48.4683 263.22 47.5322 264.886 45.8659C266.553 44.1996 267.489 41.9396 267.489 39.5831V8.90732C267.492 7.73864 267.264 6.58087 266.819 5.50031C266.374 4.41976 265.72 3.43765 264.894 2.61024C264.069 1.78282 263.088 1.12636 262.009 0.678457C260.93 0.23055 259.772 -3.65209e-06 258.604 0Z" fill="#6D6D6D"/>
</g>
<g style="mix-blend-mode:multiply">
<path d="M306.582 18.0361V39.5603C306.582 41.9168 307.518 44.1767 309.184 45.843C310.851 47.5093 313.111 48.4454 315.467 48.4454C317.824 48.4454 320.084 47.5093 321.75 45.843C323.416 44.1767 324.352 41.9168 324.352 39.5603V18.0361H306.582Z" fill="#8EE0FF"/>
</g>
<path d="M312.09 48.4675C309.734 48.4675 307.474 47.5314 305.807 45.8651C304.141 44.1989 303.205 41.9389 303.205 39.5824V8.90659C303.205 6.55011 304.141 4.29015 305.807 2.62387C307.474 0.957591 309.734 0.0214844 312.09 0.0214844C314.447 0.0214844 316.707 0.957591 318.373 2.62387C320.039 4.29015 320.975 6.55011 320.975 8.90659V39.5602C320.978 40.7289 320.751 41.8867 320.305 42.9672C319.86 44.0478 319.206 45.0299 318.381 45.8573C317.555 46.6847 316.575 47.3412 315.496 47.7891C314.416 48.237 313.259 48.4675 312.09 48.4675Z" fill="#6D6D6D"/>
<g style="mix-blend-mode:multiply" opacity="0.6">
<path d="M312.091 0C311.379 0.00926302 310.672 0.0986785 309.98 0.266553C311.296 0.593001 312.519 1.21604 313.557 2.088L313.934 2.39898L314.578 3.06536L315.023 3.62068C315.178 3.84281 315.334 4.06494 315.467 4.28706C315.621 4.53127 315.762 4.78336 315.889 5.0423C315.889 5.24221 316.089 5.46434 316.178 5.68647C316.308 6.01099 316.412 6.34521 316.489 6.68604C316.489 6.86374 316.6 7.04145 316.644 7.24136C316.742 7.79142 316.794 8.34865 316.8 8.90732V39.5609C316.794 40.1196 316.742 40.6768 316.644 41.2269C316.644 41.4268 316.533 41.6045 316.489 41.7822C316.405 42.1214 316.302 42.4552 316.178 42.7818C316.178 43.0039 315.978 43.2038 315.889 43.426C315.762 43.6849 315.621 43.937 315.467 44.1812C315.334 44.4033 315.178 44.6254 315.023 44.8476L314.578 45.3807L313.934 46.0693L313.557 46.3803C312.522 47.2517 311.297 47.868 309.98 48.1795C310.669 48.3656 311.378 48.4627 312.091 48.4683C314.447 48.4683 316.707 47.5322 318.373 45.8659C320.04 44.1996 320.976 41.9396 320.976 39.5831V8.90732C320.979 7.73864 320.751 6.58087 320.306 5.50031C319.861 4.41976 319.207 3.43765 318.381 2.61024C317.556 1.78282 316.575 1.12636 315.496 0.678457C314.417 0.23055 313.259 -3.65209e-06 312.091 0Z" fill="#6D6D6D"/>
</g>
<g style="mix-blend-mode:multiply">
<path d="M360.068 18.0361V39.5603C360.068 41.9168 361.004 44.1767 362.671 45.843C364.337 47.5093 366.597 48.4454 368.953 48.4454C371.31 48.4454 373.57 47.5093 375.236 45.843C376.902 44.1767 377.839 41.9168 377.839 39.5603V18.0361H360.068Z" fill="#8EE0FF"/>
</g>
<path d="M365.557 48.4675C363.201 48.4675 360.941 47.5314 359.274 45.8651C357.608 44.1989 356.672 41.9389 356.672 39.5824V8.90659C356.672 6.55011 357.608 4.29015 359.274 2.62387C360.941 0.957591 363.201 0.0214844 365.557 0.0214844C367.913 0.0214844 370.173 0.957591 371.84 2.62387C373.506 4.29015 374.442 6.55011 374.442 8.90659V39.5602C374.445 40.7289 374.217 41.8867 373.772 42.9672C373.327 44.0478 372.673 45.0299 371.848 45.8573C371.022 46.6847 370.042 47.3412 368.962 47.7891C367.883 48.237 366.726 48.4675 365.557 48.4675Z" fill="#6D6D6D"/>
<g style="mix-blend-mode:multiply" opacity="0.6">
<path d="M365.557 0C364.853 0.00922283 364.152 0.0986509 363.469 0.266553C364.78 0.605047 366 1.22679 367.045 2.088L367.423 2.39898L368.045 3.06536C368.205 3.2405 368.353 3.42601 368.489 3.62068C368.667 3.84281 368.8 4.06494 368.955 4.28706L369.355 5.0423C369.465 5.25081 369.561 5.46595 369.644 5.68647C369.774 6.01099 369.878 6.34521 369.955 6.68604C370.02 6.86721 370.072 7.05279 370.11 7.24136C370.227 7.7891 370.286 8.34737 370.288 8.90732V39.5609C370.286 40.1209 370.227 40.6791 370.11 41.2269C370.072 41.4155 370.02 41.601 369.955 41.7822C369.872 42.1214 369.768 42.4552 369.644 42.7818C369.644 43.0039 369.466 43.2038 369.355 43.426L368.955 44.1812C368.8 44.4033 368.667 44.6254 368.489 44.8476L368.045 45.3807C367.849 45.6206 367.641 45.8504 367.423 46.0693L367.045 46.3803C366.005 47.2442 364.782 47.8596 363.469 48.1795C364.149 48.3655 364.851 48.4625 365.557 48.4683C367.913 48.4683 370.173 47.5322 371.839 45.8659C373.506 44.1996 374.442 41.9396 374.442 39.5831V8.90732C374.445 7.73864 374.217 6.58087 373.772 5.50031C373.327 4.41976 372.673 3.43765 371.847 2.61024C371.022 1.78282 370.041 1.12636 368.962 0.678457C367.883 0.23055 366.725 -3.65209e-06 365.557 0Z" fill="#6D6D6D"/>
</g>
<g style="mix-blend-mode:multiply">
<path d="M413.535 18.0361V39.5603C413.535 41.9168 414.471 44.1767 416.138 45.843C417.804 47.5093 420.064 48.4454 422.42 48.4454C424.777 48.4454 427.037 47.5093 428.703 45.843C430.369 44.1767 431.305 41.9168 431.305 39.5603V18.0361H413.535Z" fill="#8EE0FF"/>
</g>
<path d="M419.045 48.4675C416.689 48.4675 414.429 47.5314 412.763 45.8651C411.096 44.1989 410.16 41.9389 410.16 39.5824V8.90659C410.16 6.55011 411.096 4.29015 412.763 2.62387C414.429 0.957591 416.689 0.0214844 419.045 0.0214844C421.402 0.0214844 423.662 0.957591 425.328 2.62387C426.994 4.29015 427.93 6.55011 427.93 8.90659V39.5602C427.933 40.7289 427.706 41.8867 427.26 42.9672C426.815 44.0478 426.161 45.0299 425.336 45.8573C424.511 46.6847 423.53 47.3412 422.451 47.7891C421.371 48.237 420.214 48.4675 419.045 48.4675Z" fill="#6D6D6D"/>
<g style="mix-blend-mode:multiply" opacity="0.6">
<path d="M419.045 -0.000281963C418.297 0.000420684 417.551 0.0898967 416.824 0.266271C418.175 0.563569 419.437 1.17205 420.512 2.04329L420.889 2.35427L421.533 3.02065L421.978 3.57597C422.133 3.7981 422.289 4.02023 422.422 4.24236C422.576 4.48656 422.716 4.73865 422.844 4.99759C422.844 5.19751 423.044 5.41963 423.133 5.64176C423.262 5.96628 423.366 6.3005 423.444 6.64134C423.444 6.81904 423.555 6.99674 423.599 7.19665C423.697 7.74671 423.749 8.30394 423.755 8.86261V39.5162C423.749 40.0749 423.697 40.6321 423.599 41.1822C423.599 41.3821 423.599 41.5598 423.444 41.7375C423.36 42.0767 423.256 42.4105 423.133 42.7371C423.133 42.9592 422.933 43.1591 422.844 43.3813C422.716 43.6402 422.576 43.8923 422.422 44.1365C422.289 44.3586 422.133 44.5807 421.978 44.8029L421.533 45.336L420.889 46.0246L420.512 46.3356C419.477 47.207 418.252 47.8233 416.935 48.1348C417.659 48.3306 418.407 48.4277 419.157 48.4235C421.513 48.4235 423.773 47.4874 425.439 45.8212C427.106 44.1549 428.042 41.8949 428.042 39.5384V8.90704C428.045 7.72896 427.813 6.56203 427.361 5.47416C426.909 4.38629 426.245 3.3992 425.408 2.57031C424.571 1.74142 423.577 1.08729 422.485 0.645981C421.393 0.20467 420.223 -0.0150119 419.045 -0.000281963Z" fill="#6D6D6D"/>
</g>
<g style="mix-blend-mode:multiply">
<path d="M467.021 18.0361V39.5603C467.021 41.9168 467.958 44.1767 469.624 45.843C471.29 47.5093 473.55 48.4454 475.907 48.4454C478.263 48.4454 480.523 47.5093 482.189 45.843C483.856 44.1767 484.792 41.9168 484.792 39.5603V18.0361H467.021Z" fill="#8EE0FF"/>
</g>
<path d="M472.512 48.4675C470.156 48.4675 467.896 47.5314 466.229 45.8651C464.563 44.1989 463.627 41.9389 463.627 39.5824V8.90659C463.627 6.55011 464.563 4.29015 466.229 2.62387C467.896 0.957591 470.156 0.0214844 472.512 0.0214844C474.869 0.0214844 477.129 0.957591 478.795 2.62387C480.461 4.29015 481.397 6.55011 481.397 8.90659V39.5602C481.4 40.7289 481.172 41.8867 480.727 42.9672C480.282 44.0478 479.628 45.0299 478.803 45.8573C477.977 46.6847 476.997 47.3412 475.917 47.7891C474.838 48.237 473.681 48.4675 472.512 48.4675Z" fill="#6D6D6D"/>
<g style="mix-blend-mode:multiply" opacity="0.6">
<path d="M472.51 0C471.806 0.00922283 471.105 0.0986509 470.422 0.266553C471.733 0.605047 472.953 1.22679 473.998 2.088L474.376 2.39898L474.998 3.06536C475.158 3.2405 475.306 3.42601 475.442 3.62068C475.62 3.84281 475.753 4.06494 475.908 4.28706L476.308 5.0423C476.427 5.24627 476.524 5.46218 476.597 5.68647C476.727 6.01099 476.831 6.34521 476.908 6.68604C476.973 6.86721 477.025 7.05279 477.064 7.24136C477.18 7.7891 477.239 8.34737 477.241 8.90732V39.5609C477.239 40.1209 477.18 40.6791 477.064 41.2269C477.025 41.4155 476.973 41.601 476.908 41.7822C476.825 42.1214 476.721 42.4552 476.597 42.7818C476.519 43.0044 476.423 43.2199 476.308 43.426L475.908 44.1812C475.753 44.4033 475.62 44.6254 475.442 44.8476L474.998 45.3807C474.802 45.6206 474.595 45.8504 474.376 46.0693L473.998 46.3803C472.958 47.2442 471.735 47.8596 470.422 48.1795C471.102 48.3655 471.804 48.4625 472.51 48.4683C474.866 48.4683 477.126 47.5322 478.793 45.8659C480.459 44.1996 481.395 41.9396 481.395 39.5831V8.90732C481.398 7.73864 481.17 6.58087 480.725 5.50031C480.28 4.41976 479.626 3.43765 478.8 2.61024C477.975 1.78282 476.995 1.12636 475.915 0.678457C474.836 0.23055 473.679 -3.65209e-06 472.51 0Z" fill="#6D6D6D"/>
</g>
</svg>
