<svg width="15" height="14" viewBox="0 0 15 14" fill="none" xmlns="http://www.w3.org/2000/svg">
<path d="M13.3152 10.6929C13.3152 10.9029 13.2685 11.1188 13.1693 11.3288C13.0702 11.5388 12.9418 11.7371 12.7727 11.9238C12.4868 12.2388 12.1718 12.4663 11.816 12.6121C11.466 12.7579 11.0868 12.8338 10.6785 12.8338C10.0835 12.8338 9.44768 12.6938 8.77685 12.4079C8.10601 12.1221 7.43518 11.7371 6.77018 11.2529C6.09935 10.7629 5.46351 10.2204 4.85685 9.61961C4.25602 9.01295 3.71352 8.37711 3.22935 7.71211C2.75102 7.04711 2.36602 6.38211 2.08602 5.72295C1.80602 5.05795 1.66602 4.42211 1.66602 3.81545C1.66602 3.41878 1.73602 3.03961 1.87602 2.68961C2.01602 2.33378 2.23768 2.00711 2.54685 1.71545C2.92018 1.34795 3.32852 1.16711 3.76018 1.16711C3.92352 1.16711 4.08685 1.20211 4.23268 1.27211C4.38435 1.34211 4.51852 1.44711 4.62352 1.59878L5.97685 3.50628C6.08185 3.65211 6.15768 3.78628 6.21018 3.91461C6.26268 4.03711 6.29185 4.15961 6.29185 4.27045C6.29185 4.41045 6.25102 4.55045 6.16935 4.68461C6.09352 4.81878 5.98268 4.95878 5.84268 5.09878L5.39935 5.55961C5.33518 5.62378 5.30601 5.69961 5.30601 5.79295C5.30601 5.83961 5.31185 5.88045 5.32352 5.92711C5.34102 5.97378 5.35852 6.00878 5.37018 6.04378C5.47518 6.23628 5.65601 6.48711 5.91268 6.79045C6.17518 7.09378 6.45518 7.40295 6.75851 7.71211C7.07351 8.02128 7.37685 8.30711 7.68601 8.56961C7.98935 8.82628 8.24018 9.00128 8.43851 9.10628C8.46768 9.11795 8.50268 9.13545 8.54351 9.15295C8.59018 9.17045 8.63685 9.17628 8.68935 9.17628C8.78851 9.17628 8.86435 9.14128 8.92851 9.07712L9.37185 8.63962C9.51768 8.49378 9.65768 8.38295 9.79185 8.31295C9.92601 8.23128 10.0602 8.19045 10.206 8.19045C10.3168 8.19045 10.4335 8.21378 10.5618 8.26628C10.6902 8.31878 10.8243 8.39461 10.9702 8.49378L12.901 9.86461C13.0527 9.96961 13.1577 10.0921 13.2218 10.2379C13.2802 10.3838 13.3152 10.5296 13.3152 10.6929Z" stroke="white" stroke-width="1.5" stroke-miterlimit="10"/>
</svg>
