<svg width="21" height="21" viewBox="0 0 21 21" fill="none" xmlns="http://www.w3.org/2000/svg">
<path d="M10.304 2.59277C12.8922 2.59277 13.1978 2.60417 14.2194 2.64978C14.8345 2.65725 15.4438 2.76985 16.021 2.98272C16.4406 3.13992 16.8205 3.38749 17.1338 3.70788C17.4557 4.02081 17.7035 4.40183 17.8589 4.823C18.0728 5.39907 18.1854 6.00778 18.1919 6.62223C18.2398 7.64384 18.2489 7.9517 18.2489 10.54C18.2489 13.1282 18.2489 13.4338 18.1919 14.4554C18.1854 15.0698 18.0728 15.6785 17.8589 16.2546C17.6978 16.6725 17.451 17.0521 17.1345 17.3691C16.818 17.686 16.4387 17.9332 16.021 18.0949C15.4438 18.3078 14.8345 18.4204 14.2194 18.4278C13.1978 18.4734 12.8922 18.4848 10.304 18.4848C7.71575 18.4848 7.41018 18.4734 6.38856 18.4278C5.77347 18.4204 5.16418 18.3078 4.58704 18.0949C4.16933 17.9332 3.79004 17.686 3.47351 17.3691C3.15699 17.0521 2.91022 16.6725 2.74905 16.2546C2.53521 15.6785 2.42257 15.0698 2.4161 14.4554C2.36822 13.4338 2.35909 13.1259 2.35909 10.54C2.35909 7.95398 2.35909 7.64384 2.4161 6.62223C2.42257 6.00778 2.53521 5.39907 2.74905 4.823C2.90452 4.40183 3.1523 4.02081 3.47421 3.70788C3.7875 3.38749 4.16742 3.13992 4.58704 2.98272C5.16418 2.76985 5.77347 2.65725 6.38856 2.64978C7.41018 2.60417 7.71575 2.59277 10.304 2.59277ZM10.304 0.848267C7.67242 0.848267 7.33948 0.848267 6.30874 0.905276C5.50416 0.92337 4.70846 1.07758 3.95537 1.36136C3.31131 1.60996 2.72641 1.99058 2.23824 2.47875C1.75007 2.96692 1.36945 3.55183 1.12084 4.19589C0.836204 4.94794 0.681965 5.74305 0.664761 6.54698C0.616873 7.58228 0.605469 7.91521 0.605469 10.5445C0.605469 13.1738 0.605471 13.509 0.664761 14.5398C0.682327 15.3444 0.83655 16.1402 1.12084 16.8931C1.36996 17.5366 1.75079 18.121 2.23891 18.6087C2.72703 19.0964 3.31168 19.4768 3.95537 19.7254C4.70814 20.0103 5.50404 20.1645 6.30874 20.1815C7.34176 20.2294 7.67698 20.2407 10.304 20.2407C12.931 20.2407 13.2685 20.2294 14.2993 20.1815C15.104 20.1645 15.8999 20.0103 16.6526 19.7254C17.2963 19.4768 17.881 19.0964 18.3691 18.6087C18.8572 18.121 19.238 17.5366 19.4872 16.8931C19.7714 16.1402 19.9257 15.3444 19.9432 14.5398C19.9911 13.5067 20.0025 13.1715 20.0025 10.5445C20.0025 7.91749 20.0025 7.58 19.9432 6.54698C19.926 5.74305 19.7718 4.94794 19.4872 4.19589C19.2386 3.55183 18.8579 2.96692 18.3698 2.47875C17.8816 1.99058 17.2967 1.60996 16.6526 1.36136C15.8995 1.07758 15.1038 0.92337 14.2993 0.905276C13.2662 0.857388 12.931 0.848267 10.304 0.848267Z" fill="white"/>
<path d="M10.3046 5.56216C9.31993 5.56171 8.35725 5.85329 7.5383 6.40002C6.71936 6.94675 6.08094 7.72406 5.70381 8.63365C5.32668 9.54324 5.22777 10.5442 5.4196 11.5101C5.61142 12.4759 6.08535 13.3631 6.78146 14.0595C7.47757 14.7559 8.36458 15.2303 9.3303 15.4226C10.296 15.6148 11.2971 15.5164 12.2068 15.1397C13.1166 14.7629 13.8942 14.1249 14.4413 13.3062C14.9884 12.4875 15.2804 11.5249 15.2804 10.5403C15.2807 9.88665 15.1522 9.23936 14.9023 8.6354C14.6524 8.03144 14.2859 7.48265 13.8239 7.02036C13.3618 6.55807 12.8131 6.19135 12.2093 5.94115C11.6055 5.69095 10.9582 5.56216 10.3046 5.56216ZM10.3046 13.7716C9.66541 13.7716 9.04058 13.582 8.50914 13.2269C7.9777 12.8717 7.56353 12.3669 7.31903 11.7763C7.07453 11.1857 7.01068 10.5359 7.13554 9.90903C7.26041 9.28215 7.56838 8.70639 8.02052 8.25457C8.47266 7.80276 9.04864 7.49518 9.6756 7.37076C10.3026 7.24634 10.9524 7.31066 11.5428 7.55558C12.1332 7.8005 12.6377 8.21501 12.9925 8.7467C13.3472 9.27839 13.5364 9.90336 13.5359 10.5425C13.5347 11.3988 13.1937 12.2195 12.5879 12.8245C11.982 13.4295 11.1608 13.7693 10.3046 13.7693V13.7716Z" fill="white"/>
<path d="M15.4775 6.52852C16.1198 6.52852 16.6405 6.00783 16.6405 5.36552C16.6405 4.72321 16.1198 4.20251 15.4775 4.20251C14.8351 4.20251 14.3145 4.72321 14.3145 5.36552C14.3145 6.00783 14.8351 6.52852 15.4775 6.52852Z" fill="white"/>
</svg>
