<svg width="23" height="23" viewBox="0 0 23 23" fill="none" xmlns="http://www.w3.org/2000/svg">
<path d="M18.548 4.72144C15.8294 2.01204 11.4209 2.01204 8.72066 4.72144C6.81949 6.60424 6.25005 9.31364 6.9848 11.7016L2.66814 16.0182C2.36505 16.3305 2.15381 16.9459 2.2181 17.3867L2.49364 19.3889C2.59466 20.0502 3.21002 20.6747 3.87129 20.7666L5.87349 21.0421C6.31434 21.1064 6.9297 20.9043 7.24197 20.5829L7.99509 19.8298C8.17878 19.6553 8.17878 19.3614 7.99509 19.1777L6.21332 17.3959C5.94697 17.1296 5.94697 16.6887 6.21332 16.4224C6.47966 16.156 6.92051 16.156 7.18686 16.4224L8.97782 18.2133C9.15232 18.3878 9.44622 18.3878 9.62073 18.2133L11.5678 16.2754C13.9466 17.0193 16.656 16.4407 18.548 14.5579C21.2574 11.8485 21.2574 7.43084 18.548 4.72144ZM13.6894 11.8669C12.422 11.8669 11.3933 10.8382 11.3933 9.5708C11.3933 8.30335 12.422 7.2747 13.6894 7.2747C14.9569 7.2747 15.9855 8.30335 15.9855 9.5708C15.9855 10.8382 14.9569 11.8669 13.6894 11.8669Z" fill="#B0B0B0"/>
</svg>
