<svg width="20" height="19" viewBox="0 0 20 19" fill="none" xmlns="http://www.w3.org/2000/svg">
<path d="M10.9894 8.12366C11.2426 7.83861 11.4455 7.549 11.71 7.305C12.0853 6.93918 12.5296 6.65161 13.017 6.459C13.5044 6.26639 14.0252 6.17258 14.5491 6.18304C15.153 6.17264 15.7553 6.24554 16.3392 6.39968C17.6756 6.78735 18.4509 7.70635 18.8226 9.01073C19.069 9.98824 19.1802 10.9949 19.1533 12.0026C19.1533 14.1302 19.1533 16.2555 19.1533 18.3877C19.1533 18.5861 19.0985 18.6386 18.9024 18.6363C17.8048 18.6272 16.7094 18.6272 15.6164 18.6363C15.4225 18.6363 15.3883 18.5793 15.3883 18.4082C15.3883 16.3848 15.3883 14.3613 15.3883 12.3378C15.3997 11.8295 15.3399 11.3222 15.2105 10.8305C14.9482 9.91833 14.2983 9.46225 13.3474 9.51014C12.0498 9.57855 11.3725 10.2239 11.2084 11.5443C11.1681 11.8589 11.1483 12.1757 11.1491 12.4929C11.1491 14.4609 11.1491 16.4289 11.1491 18.3968C11.1491 18.593 11.0989 18.65 10.8982 18.6477C9.79679 18.6477 8.69308 18.6477 7.58937 18.6477C7.4115 18.6477 7.36133 18.6021 7.36133 18.4196C7.36133 14.5247 7.36133 10.6291 7.36133 6.73262C7.36133 6.53879 7.4229 6.50458 7.60533 6.50458C8.65431 6.5137 9.70254 6.5137 10.75 6.50458C10.9416 6.50458 10.9917 6.56615 10.978 6.74858C10.9826 7.19098 10.9894 7.65618 10.9894 8.12366Z" fill="#FEFEFE"/>
<path d="M4.98695 12.5749C4.98695 14.5018 4.98695 16.4288 4.98695 18.3557C4.98695 18.5701 4.9345 18.6362 4.7133 18.6339C3.61643 18.6202 2.52185 18.6339 1.42726 18.6339C1.25167 18.6339 1.19922 18.5906 1.19922 18.4059C1.19922 14.5018 1.19922 10.5993 1.19922 6.69833C1.19922 6.53642 1.24026 6.47029 1.41129 6.48169C2.52185 6.48169 3.6324 6.48169 4.74295 6.48169C4.95731 6.48169 4.98467 6.5615 4.98467 6.74622C4.98315 8.68911 4.98391 10.632 4.98695 12.5749Z" fill="#FEFEFE"/>
<path d="M5.28784 2.61681C5.2901 3.05001 5.16364 3.47413 4.92451 3.83536C4.68539 4.19659 4.34436 4.47865 3.94469 4.64579C3.54503 4.81293 3.10474 4.8576 2.67965 4.77414C2.25456 4.69068 1.86382 4.48285 1.55702 4.17701C1.25021 3.87117 1.04116 3.4811 0.956366 3.05627C0.871572 2.63145 0.91486 2.191 1.08074 1.79082C1.24662 1.39063 1.52763 1.04872 1.88811 0.80846C2.24858 0.568202 2.67229 0.440422 3.1055 0.441319C3.68219 0.444297 4.23451 0.674239 4.64294 1.08139C5.05137 1.48853 5.28305 2.04013 5.28784 2.61681Z" fill="#FEFEFE"/>
</svg>
