<svg width="28" height="28" viewBox="0 0 28 28" fill="none" xmlns="http://www.w3.org/2000/svg">
<path d="M7 11.6668V9.3335C7 5.47183 8.16667 2.3335 14 2.3335C19.8333 2.3335 21 5.47183 21 9.3335V11.6668" stroke="#08A8E4" stroke-width="1.5" stroke-linecap="round" stroke-linejoin="round"/>
<path d="M13.9997 21.5833C15.6105 21.5833 16.9163 20.2775 16.9163 18.6667C16.9163 17.0558 15.6105 15.75 13.9997 15.75C12.3888 15.75 11.083 17.0558 11.083 18.6667C11.083 20.2775 12.3888 21.5833 13.9997 21.5833Z" stroke="#08A8E4" stroke-width="1.5" stroke-linecap="round" stroke-linejoin="round"/>
<path d="M19.833 25.6665H8.16634C3.49967 25.6665 2.33301 24.4998 2.33301 19.8332V17.4998C2.33301 12.8332 3.49967 11.6665 8.16634 11.6665H19.833C24.4997 11.6665 25.6663 12.8332 25.6663 17.4998V19.8332C25.6663 24.4998 24.4997 25.6665 19.833 25.6665Z" stroke="#08A8E4" stroke-width="1.5" stroke-linecap="round" stroke-linejoin="round"/>
</svg>
