<svg width="28" height="28" viewBox="0 0 28 28" fill="none" xmlns="http://www.w3.org/2000/svg">
<path d="M25.6313 21.3852C25.6313 21.8052 25.538 22.2368 25.3397 22.6568C25.1413 23.0768 24.8847 23.4735 24.5463 23.8468C23.9747 24.4768 23.3447 24.9318 22.633 25.2235C21.933 25.5152 21.1747 25.6668 20.358 25.6668C19.168 25.6668 17.8963 25.3868 16.5547 24.8152C15.213 24.2435 13.8713 23.4735 12.5413 22.5052C11.1997 21.5252 9.92801 20.4402 8.71467 19.2385C7.51301 18.0252 6.42801 16.7535 5.45967 15.4235C4.50301 14.0935 3.73301 12.7635 3.17301 11.4452C2.61301 10.1152 2.33301 8.8435 2.33301 7.63016C2.33301 6.83683 2.47301 6.0785 2.75301 5.3785C3.03301 4.66683 3.47634 4.0135 4.09467 3.43016C4.84134 2.69516 5.65801 2.3335 6.52134 2.3335C6.84801 2.3335 7.17467 2.4035 7.46634 2.5435C7.76967 2.6835 8.03801 2.8935 8.24801 3.19683L10.9547 7.01183C11.1647 7.3035 11.3163 7.57183 11.4213 7.8285C11.5263 8.0735 11.5847 8.3185 11.5847 8.54016C11.5847 8.82016 11.503 9.10016 11.3397 9.3685C11.188 9.63683 10.9663 9.91683 10.6863 10.1968L9.79967 11.1185C9.67134 11.2468 9.61301 11.3985 9.61301 11.5852C9.61301 11.6785 9.62467 11.7602 9.64801 11.8535C9.68301 11.9468 9.71801 12.0168 9.74134 12.0868C9.95134 12.4718 10.313 12.9735 10.8263 13.5802C11.3513 14.1868 11.9113 14.8052 12.518 15.4235C13.148 16.0418 13.7547 16.6135 14.373 17.1385C14.9797 17.6518 15.4813 18.0018 15.878 18.2118C15.9363 18.2352 16.0063 18.2702 16.088 18.3052C16.1813 18.3402 16.2747 18.3518 16.3797 18.3518C16.578 18.3518 16.7297 18.2818 16.858 18.1535L17.7447 17.2785C18.0363 16.9868 18.3163 16.7652 18.5847 16.6252C18.853 16.4618 19.1213 16.3802 19.413 16.3802C19.6347 16.3802 19.868 16.4268 20.1247 16.5318C20.3813 16.6368 20.6497 16.7885 20.9413 16.9868L24.803 19.7285C25.1063 19.9385 25.3163 20.1835 25.4447 20.4752C25.5613 20.7668 25.6313 21.0585 25.6313 21.3852Z" stroke="#08A8E4" stroke-width="1.5" stroke-miterlimit="10"/>
</svg>
