<svg width="357" height="336" viewBox="0 0 357 336" fill="none" xmlns="http://www.w3.org/2000/svg">
<g clip-path="url(#clip0_663_931)">
<path d="M178.496 336.009C277.077 336.009 356.992 289.868 356.992 232.95C356.992 176.033 277.077 129.892 178.496 129.892C79.9155 129.892 0 176.033 0 232.95C0 289.868 79.9155 336.009 178.496 336.009Z" fill="#F5F5F5"/>
<path d="M296.197 283.489C324.163 283.489 346.835 270.399 346.835 254.251C346.835 238.104 324.163 225.014 296.197 225.014C268.23 225.014 245.559 238.104 245.559 254.251C245.559 270.399 268.23 283.489 296.197 283.489Z" fill="#E0E0E0"/>
<path d="M168.035 270.023L110.918 237.031L176.205 199.335L233.337 232.32L168.035 270.023Z" fill="#E0E0E0"/>
<path d="M12.4863 259.82L86.1637 302.356L147.961 266.685L74.2913 224.149L12.4863 259.82Z" fill="#E0E0E0"/>
<path d="M228.687 98.9241L186.5 74.5799C186.173 74.3457 185.791 74.202 185.391 74.1634C184.992 74.1248 184.589 74.1926 184.224 74.3599L181.189 76.1124C180.856 76.3447 180.59 76.6621 180.421 77.0316C180.252 77.4012 180.184 77.8093 180.226 78.2137V193.684C180.288 194.809 180.614 195.903 181.178 196.879C181.742 197.854 182.528 198.683 183.473 199.297L225.652 223.611C225.978 223.847 226.36 223.992 226.759 224.032C227.159 224.072 227.562 224.005 227.928 223.839L230.963 222.079C231.292 221.845 231.554 221.528 231.72 221.16C231.887 220.792 231.953 220.387 231.911 219.985V104.538C231.852 103.415 231.529 102.321 230.969 101.346C230.409 100.371 229.627 99.5409 228.687 98.9241Z" fill="#054F6B"/>
<path d="M189.314 195.664L186.279 197.416V207.02C186.295 207.301 186.376 207.575 186.517 207.819C186.658 208.063 186.855 208.27 187.091 208.424L188.51 209.243C188.761 209.37 189.039 209.437 189.321 209.437C189.603 209.437 189.881 209.37 190.133 209.243L191.552 208.424C192.056 208.098 192.446 207.623 192.667 207.066L195.406 199.176L189.314 195.664Z" fill="#054F6B"/>
<path d="M186.279 207.02C186.295 207.301 186.376 207.575 186.517 207.819C186.658 208.063 186.855 208.27 187.091 208.424L188.51 209.243C188.608 209.302 188.718 209.339 188.832 209.349C188.946 209.36 189.061 209.345 189.168 209.304C189.276 209.264 189.372 209.2 189.451 209.117C189.531 209.035 189.59 208.935 189.625 208.826L192.348 200.928L186.279 197.416V207.02Z" fill="#067CA9"/>
<path d="M219.75 213.18L216.716 214.94V224.537C216.73 224.819 216.81 225.093 216.949 225.338C217.089 225.583 217.285 225.792 217.52 225.948L218.946 226.767C219.196 226.894 219.473 226.961 219.754 226.961C220.035 226.961 220.312 226.894 220.562 226.767L221.988 225.948C222.492 225.622 222.882 225.148 223.103 224.59L225.834 216.693L219.75 213.18Z" fill="#054F6B"/>
<path d="M216.716 224.537C216.73 224.819 216.81 225.093 216.949 225.338C217.089 225.584 217.285 225.792 217.52 225.948L218.946 226.767C219.044 226.827 219.154 226.863 219.268 226.874C219.383 226.884 219.498 226.869 219.605 226.829C219.712 226.789 219.809 226.725 219.888 226.642C219.967 226.559 220.026 226.459 220.061 226.35L222.8 218.453L216.731 214.94L216.716 224.537Z" fill="#067CA9"/>
<path d="M183.669 76.4239L225.849 100.7C226.793 101.316 227.579 102.146 228.143 103.123C228.707 104.099 229.034 105.195 229.096 106.321V221.791C229.176 222.197 229.127 222.617 228.956 222.994C228.785 223.37 228.501 223.684 228.143 223.89C227.785 224.097 227.371 224.186 226.96 224.146C226.548 224.105 226.16 223.937 225.849 223.665L183.669 199.343C182.726 198.728 181.941 197.899 181.378 196.924C180.815 195.949 180.491 194.854 180.43 193.73V78.2901C180.349 77.8853 180.397 77.4651 180.567 77.089C180.738 76.7128 181.022 76.3996 181.379 76.1935C181.737 75.9874 182.151 75.8988 182.561 75.9401C182.972 75.9814 183.36 76.1506 183.669 76.4239Z" fill="#067CA9"/>
<path d="M122.418 234.255L168.042 260.594L231.917 223.718L228.875 221.965L183.252 195.618L122.418 230.742V234.255Z" fill="#067CA9"/>
<path d="M168.041 260.594V257.082L231.917 220.205V223.718L168.041 260.594Z" fill="#054F6B"/>
<path d="M225.833 185.081L225.841 188.593L168.042 221.965L122.418 195.618V192.106L180.21 158.742L225.833 185.081Z" fill="#054F6B"/>
<path d="M225.833 185.081L168.042 218.453L122.418 192.106L180.21 158.742L225.833 185.081Z" fill="#067CA9"/>
<path d="M225.833 146.452L225.841 149.957L168.042 183.329L122.418 156.989V153.477L180.21 120.105L225.833 146.452Z" fill="#054F6B"/>
<path d="M225.833 146.452L168.042 179.816L122.418 153.477L180.21 120.105L225.833 146.452Z" fill="#067CA9"/>
<path d="M167.845 134.003L125.665 109.689C125.34 109.454 124.958 109.309 124.558 109.269C124.158 109.229 123.755 109.295 123.39 109.461C122.843 109.773 120.901 110.903 120.355 111.214C120.023 111.447 119.759 111.765 119.591 112.134C119.423 112.504 119.357 112.912 119.399 113.315V228.755C119.461 229.88 119.787 230.974 120.352 231.95C120.916 232.925 121.702 233.754 122.646 234.369L164.826 258.69C165.151 258.925 165.533 259.071 165.933 259.111C166.333 259.15 166.736 259.084 167.101 258.918C167.648 258.599 169.605 257.476 170.136 257.15C170.47 256.919 170.736 256.604 170.907 256.235C171.077 255.867 171.146 255.46 171.107 255.056V139.624C171.044 138.497 170.716 137.4 170.15 136.423C169.583 135.446 168.793 134.617 167.845 134.003Z" fill="#054F6B"/>
<path opacity="0.2" d="M168.042 151.724L171.091 149.964V139.419L168.034 141.179L168.042 151.724Z" fill="black"/>
<path opacity="0.2" d="M228.891 116.6L231.933 114.848V104.303L228.876 106.063L228.891 116.6Z" fill="black"/>
<path d="M128.502 230.742L125.468 232.495V242.099C125.483 242.38 125.565 242.654 125.706 242.898C125.847 243.141 126.043 243.349 126.28 243.502L127.698 244.322C127.95 244.449 128.228 244.515 128.51 244.515C128.792 244.515 129.07 244.449 129.322 244.322L130.74 243.502C131.242 243.178 131.632 242.706 131.855 242.152L134.594 234.255L128.502 230.742Z" fill="#054F6B"/>
<path d="M125.46 242.099C125.475 242.38 125.557 242.654 125.698 242.898C125.839 243.142 126.036 243.349 126.272 243.502L127.69 244.322C127.788 244.381 127.899 244.417 128.013 244.428C128.127 244.439 128.242 244.423 128.349 244.383C128.456 244.343 128.553 244.279 128.632 244.196C128.711 244.113 128.77 244.013 128.805 243.904L131.544 236.007L125.475 232.495L125.46 242.099Z" fill="#067CA9"/>
<path d="M158.915 248.304L155.881 250.057V259.661C155.895 259.942 155.975 260.215 156.115 260.459C156.254 260.703 156.45 260.91 156.685 261.064L158.111 261.884C158.362 262.011 158.638 262.077 158.919 262.077C159.2 262.077 159.477 262.011 159.727 261.884L161.153 261.064C161.653 260.738 162.042 260.267 162.268 259.714L165 251.817L158.915 248.304Z" fill="#054F6B"/>
<path d="M155.881 259.623C155.895 259.904 155.975 260.177 156.115 260.421C156.254 260.665 156.45 260.873 156.685 261.027L158.111 261.846C158.209 261.905 158.319 261.942 158.433 261.952C158.548 261.963 158.663 261.948 158.77 261.907C158.877 261.867 158.974 261.803 159.053 261.72C159.132 261.638 159.191 261.538 159.226 261.429L161.957 253.531L155.888 250.019L155.881 259.623Z" fill="#067CA9"/>
<path d="M122.616 111.449L164.803 135.763C165.746 136.379 166.531 137.21 167.094 138.186C167.657 139.163 167.981 140.258 168.042 141.384V260.594C168.042 260.594 165.698 259.206 164.803 258.69L122.623 234.368C121.679 233.754 120.893 232.925 120.329 231.95C119.765 230.974 119.438 229.88 119.376 228.755V113.315C119.295 112.91 119.343 112.49 119.514 112.114C119.684 111.738 119.968 111.425 120.326 111.218C120.683 111.012 121.097 110.924 121.508 110.965C121.919 111.006 122.306 111.176 122.616 111.449Z" fill="#067CA9"/>
<path opacity="0.2" d="M164.803 135.763L122.616 111.449C122.306 111.176 121.919 111.006 121.508 110.965C121.097 110.924 120.683 111.012 120.326 111.218C119.968 111.425 119.684 111.738 119.514 112.114C119.343 112.49 119.295 112.91 119.376 113.315V123.625L168.042 151.694V141.384C167.981 140.258 167.657 139.163 167.094 138.186C166.531 137.21 165.746 136.379 164.803 135.763Z" fill="black"/>
<path d="M237.547 97.5973L237.57 97.61L237.593 97.6204C237.881 97.7496 238.129 97.9532 238.312 98.2101C238.491 98.4615 238.602 98.755 238.633 99.0618V102.527C238.602 102.834 238.491 103.127 238.312 103.378L238.719 103.669L238.312 103.378C238.129 103.635 237.881 103.839 237.593 103.968L237.57 103.979L237.547 103.991L168.008 144.138C167.077 144.611 166.048 144.857 165.004 144.857C163.96 144.857 162.93 144.611 161.999 144.138L116.789 118.041L116.767 118.028L116.744 118.018C116.456 117.889 116.208 117.685 116.025 117.428L115.617 117.718L116.025 117.428C115.846 117.177 115.735 116.883 115.704 116.576V113.111C115.735 112.805 115.846 112.511 116.025 112.26L115.617 111.97L116.025 112.26C116.208 112.003 116.456 111.799 116.744 111.67L116.767 111.66L116.789 111.647L186.328 71.4925C187.26 71.0233 188.289 70.7788 189.333 70.7788C190.377 70.7788 191.406 71.0233 192.338 71.4925L237.547 97.5973Z" fill="#067CA9" stroke="black"/>
<path d="M116.789 111.647L116.789 111.647L186.327 71.4925C187.26 71.0233 188.289 70.7788 189.333 70.7788C190.376 70.7788 191.406 71.0233 192.338 71.4925L237.547 97.5971C237.547 97.5972 237.547 97.5972 237.547 97.5973C238.356 98.0651 238.646 98.6037 238.646 99.0381C238.646 99.4724 238.356 100.011 237.547 100.479L168.008 140.626C167.077 141.099 166.048 141.345 165.004 141.345C163.959 141.345 162.93 141.099 161.999 140.626L116.79 114.529C116.79 114.529 116.79 114.529 116.79 114.529C115.985 114.062 115.696 113.522 115.696 113.085C115.696 112.648 115.985 112.11 116.789 111.647Z" fill="#067CA9" stroke="black"/>
<path opacity="0.1" d="M228.876 109.575L207.589 135.915L171.092 156.989L171.084 142.939L228.876 109.575Z" fill="black"/>
<path opacity="0.1" d="M225.842 149.957L207.589 174.551L171.092 195.626V181.568L225.842 149.957Z" fill="black"/>
<path opacity="0.1" d="M225.842 188.593L207.589 213.18L171.092 234.262V220.205L225.842 188.593Z" fill="black"/>
<path d="M142.12 265.328L86.1567 297.638L23.1455 261.178L79.1015 228.869L142.12 265.328Z" fill="#8EE0FF"/>
<path opacity="0.5" d="M142.12 265.328L86.1567 297.638L23.1455 261.178L79.1015 228.869L142.12 265.328Z" fill="black"/>
<path d="M79.1015 185.073V228.868L23.1455 261.178V217.383L79.1015 185.073Z" fill="#8EE0FF"/>
<path opacity="0.23" d="M79.1015 185.073V228.868L23.1455 261.178V217.383L79.1015 185.073Z" fill="black"/>
<path d="M86.1567 253.842V297.637L23.1455 261.178V217.383L86.1567 253.842Z" fill="#8EE0FF"/>
<path opacity="0.38" d="M86.1567 253.842V297.637L23.1455 261.178V217.383L86.1567 253.842Z" fill="black"/>
<path d="M142.12 221.533V265.328L79.1016 228.868V185.073L142.12 221.533Z" fill="#8EE0FF"/>
<path opacity="0.4" d="M142.12 221.533V265.328L79.1016 228.868V185.073L142.12 221.533Z" fill="black"/>
<path d="M142.121 265.328V221.533L86.1572 253.842V297.638L142.121 265.328Z" fill="#8EE0FF"/>
<path opacity="0.23" d="M142.121 265.328V221.533L86.1572 253.842V297.638L142.121 265.328Z" fill="black"/>
<path d="M79.1016 185.073L79.185 160.828L142.037 197.34L142.12 221.533L79.1016 185.073Z" fill="#8EE0FF"/>
<path opacity="0.2" d="M79.1016 185.073L79.185 160.828L142.037 197.34L142.12 221.533L79.1016 185.073Z" fill="black"/>
<path d="M86.1572 253.843L91.4069 232.632L146.855 200.618L142.121 221.533L86.1572 253.843Z" fill="#8EE0FF"/>
<path opacity="0.3" d="M86.1572 253.843L91.4069 232.632L146.855 200.618L142.121 221.533L86.1572 253.843Z" fill="black"/>
<path d="M23.1456 217.383L16.4697 195.383L72.4257 163.081L79.1016 185.074L23.1456 217.383Z" fill="#8EE0FF"/>
<path opacity="0.1" d="M23.1456 217.383L16.4697 195.383L72.4257 163.081L79.1016 185.074L23.1456 217.383Z" fill="black"/>
<path d="M23.1455 217.383L9.9834 199.199L73.0021 235.659L86.1567 253.843L23.1455 217.383Z" fill="#8EE0FF"/>
<path opacity="0.45" d="M23.1455 217.383L9.9834 199.199L73.0021 235.659L86.1567 253.843L23.1455 217.383Z" fill="black"/>
<g opacity="0.7">
<path d="M102.634 284.612C102.543 284.612 102.455 284.577 102.39 284.513C102.325 284.449 102.287 284.362 102.285 284.271V276.563C102.287 276.471 102.324 276.384 102.39 276.319C102.455 276.254 102.542 276.216 102.634 276.214C102.725 276.216 102.812 276.254 102.876 276.319C102.94 276.384 102.976 276.472 102.976 276.563V284.271C102.976 284.361 102.94 284.448 102.876 284.512C102.811 284.576 102.725 284.612 102.634 284.612Z" fill="white"/>
<path d="M101.625 279.234C101.58 279.241 101.534 279.241 101.488 279.234C101.406 279.195 101.341 279.127 101.307 279.042C101.273 278.958 101.273 278.863 101.306 278.778L102.535 275.949L103.901 277.527C103.95 277.597 103.971 277.683 103.96 277.769C103.949 277.854 103.908 277.932 103.843 277.989C103.778 278.045 103.695 278.075 103.609 278.074C103.523 278.073 103.441 278.04 103.377 277.982L102.733 277.223L101.974 279.044C101.941 279.107 101.89 279.158 101.828 279.192C101.766 279.226 101.695 279.24 101.625 279.234Z" fill="white"/>
<path d="M105.813 282.799C105.722 282.797 105.635 282.759 105.571 282.694C105.507 282.629 105.472 282.541 105.472 282.45V274.75C105.472 274.66 105.508 274.573 105.572 274.509C105.636 274.445 105.723 274.409 105.813 274.409C105.904 274.409 105.99 274.445 106.054 274.509C106.118 274.573 106.154 274.66 106.154 274.75V282.442C106.155 282.488 106.147 282.534 106.131 282.577C106.114 282.619 106.089 282.658 106.058 282.691C106.026 282.725 105.988 282.751 105.946 282.77C105.904 282.788 105.859 282.798 105.813 282.799Z" fill="white"/>
<path d="M104.804 277.42C104.759 277.428 104.713 277.428 104.667 277.42C104.626 277.402 104.588 277.376 104.557 277.343C104.525 277.311 104.501 277.272 104.485 277.229C104.468 277.187 104.461 277.142 104.462 277.097C104.464 277.051 104.474 277.007 104.493 276.965L105.714 274.098L107.08 275.668C107.143 275.733 107.178 275.82 107.178 275.911C107.178 276.001 107.143 276.088 107.08 276.154C107.048 276.186 107.01 276.211 106.969 276.229C106.927 276.246 106.882 276.255 106.837 276.255C106.792 276.255 106.747 276.246 106.705 276.229C106.664 276.211 106.626 276.186 106.594 276.154L105.949 275.395L105.191 277.216C105.159 277.289 105.104 277.349 105.033 277.386C104.963 277.423 104.882 277.436 104.804 277.42Z" fill="white"/>
</g>
<g opacity="0.7">
<path d="M93.4613 289.839C93.3306 289.842 93.2018 289.807 93.0896 289.74C92.9518 289.655 92.8401 289.533 92.7666 289.389C92.693 289.245 92.6604 289.083 92.6723 288.921V287.973C92.6743 287.882 92.7119 287.795 92.7772 287.731C92.8424 287.667 92.93 287.631 93.0213 287.631C93.1118 287.631 93.1987 287.667 93.2627 287.731C93.3267 287.795 93.3627 287.882 93.3627 287.973V288.921C93.3627 289.058 93.3627 289.133 93.4309 289.149C93.4992 289.164 93.5371 289.149 93.6509 289.088C93.8644 288.891 94.0327 288.65 94.144 288.381C94.2553 288.113 94.3071 287.823 94.2958 287.533V283.588C94.2958 283.497 94.3317 283.411 94.3958 283.347C94.4598 283.283 94.5466 283.247 94.6371 283.247C94.7277 283.247 94.8145 283.283 94.8785 283.347C94.9426 283.411 94.9785 283.497 94.9785 283.588V287.533C94.9955 287.942 94.9157 288.35 94.7457 288.723C94.5757 289.096 94.3202 289.424 93.9999 289.68C93.8378 289.78 93.6518 289.835 93.4613 289.839Z" fill="white"/>
<path d="M89.8428 286.66V286.068C89.9329 284.549 90.3771 283.072 91.1397 281.755C91.9024 280.438 92.9624 279.317 94.2352 278.482C95.4793 277.769 96.6628 277.663 97.5731 278.194C98.0587 278.527 98.4458 278.984 98.6941 279.518C98.9423 280.052 99.0425 280.643 98.9842 281.228V281.426L89.8428 286.66ZM96.2986 278.513C95.6912 278.541 95.101 278.723 94.5842 279.044C93.4935 279.761 92.57 280.705 91.8762 281.811C91.1825 282.917 90.7348 284.16 90.5635 285.454L98.2786 280.993C98.3116 280.554 98.2304 280.114 98.043 279.715C97.8556 279.316 97.5683 278.972 97.209 278.717C96.9287 278.571 96.6148 278.5 96.2986 278.513Z" fill="white"/>
</g>
<path opacity="0.7" d="M9.9834 199.199L73.0021 235.659L86.1567 253.843L72.2966 236.303L9.9834 199.199Z" fill="white"/>
<path opacity="0.7" d="M142.121 221.533L86.1572 253.842V297.638L87.2041 254.722L142.121 221.533Z" fill="white"/>
<path d="M59.999 204.016C65.7721 203.182 71.0445 199.464 74.4128 194.791C75.9836 192.608 77.1406 190.155 77.8266 187.554C78.555 185.122 78.6749 182.548 78.1755 180.059C77.1362 175.894 73.2824 173.428 69.2086 172.913C67.1415 172.641 65.0395 172.846 63.0638 173.512C61.0152 174.215 59.238 175.541 57.981 177.305C57.1929 178.245 56.6971 179.394 56.5548 180.613C56.5427 181.09 56.7109 181.554 57.0259 181.912C57.3408 182.271 57.7794 182.498 58.2541 182.547C59.4757 182.65 60.6964 182.34 61.721 181.667C62.9704 180.966 64.0708 180.028 64.9603 178.906C66.8685 176.551 68.2964 173.844 69.1631 170.94C69.7713 168.448 69.7713 165.846 69.1631 163.354C68.7011 160.747 67.5095 158.324 65.7265 156.367C63.6826 154.508 61.0887 153.366 58.3376 153.112C55.5995 152.736 52.8115 152.996 50.19 153.871C49.0385 154.22 47.9717 154.804 47.0569 155.586C46.4044 156.192 45.661 157.194 45.9265 158.18C46.192 159.166 47.6334 159.606 48.612 159.477C50.0604 159.206 51.3871 158.487 52.4051 157.421C53.5397 156.305 54.5034 155.026 55.2652 153.628C55.8311 152.624 56.1265 151.489 56.1224 150.336C56.0238 145.526 50.7058 142.416 46.541 141.536C45.4167 141.301 44.2651 141.224 43.1196 141.308C42.7327 141.308 42.9679 141.946 43.2789 141.923C45.5201 141.821 47.7474 142.324 49.7272 143.379C51.6805 144.277 53.321 145.738 54.4383 147.575C54.9362 148.48 55.1819 149.502 55.1499 150.535C55.1179 151.568 54.8092 152.573 54.2562 153.446C53.5134 154.74 52.5885 155.92 51.51 156.951C50.6072 157.77 49.2341 158.719 47.9672 158.628C47.758 158.627 47.5532 158.568 47.3762 158.457C47.1991 158.345 47.0569 158.186 46.9658 157.998C46.9276 157.749 46.9482 157.494 47.0259 157.255C47.1036 157.015 47.2363 156.797 47.4134 156.617C48.0833 155.896 48.9118 155.34 49.8334 154.994C52.1093 154.048 54.5737 153.643 57.0327 153.81C59.5669 153.856 62.0314 154.648 64.1183 156.086C65.9363 157.596 67.2274 159.644 67.8052 161.935C68.5371 164.263 68.7647 166.72 68.4728 169.142C68.0222 171.58 67.0857 173.902 65.719 175.97C64.3155 178.291 62.5555 180.521 59.9155 181.432C59.2631 181.667 57.8976 182.008 57.6396 181.06C57.3817 180.112 58.1252 178.944 58.6031 178.208C59.6599 176.544 61.2007 175.245 63.0183 174.483C64.7721 173.78 66.6654 173.494 68.5486 173.648C72.1217 173.914 75.748 175.78 76.9921 179.33C77.6162 181.452 77.6841 183.699 77.1893 185.855C76.743 188.217 75.8936 190.486 74.6783 192.561C72.0641 196.969 68.1049 200.423 63.3824 202.415C62.2596 202.901 61.1065 203.311 59.9307 203.69C59.8093 203.735 59.8624 204.039 59.999 204.016Z" fill="#E0E0E0"/>
<path d="M35.8825 138.153C32.848 137.933 28.668 140.322 30.1549 142.067C31.6418 143.812 35.5866 140.99 35.5866 140.99C35.5866 140.99 35.2149 144.518 36.5046 144.92C37.7942 145.322 39.539 141.953 38.2494 139.799C38.8713 140.044 39.5452 140.128 40.2083 140.043C40.8714 139.958 41.5024 139.707 42.0425 139.313C43.8784 137.963 41.9363 136.689 39.3494 136.916C39.3494 136.916 41.2004 130.847 37.4604 132.008C35.5866 132.577 34.9266 134.769 35.8825 138.153Z" fill="#8EE0FF"/>
<path opacity="0.65" d="M35.8825 138.153C32.848 137.933 28.668 140.322 30.1549 142.067C31.6418 143.812 35.5866 140.99 35.5866 140.99C35.5866 140.99 35.2149 144.518 36.5046 144.92C37.7942 145.322 39.539 141.953 38.2494 139.799C38.8713 140.044 39.5452 140.128 40.2083 140.043C40.8714 139.958 41.5024 139.707 42.0425 139.313C43.8784 137.963 41.9363 136.689 39.3494 136.916C39.3494 136.916 41.2004 130.847 37.4604 132.008C35.5866 132.577 34.9266 134.769 35.8825 138.153Z" fill="white"/>
<path d="M38.7053 139.442C38.5374 139.278 38.36 139.123 38.1742 138.98C37.9087 138.775 37.628 138.577 37.3625 138.38C37.104 138.192 36.8328 138.022 36.5508 137.872C36.3885 137.782 36.2213 137.701 36.0501 137.629C35.8137 137.518 35.5507 137.476 35.2915 137.508C35.2235 137.51 35.1573 137.53 35.0998 137.566C35.0424 137.602 34.9957 137.653 34.9646 137.714C34.9336 137.774 34.9194 137.842 34.9235 137.91C34.9277 137.978 34.9499 138.043 34.988 138.1C35.1966 138.325 35.4569 138.497 35.7466 138.6L36.1563 138.82C36.437 138.987 36.6873 139.177 36.9149 139.366C37.1425 139.556 37.4459 139.738 37.6735 139.928C38.0649 140.245 38.5023 140.501 38.9708 140.686C38.9918 140.698 39.0152 140.704 39.0391 140.704C39.0629 140.704 39.0863 140.698 39.1073 140.686C39.4942 140.383 38.9253 139.662 38.7053 139.442Z" fill="#067CA9"/>
<path d="M280.561 54.6971C277.246 59.1578 272.808 83.684 271.131 91.5509C263.067 91.3158 252.28 90.9365 248.198 90.5116C243.646 90.0337 233.929 89.1006 229.157 89.753C217.315 91.2703 217.777 99.0537 218.066 101.087C218.377 103.408 220.038 104.47 226.411 103.021C227.837 102.708 229.29 102.538 230.75 102.513C231.364 102.513 232.662 102.202 233.147 102.725C233.906 103.484 231.713 104.759 231.167 105.108C230.325 105.654 229.445 106.344 229.271 107.33C229.221 107.511 229.223 107.701 229.278 107.88C229.334 108.059 229.439 108.218 229.582 108.339C229.89 108.465 230.236 108.465 230.545 108.339C233.454 107.649 236.259 106.58 238.89 105.161C239.882 104.563 240.925 104.055 242.008 103.643C243.654 103.112 245.353 103.423 247.007 103.423C250.565 103.423 269.371 105.29 277.731 106.139C283.52 106.723 284.134 101.011 286.129 95.2227C288.58 88.0461 294.383 50.3047 294.383 50.3047C288.527 49.455 284.506 49.4019 280.561 54.6971Z" fill="#FFA8A7"/>
<path d="M294.474 49.7129C291.675 49.197 285.371 48.4156 281.942 52.2467C278.513 56.0777 277.701 60.0984 276.191 65.9019C274.682 71.7053 272.004 82.0985 272.004 82.0985C272.004 82.0985 276.427 88.4481 290.272 86.6502L294.474 49.7129Z" fill="#067CA9"/>
<path d="M329.241 250.308L319.508 250.315L316.709 229.188L328.991 228.702L329.241 250.308Z" fill="#FFA8A7"/>
<path d="M296.925 239.755C295.271 242.63 289.953 242.395 285.545 241.379L285.037 220.608L298.047 220.092L296.925 239.755Z" fill="#FFA8A7"/>
<path d="M328.582 116.805C328.931 125.795 327.74 178.951 327.74 178.951C328.066 181.531 330.736 186.029 331.29 195.337C332.102 208.856 329.348 237.684 329.348 237.684C329.348 237.684 323.772 240.597 317.764 238.366C317.764 238.366 311.649 196.642 309.419 183.306C307.492 171.699 305.019 140.565 305.019 140.565L300.217 180.468C301.097 185.192 301.461 189.997 301.302 194.799C301.104 201.004 297.569 231.137 297.569 231.137C293.536 232.456 289.204 232.559 285.113 231.433C285.113 231.433 282.215 184.671 281.881 179.004C281.502 172.541 281.759 115.485 281.759 115.485L328.582 116.805Z" fill="#8EE0FF"/>
<path opacity="0.2" d="M305.034 140.58C305.034 140.58 296.53 138.168 290.734 132.994C290.734 132.994 293.45 137.629 301.143 141.741L300.703 176.569L305.034 140.58Z" fill="black"/>
<path d="M308.418 267.93C308.107 268.249 308.289 270.35 308.668 270.897C309.047 271.443 311.369 273.294 315.397 273.43C319.243 273.552 322.642 272.899 324.834 271.382C327.027 269.865 328.059 268.249 328.188 266.072C328.316 263.895 327.99 261.778 328.946 260.056C329.849 258.47 331.313 256.657 331.609 255.8C332.269 253.941 331.465 251.354 331.465 251.354L308.418 267.93Z" fill="#054F6B"/>
<path d="M318.129 248.457C318.134 249.286 318.016 250.112 317.78 250.907C316.956 253.494 315.719 255.931 314.116 258.122C313.008 259.54 311.612 260.731 310.436 262.104C309.178 263.407 308.406 265.102 308.251 266.906C308.206 269.941 311.514 270.813 314.04 271.162C316.778 271.524 319.563 271.264 322.187 270.404C323.57 269.987 324.802 269.18 325.736 268.079C326.671 266.978 327.266 265.63 327.452 264.198C327.558 263.356 327.452 262.506 327.543 261.664C327.8 259.73 328.533 257.89 329.675 256.309C330.336 255.393 330.9 254.412 331.359 253.38C332.065 251.484 331.359 249.413 330.783 247.584C330.289 245.999 329.728 244.201 329.174 244.375C329.174 245.217 329.174 245.293 328.636 245.893C327.877 246.651 327.915 247.706 327.118 248.366C327.349 247.666 327.506 246.944 327.589 246.211C327.626 245.913 327.553 245.61 327.384 245.362C327.11 245.139 326.788 244.983 326.443 244.906C325.243 244.552 324.011 244.321 322.764 244.216C321.577 244.06 320.373 244.098 319.198 244.33C318.851 244.41 318.541 244.605 318.318 244.884C318.123 245.194 318.025 245.556 318.038 245.923C318.038 246.416 318.121 247.653 318.129 248.457Z" fill="#067CA9"/>
<path d="M315.245 256.445C316.338 255.565 318.841 255.451 320.222 255.55C321.621 255.613 322.981 256.031 324.174 256.764C324.35 256.881 324.562 256.932 324.772 256.907C324.982 256.882 325.177 256.783 325.32 256.627C325.404 256.539 325.467 256.433 325.506 256.317C325.545 256.202 325.559 256.079 325.546 255.958C325.533 255.837 325.494 255.72 325.431 255.616C325.369 255.511 325.284 255.421 325.183 255.353C323.865 254.459 322.322 253.954 320.73 253.896C317.347 253.797 316.383 254.412 316.383 254.412C316.383 254.412 314.874 255.459 315.245 256.445Z" fill="#F5F5F5"/>
<path d="M312.787 259.631C314.16 258.743 316.929 258.751 318.302 258.872C319.678 258.96 321.007 259.407 322.156 260.17C322.331 260.286 322.542 260.337 322.75 260.312C322.959 260.287 323.152 260.188 323.294 260.033C323.379 259.946 323.445 259.841 323.485 259.725C323.525 259.61 323.54 259.487 323.528 259.366C323.515 259.244 323.476 259.127 323.414 259.022C323.351 258.917 323.266 258.827 323.165 258.759C321.825 257.818 320.248 257.272 318.613 257.181C315.222 257.074 314.373 257.795 314.373 257.795C313.987 257.962 313.645 258.214 313.37 258.532C313.096 258.85 312.896 259.225 312.787 259.631Z" fill="#F5F5F5"/>
<path d="M321.944 250.619C320.512 250.423 319.054 250.601 317.711 251.134C317.134 251.491 316.778 252.447 317.165 252.652C318.34 252.124 319.627 251.895 320.912 251.984C322.182 252.059 323.429 252.351 324.599 252.849C324.895 252.963 325.244 253.13 325.547 253.281C325.645 253.331 325.751 253.36 325.86 253.368C325.968 253.375 326.078 253.36 326.181 253.324C326.283 253.288 326.378 253.231 326.458 253.157C326.538 253.083 326.603 252.994 326.648 252.894C326.719 252.722 326.725 252.529 326.663 252.353C326.602 252.176 326.477 252.029 326.314 251.939C324.969 251.19 323.479 250.74 321.944 250.619Z" fill="#F5F5F5"/>
<path d="M263.302 252.712C262.958 253.579 262.958 254.546 263.302 255.413C263.636 256.225 267.657 258.743 273.24 258.637C277.392 258.536 281.442 257.326 284.969 255.132C287.161 253.827 289.384 253.668 292.145 253.615C294.907 253.562 298.594 252.386 299.261 251.127C299.929 249.867 299.337 247.614 299.337 247.614L263.302 252.712Z" fill="#054F6B"/>
<path d="M286.592 236.402L286.16 236.288C285.915 236.214 285.656 236.19 285.401 236.22C285.128 236.286 284.882 236.434 284.696 236.645C284.122 237.318 283.614 238.044 283.179 238.814C281.927 240.658 279.386 242.122 276.655 243.434C274.788 244.322 272.975 244.997 271.056 245.748C269.137 246.499 266.504 246.924 264.987 247.865C262.711 249.238 262.279 252.917 264.691 254.495C266.785 255.861 272.368 257.492 278.346 256.096C281.616 255.337 285.363 252.06 289.612 251.931C292.32 251.847 297.448 251.332 299.277 249.367C299.967 248.494 299.277 245.574 298.662 243.055C298.025 240.309 298.313 236.227 297.084 236.227L297.008 237.601C296.895 238.01 295.931 238.412 295.628 238.731L294.535 239.884C294.088 240.418 293.542 240.861 292.927 241.189C291.842 241.674 290.575 241.386 289.415 241.083C289.369 241.083 289.999 238.974 290.067 238.769C290.135 238.609 290.156 238.432 290.128 238.261C290.069 238.092 289.954 237.95 289.801 237.859C288.844 237.157 287.751 236.661 286.592 236.402Z" fill="#067CA9"/>
<path d="M279.249 242.084C279.461 241.723 279.761 241.42 280.12 241.204C280.479 240.988 280.886 240.866 281.305 240.847C282.541 240.68 284.658 241.682 285.955 242.858C286.078 242.968 286.171 243.106 286.228 243.261C286.284 243.416 286.302 243.582 286.279 243.745C286.257 243.908 286.195 244.063 286.099 244.197C286.003 244.33 285.875 244.438 285.728 244.511C285.543 244.603 285.334 244.635 285.13 244.602C284.926 244.57 284.737 244.474 284.59 244.329C283.169 242.915 281.254 242.109 279.249 242.084Z" fill="#F5F5F5"/>
<path d="M275.349 244.033C275.633 243.67 276.001 243.38 276.42 243.189C276.84 242.997 277.3 242.91 277.761 242.933C277.761 242.933 280.962 243.176 282.851 245.118C282.968 245.225 283.057 245.358 283.111 245.506C283.165 245.655 283.182 245.814 283.162 245.97C283.141 246.127 283.082 246.276 282.991 246.405C282.9 246.534 282.779 246.639 282.639 246.711C282.46 246.799 282.258 246.829 282.061 246.798C281.865 246.766 281.682 246.675 281.539 246.537C280.762 245.681 279.801 245.012 278.73 244.579C277.658 244.145 276.502 243.959 275.349 244.033Z" fill="#F5F5F5"/>
<path d="M271.063 245.748C271.386 245.414 271.776 245.154 272.208 244.985C272.64 244.817 273.104 244.743 273.567 244.769C275.381 244.97 277.085 245.737 278.437 246.962C278.554 247.069 278.643 247.203 278.697 247.352C278.751 247.501 278.768 247.66 278.747 247.817C278.726 247.974 278.668 248.124 278.577 248.254C278.486 248.384 278.365 248.489 278.225 248.563C278.046 248.651 277.843 248.681 277.646 248.649C277.448 248.616 277.266 248.522 277.125 248.381C276.389 247.501 275.457 246.805 274.405 246.348C273.353 245.891 272.209 245.686 271.063 245.748Z" fill="#F5F5F5"/>
<path d="M310.693 49.8794C314.274 50.2891 318.507 50.5091 321.928 50.9567C326.336 51.5332 329.773 56.0925 330.85 63.1477C332.033 70.916 327.057 93.1892 327.057 93.1892L328.642 119.453C322.186 124.209 294.694 126.705 280.993 116.813C280.993 116.813 281.312 72.1146 282.381 65.2264C283.853 55.7815 286.175 49.9174 296.795 49.2422L310.693 49.8794Z" fill="#067CA9"/>
<path d="M335.174 106.776C334.014 108.718 332.845 110.66 331.647 112.58C331.207 113.293 330.759 113.998 330.296 114.696C330.045 115.038 329.752 115.346 329.424 115.614C328.847 116.009 327.649 115.758 326.951 115.781C323.522 115.897 320.103 116.15 316.694 116.54C316.409 116.531 316.125 116.585 315.863 116.697C315.601 116.81 315.367 116.979 315.177 117.192C315.037 117.486 315.009 117.821 315.098 118.134C315.188 118.446 315.388 118.716 315.662 118.891C316.221 119.227 316.855 119.414 317.506 119.438L320.465 119.787C320.887 119.801 321.296 119.932 321.648 120.166C322.725 121.038 320.669 122.085 320.055 122.51C318.819 123.368 317.5 124.1 316.118 124.695C309.95 127.289 309.199 129.171 310.337 131.31C311.323 133.169 315.587 139.928 326.42 134.109C330.782 131.765 337.42 124.361 340.447 120.78C344.801 115.614 352.167 104.091 352.167 104.091C356.355 98.3403 356.894 95.981 356.992 93.5913C357.091 91.2016 344.096 72.8202 339.68 66.3643C335.265 59.9085 333.164 52.0567 321.929 50.9795C321.929 50.9795 317.65 64.5437 324.736 73.3209L341.099 96.1479C341.099 96.1479 336.767 104.113 335.174 106.776Z" fill="#FFA8A7"/>
<path d="M347.047 75.1188C344.945 72.0843 342.753 68.9588 340.636 65.8636C331.722 52.8532 332.474 50.4711 319.622 50.2891C318.485 52.0339 317.809 59.5443 319.524 67.085C320.958 73.4195 326.351 77.8877 326.351 77.8877L332.785 86.6043C332.785 86.6043 336.722 86.4829 341.44 83.0236C344.166 81.1147 346.146 78.3218 347.047 75.1188Z" fill="#067CA9"/>
<path d="M319.167 15.6883C318.521 14.7256 317.626 13.9562 316.578 13.4619C315.529 12.9676 314.366 12.767 313.212 12.8814L312.545 29.169L311.452 35.1849L311.642 41.8835C312.276 41.7938 312.877 41.545 313.389 41.1604C313.901 40.7757 314.307 40.2676 314.57 39.6835C315.571 37.7566 318.363 28.4407 318.363 28.4407C320.867 20.7862 320.336 17.3269 319.167 15.6883Z" fill="#054F6B"/>
<path d="M311.786 29.2452C312.067 28.2553 312.61 27.3592 313.356 26.6507C314.289 25.6493 318.007 24.5645 319.698 27.7204C321.39 30.8763 318.538 35.0411 316.338 36.3156C313.523 37.9542 311.869 35.7238 311.869 35.7238L311.938 50.7218C310.625 53.7563 304.7 56.457 301.173 56.0322C298.366 55.6756 295.779 53.468 298.29 50.2515L298.085 45.9728C298.085 45.9728 294.33 46.7315 292.471 46.5418C289.384 46.2232 287.328 43.8942 286.235 40.617C284.475 35.3521 283.694 31.0735 284.438 20.5135C285.257 8.94449 298.631 8.16311 306.089 12.3507C313.546 16.5383 311.786 29.2452 311.786 29.2452Z" fill="#FFA8A7"/>
<path d="M280.182 8.49668C279.841 5.97047 280.713 3.26219 283.361 2.36702C284.332 1.96058 285.399 1.8368 286.437 2.00993C287.476 2.18307 288.445 2.64607 289.232 3.34564C289.564 2.45441 290.138 1.67342 290.889 1.09044C291.641 0.507453 292.54 0.145581 293.486 0.0454894C294.431 -0.0546022 295.386 0.111054 296.243 0.523842C297.1 0.93663 297.825 1.58019 298.336 2.38219C299.039 1.31403 300.125 0.556427 301.37 0.265635C302.138 0.0941929 302.932 0.0783642 303.706 0.219087C304.48 0.359809 305.218 0.654227 305.876 1.08495C306.954 1.8815 308.221 3.36081 307.902 5.28013C310.034 4.42288 312.256 5.13599 313.842 7.01737C314.786 8.16946 315.319 9.60255 315.359 11.0912C315.414 11.8644 315.303 12.6404 315.033 13.367C314.73 14.0574 314.108 14.5126 313.925 15.2939C313.661 15.9814 313.524 16.7117 313.523 17.4484C313.698 18.7229 313.979 19.9974 314.145 21.2415C314.325 22.4807 314.429 23.7297 314.456 24.9815C314.417 25.276 314.314 25.5584 314.156 25.8097C313.998 26.061 313.787 26.2754 313.539 26.4381C312.83 27.0575 312.281 27.8381 311.938 28.714C311.672 29.2602 311.414 30.6105 310.891 30.9898C309.275 32.1202 309.093 28.4636 309.017 27.7581C308.913 26.1388 308.913 24.5146 309.017 22.8953C308.202 22.8848 307.399 22.7039 306.658 22.3642C305.917 22.0245 305.255 21.5336 304.716 20.9229C304.156 20.2367 303.787 19.4151 303.646 18.5408C303.559 18.04 303.518 17.532 303.525 17.0236C302.47 18.7684 300.02 19.4815 298.275 19.2995C295.347 19.0339 294.338 17.7822 293.867 16.8643C293.682 17.7691 293.284 18.6168 292.707 19.3374C291.959 20.0403 291.058 20.5597 290.074 20.8546C289.226 21.0809 288.333 21.072 287.489 20.8287C286.646 20.5855 285.885 20.1171 285.287 19.4739C284.096 21.1808 281.077 20.4222 280.409 19.9443C278.892 18.8443 278.399 17.5319 278.232 15.6581C278.065 13.7843 278.824 11.645 280.903 10.9091C280.528 10.1514 280.284 9.33574 280.182 8.49668Z" fill="#054F6B"/>
<path d="M298.085 45.95C298.085 45.95 304.867 44.2355 307.188 42.8397C308.561 42.0357 309.659 40.835 310.337 39.3955C310.044 40.8155 309.468 42.1621 308.645 43.3555C307.006 45.6845 298.161 47.7783 298.161 47.7783L298.085 45.95Z" fill="#F28F8F"/>
<path d="M298.464 28.7445C298.49 29.0318 298.6 29.3053 298.779 29.5309C298.959 29.7566 299.201 29.9244 299.476 30.0135C299.75 30.1027 300.045 30.1092 300.323 30.0323C300.601 29.9554 300.85 29.7985 301.04 29.5811C301.229 29.3637 301.351 29.0953 301.389 28.8094C301.427 28.5234 301.381 28.2325 301.255 27.9728C301.13 27.7131 300.93 27.4961 300.682 27.3487C300.434 27.2013 300.149 27.13 299.86 27.1438C299.464 27.1749 299.097 27.3599 298.836 27.6591C298.575 27.9584 298.441 28.3481 298.464 28.7445Z" fill="#054F6B"/>
<path d="M296.196 39.7215C296.23 40.0916 296.373 40.4434 296.606 40.733C296.839 41.0227 297.152 41.2376 297.506 41.3508C297.86 41.4641 298.239 41.4709 298.597 41.3702C298.955 41.2696 299.276 41.066 299.519 40.7848C299.762 40.5036 299.917 40.1571 299.965 39.7885C300.012 39.4199 299.951 39.0453 299.788 38.7114C299.624 38.3774 299.366 38.0988 299.046 37.9102C298.726 37.7216 298.357 37.6313 297.986 37.6505C297.475 37.6912 297.001 37.9314 296.666 38.3189C296.331 38.7065 296.162 39.2103 296.196 39.7215Z" fill="#F28F8F"/>
<path d="M299.686 23.692L302.811 25.2092C303.006 24.7808 303.029 24.294 302.875 23.8493C302.721 23.4046 302.402 23.036 301.984 22.8195C301.777 22.7204 301.552 22.6644 301.322 22.6548C301.092 22.6452 300.863 22.6823 300.648 22.7639C300.433 22.8455 300.237 22.9697 300.072 23.1293C299.906 23.2888 299.775 23.4802 299.686 23.692Z" fill="#054F6B"/>
<path d="M286.091 25.0042L288.754 22.7284C288.615 22.5468 288.441 22.3956 288.241 22.2839C288.042 22.1723 287.822 22.1026 287.594 22.0792C287.367 22.0557 287.137 22.079 286.919 22.1476C286.701 22.2162 286.499 22.3286 286.327 22.478C285.971 22.7889 285.749 23.2242 285.705 23.6942C285.661 24.1642 285.8 24.6331 286.091 25.0042Z" fill="#054F6B"/>
<path d="M286.888 28.4483C286.906 28.7289 287.007 28.9979 287.177 29.2213C287.348 29.4448 287.581 29.6128 287.847 29.7042C288.113 29.7956 288.4 29.8063 288.672 29.735C288.944 29.6638 289.189 29.5137 289.376 29.3036C289.563 29.0935 289.684 28.8329 289.723 28.5544C289.762 28.2759 289.718 27.9921 289.597 27.7385C289.475 27.485 289.281 27.273 289.039 27.1294C288.798 26.9857 288.519 26.9167 288.238 26.9311C287.859 26.9565 287.505 27.1297 287.252 27.4135C287 27.6973 286.869 28.0689 286.888 28.4483Z" fill="#054F6B"/>
<path d="M293.928 26.7646L293.883 35.7392L289.134 34.3812L293.928 26.7646Z" fill="#F28F8F"/>
<path d="M282.01 39.3192C282.054 39.3095 282.095 39.291 282.132 39.265C282.168 39.2389 282.199 39.2057 282.222 39.1675C282.249 39.13 282.268 39.0874 282.278 39.0423C282.288 38.9973 282.289 38.9506 282.281 38.9052C282.272 38.8598 282.255 38.8166 282.229 38.7783C282.203 38.7399 282.17 38.7071 282.131 38.6819L278.004 35.9357C277.966 35.9102 277.923 35.8924 277.878 35.8835C277.833 35.8746 277.786 35.8748 277.741 35.8839C277.696 35.8931 277.653 35.9111 277.615 35.9369C277.577 35.9627 277.544 35.9959 277.519 36.0344C277.492 36.0723 277.474 36.1153 277.464 36.1607C277.455 36.2061 277.455 36.2529 277.464 36.2983C277.473 36.3437 277.491 36.3868 277.518 36.4249C277.544 36.463 277.578 36.4953 277.618 36.5199L281.737 39.2661C281.776 39.2945 281.82 39.314 281.867 39.3232C281.915 39.3324 281.963 39.331 282.01 39.3192Z" fill="#E0E0E0"/>
<path d="M281.571 41.0949C281.635 41.0789 281.694 41.0458 281.74 40.999C281.787 40.9522 281.82 40.8936 281.836 40.8294C281.857 40.7379 281.84 40.642 281.791 40.5625C281.741 40.483 281.662 40.4262 281.571 40.4046L276.746 39.2894C276.701 39.2781 276.654 39.2758 276.609 39.2827C276.563 39.2896 276.519 39.3055 276.48 39.3295C276.44 39.3535 276.406 39.3851 276.378 39.4225C276.351 39.4599 276.332 39.5023 276.321 39.5473C276.301 39.6388 276.317 39.7347 276.367 39.8142C276.416 39.8937 276.495 39.9505 276.587 39.9721L281.411 41.0949C281.464 41.1025 281.518 41.1025 281.571 41.0949Z" fill="#E0E0E0"/>
<path d="M277.086 44.3038H277.132L281.782 42.6045C281.87 42.5723 281.941 42.5066 281.98 42.422C282.019 42.3373 282.023 42.2406 281.991 42.1531C281.959 42.0656 281.893 41.9944 281.808 41.9553C281.724 41.9162 281.627 41.9123 281.539 41.9445L276.889 43.6438C276.845 43.6598 276.805 43.6843 276.771 43.716C276.737 43.7477 276.71 43.7859 276.691 43.8283C276.672 43.8707 276.661 43.9165 276.66 43.9629C276.659 44.0094 276.667 44.0557 276.684 44.099C276.716 44.1752 276.774 44.2376 276.848 44.2751C276.921 44.3126 277.006 44.3228 277.086 44.3038Z" fill="#E0E0E0"/>
<path d="M237.744 80.6948C237.84 80.8872 237.99 81.0474 238.176 81.1554C238.362 81.2634 238.576 81.3145 238.79 81.3023C239.005 81.2902 239.212 81.2155 239.384 81.0872C239.557 80.959 239.688 80.783 239.762 80.581L243.221 72.0465C243.277 71.9096 243.305 71.7629 243.303 71.615C243.302 71.4671 243.27 71.3212 243.21 71.1858C243.151 71.0504 243.065 70.9285 242.957 70.8272C242.849 70.7259 242.722 70.6474 242.583 70.5964C242.444 70.5453 242.297 70.5228 242.149 70.5302C242.001 70.5375 241.857 70.5746 241.723 70.6391C241.59 70.7037 241.472 70.7944 241.375 70.9058C241.277 71.0173 241.204 71.1472 241.158 71.2878L237.691 79.8223C237.64 79.9637 237.618 80.114 237.627 80.264C237.636 80.4141 237.676 80.5607 237.744 80.6948Z" fill="#E0E0E0"/>
<path d="M232.047 80.6492C232.158 80.8728 232.341 81.0523 232.567 81.1581C232.792 81.264 233.048 81.29 233.29 81.2317C233.533 81.1735 233.748 81.0346 233.901 80.8378C234.055 80.641 234.136 80.3979 234.133 80.1485L234.02 69.5278C233.997 69.2528 233.871 68.9964 233.668 68.8096C233.465 68.6227 233.199 68.519 232.923 68.519C232.647 68.519 232.382 68.6227 232.178 68.8096C231.975 68.9964 231.85 69.2528 231.827 69.5278L231.933 80.1485C231.931 80.322 231.97 80.4936 232.047 80.6492Z" fill="#E0E0E0"/>
<path d="M222.39 74.7396L222.458 74.8685L227.685 82.4548C227.847 82.6949 228.097 82.8615 228.381 82.9183C228.665 82.9751 228.96 82.9176 229.202 82.7582C229.438 82.5925 229.601 82.342 229.656 82.0592C229.711 81.7763 229.654 81.4831 229.498 81.241L224.271 73.6547C224.119 73.4194 223.882 73.2516 223.61 73.1861C223.337 73.1205 223.05 73.1622 222.807 73.3025C222.565 73.4428 222.385 73.671 222.306 73.9399C222.227 74.2088 222.254 74.4978 222.382 74.7471L222.39 74.7396Z" fill="#E0E0E0"/>
</g>
<defs>
<clipPath id="clip0_663_931">
<rect width="357" height="336.009" fill="white"/>
</clipPath>
</defs>
</svg>
