<svg width="28" height="28" viewBox="0 0 28 28" fill="none" xmlns="http://www.w3.org/2000/svg">
<path d="M10.687 12.6818C10.5703 12.6702 10.4303 12.6702 10.302 12.6818C7.52531 12.5885 5.32031 10.3135 5.32031 7.5135C5.32031 4.65516 7.63031 2.3335 10.5003 2.3335C13.3586 2.3335 15.6803 4.65516 15.6803 7.5135C15.6686 10.3135 13.4636 12.5885 10.687 12.6818Z" stroke="#08A8E4" stroke-width="1.5" stroke-linecap="round" stroke-linejoin="round"/>
<path d="M19.1448 4.6665C21.4082 4.6665 23.2282 6.49817 23.2282 8.74984C23.2282 10.9548 21.4782 12.7515 19.2965 12.8332C19.2032 12.8215 19.0982 12.8215 18.9932 12.8332" stroke="#08A8E4" stroke-width="1.5" stroke-linecap="round" stroke-linejoin="round"/>
<path d="M4.85285 16.9865C2.02952 18.8765 2.02952 21.9565 4.85285 23.8348C8.06118 25.9815 13.3229 25.9815 16.5312 23.8348C19.3545 21.9448 19.3545 18.8648 16.5312 16.9865C13.3345 14.8515 8.07285 14.8515 4.85285 16.9865Z" stroke="#08A8E4" stroke-width="1.5" stroke-linecap="round" stroke-linejoin="round"/>
<path d="M21.3965 23.3335C22.2365 23.1585 23.0298 22.8202 23.6831 22.3185C25.5031 20.9535 25.5031 18.7018 23.6831 17.3368C23.0415 16.8468 22.2598 16.5202 21.4315 16.3335" stroke="#08A8E4" stroke-width="1.5" stroke-linecap="round" stroke-linejoin="round"/>
</svg>
