<svg width="28" height="28" viewBox="0 0 28 28" fill="none" xmlns="http://www.w3.org/2000/svg">
<path d="M9.91634 22.1668H9.33301C4.66634 22.1668 2.33301 21.0002 2.33301 15.1668V9.3335C2.33301 4.66683 4.66634 2.3335 9.33301 2.3335H18.6663C23.333 2.3335 25.6663 4.66683 25.6663 9.3335V15.1668C25.6663 19.8335 23.333 22.1668 18.6663 22.1668H18.083C17.7213 22.1668 17.3713 22.3418 17.1497 22.6335L15.3997 24.9668C14.6297 25.9935 13.3697 25.9935 12.5997 24.9668L10.8497 22.6335C10.663 22.3768 10.2313 22.1668 9.91634 22.1668Z" stroke="#08A8E4" stroke-width="1.5" stroke-miterlimit="10" stroke-linecap="round" stroke-linejoin="round"/>
<path d="M18.6629 12.8333H18.6733" stroke="#08A8E4" stroke-width="2" stroke-linecap="round" stroke-linejoin="round"/>
<path d="M13.9949 12.8333H14.0054" stroke="#08A8E4" stroke-width="2" stroke-linecap="round" stroke-linejoin="round"/>
<path d="M9.32693 12.8333H9.3374" stroke="#08A8E4" stroke-width="2" stroke-linecap="round" stroke-linejoin="round"/>
</svg>
