<svg width="306" height="307" viewBox="0 0 306 307" fill="none" xmlns="http://www.w3.org/2000/svg">
<g clip-path="url(#clip0_676_2814)">
<path d="M289.541 210.651C261.133 278.519 185.463 316.538 119.844 306.283C109.166 304.613 79.8925 299.642 53.9739 276.191C4.07465 231.044 -6.59544 141.652 33.6533 78.6488C62.9471 32.7967 115.458 6.80446 165.355 8.1044C176.104 8.38484 217.293 10.1104 253.492 40.3962C258.808 44.8437 270.539 55.4148 281.104 72.1799C305.922 111.561 308.054 166.422 289.541 210.651Z" fill="#E5F8FF"/>
<path d="M1.68661 197.989C6.53775 177.286 22.3977 161.036 42.5886 156.065C56.47 152.648 69.7884 154.482 81.0458 160.024C84.785 161.861 89.216 159.782 90.2509 155.67C100.202 116.122 135.223 86.905 176.904 86.905C226.326 86.905 266.391 127.985 266.391 178.659C266.391 180.004 266.364 181.841 266.341 183.608C266.516 187.398 268.13 189.007 270.539 189.41C289.902 191.477 305.12 207.845 305.964 228.032C306.934 251.211 288.534 270.416 265.906 270.416H56.602C20.7711 270.407 -7.28211 236.272 1.68661 197.989Z" fill="#BDEBFC"/>
<path opacity="0.21" d="M17.8959 205.746C22.2268 187.262 36.3876 172.753 54.4163 168.315C66.8109 165.263 78.7017 166.901 88.7526 171.844C92.0861 173.484 96.0475 171.624 96.9713 167.957C105.856 132.646 137.127 106.559 174.341 106.559C218.469 106.559 254.242 143.238 254.242 188.483C254.242 189.684 254.218 191.325 254.197 192.899C254.353 196.283 255.795 197.719 257.945 198.08C275.235 199.925 288.822 214.539 289.576 232.563C290.442 253.26 274.013 270.407 253.809 270.407H66.9275C34.9359 270.407 9.88727 239.929 17.8959 205.746Z" fill="#A2518E"/>
<path d="M42.1984 295.206C42.2025 296.022 42.5293 296.805 43.1076 297.381C43.6858 297.958 44.4687 298.283 45.2855 298.285H212.232C213.049 298.283 213.832 297.958 214.41 297.381C214.989 296.805 215.315 296.022 215.319 295.206L216.709 199.266C216.709 197.57 214.71 194.258 211.048 194.507L47.8887 190.285C46.835 190.258 45.7867 190.444 44.8073 190.834C43.828 191.224 42.938 191.809 42.1914 192.553C41.4449 193.297 40.8573 194.185 40.4643 195.163C40.0713 196.141 39.8812 197.189 39.9054 198.242L42.1984 295.206Z" fill="#08A8E4"/>
<path d="M45.2454 292.246C45.2477 293.02 45.5562 293.762 46.1035 294.309C46.6508 294.856 47.3924 295.165 48.1664 295.167H208.209C208.983 295.165 209.724 294.856 210.272 294.309C210.819 293.762 211.128 293.02 211.13 292.246L212.441 205.152C212.287 199.911 207.692 198.027 204.906 198.138L48.5294 193.943C47.7887 193.924 47.0518 194.055 46.3635 194.329C45.6751 194.603 45.0497 195.014 44.5251 195.538C44.0006 196.061 43.5878 196.685 43.312 197.373C43.0361 198.061 42.9029 198.797 42.9205 199.538L45.2454 292.246Z" fill="#8EE0FF"/>
<path d="M209.397 250.87C209.34 250.87 209.284 250.858 209.232 250.835C209.18 250.813 209.133 250.78 209.093 250.739C209.054 250.698 209.023 250.65 209.002 250.597C208.982 250.544 208.972 250.487 208.974 250.43L209.077 243.368C209.079 243.255 209.124 243.148 209.204 243.069C209.284 242.99 209.392 242.945 209.505 242.945C209.562 242.946 209.618 242.958 209.67 242.98C209.723 243.003 209.77 243.035 209.809 243.076C209.849 243.117 209.88 243.166 209.9 243.219C209.921 243.272 209.931 243.328 209.93 243.385L209.826 250.449C209.824 250.562 209.778 250.669 209.698 250.748C209.618 250.827 209.51 250.871 209.397 250.87Z" fill="white"/>
<path d="M209.652 233.562H209.645C209.589 233.561 209.534 233.549 209.482 233.527C209.43 233.505 209.384 233.472 209.344 233.432C209.305 233.392 209.274 233.344 209.254 233.292C209.233 233.239 209.223 233.183 209.224 233.127L209.621 206.073C209.613 204.466 209.126 203.182 208.171 202.268C206.389 200.56 203.56 200.648 203.441 200.654L153.462 199.313C153.348 199.31 153.241 199.262 153.162 199.18C153.084 199.097 153.042 198.987 153.045 198.873C153.044 198.816 153.055 198.76 153.077 198.707C153.099 198.655 153.132 198.608 153.173 198.568C153.215 198.529 153.264 198.499 153.317 198.48C153.371 198.46 153.428 198.453 153.485 198.457L203.435 199.797C203.746 199.778 206.758 199.727 208.764 201.649C209.893 202.73 210.469 204.219 210.478 206.076L210.08 233.14C210.078 233.253 210.032 233.36 209.952 233.439C209.872 233.517 209.764 233.562 209.652 233.562Z" fill="white"/>
<path d="M29.2765 306.254H224.856C225.199 306.254 225.478 305.976 225.478 305.633V298.445C225.478 298.102 225.199 297.824 224.856 297.824H29.2765C28.9333 297.824 28.6551 298.102 28.6551 298.445V305.633C28.6551 305.976 28.9333 306.254 29.2765 306.254Z" fill="#08A8E4"/>
<path d="M114.679 290.919H53.0606C51.9694 290.919 50.9229 290.485 50.1513 289.714C49.3798 288.942 48.9463 287.896 48.9463 286.804V206.373C48.9463 205.82 49.0581 205.272 49.2748 204.762C49.4915 204.253 49.8088 203.793 50.2076 203.409C50.6064 203.025 51.0786 202.726 51.5958 202.529C52.1131 202.332 52.6647 202.241 53.2178 202.262L114.839 204.621C115.902 204.661 116.909 205.111 117.647 205.877C118.386 206.644 118.798 207.667 118.798 208.731V286.804C118.798 287.345 118.692 287.881 118.485 288.38C118.278 288.88 117.974 289.333 117.592 289.716C117.209 290.098 116.755 290.401 116.255 290.607C115.755 290.814 115.22 290.919 114.679 290.919Z" fill="#A2518E"/>
<path opacity="0.51" d="M102.422 233.815H61.6057C61.282 233.815 61.0195 234.077 61.0195 234.401V238.653C61.0195 238.977 61.282 239.239 61.6057 239.239H102.422C102.746 239.239 103.008 238.977 103.008 238.653V234.401C103.008 234.077 102.746 233.815 102.422 233.815Z" fill="white"/>
<path opacity="0.51" d="M102.506 242.477H61.6897C61.366 242.477 61.1035 242.739 61.1035 243.063V247.315C61.1035 247.638 61.366 247.901 61.6897 247.901H102.506C102.83 247.901 103.092 247.638 103.092 247.315V243.063C103.092 242.739 102.83 242.477 102.506 242.477Z" fill="white"/>
<path opacity="0.51" d="M102.751 251.321H61.9348C61.6111 251.321 61.3486 251.583 61.3486 251.907V256.159C61.3486 256.483 61.6111 256.745 61.9348 256.745H102.751C103.075 256.745 103.337 256.483 103.337 256.159V251.907C103.337 251.583 103.075 251.321 102.751 251.321Z" fill="white"/>
<path opacity="0.51" d="M102.834 259.983H62.0178C61.6941 259.983 61.4316 260.245 61.4316 260.569V264.821C61.4316 265.145 61.6941 265.407 62.0178 265.407H102.834C103.158 265.407 103.42 265.145 103.42 264.821V260.569C103.42 260.245 103.158 259.983 102.834 259.983Z" fill="white"/>
<path opacity="0.51" d="M191.933 233.808H132.739C132.415 233.808 132.152 234.071 132.152 234.394V238.646C132.152 238.97 132.415 239.232 132.739 239.232H191.933C192.257 239.232 192.519 238.97 192.519 238.646V234.394C192.519 234.071 192.257 233.808 191.933 233.808Z" fill="white"/>
<path opacity="0.51" d="M192.122 242.477H132.927C132.603 242.477 132.341 242.739 132.341 243.063V247.315C132.341 247.638 132.603 247.901 132.927 247.901H192.122C192.445 247.901 192.708 247.638 192.708 247.315V243.063C192.708 242.739 192.445 242.477 192.122 242.477Z" fill="white"/>
<path opacity="0.51" d="M167.525 251.321H132.927C132.603 251.321 132.341 251.583 132.341 251.907V256.159C132.341 256.483 132.603 256.745 132.927 256.745H167.525C167.849 256.745 168.111 256.483 168.111 256.159V251.907C168.111 251.583 167.849 251.321 167.525 251.321Z" fill="white"/>
<g opacity="0.51">
<path d="M164.197 213.592H163.277C163.058 213.591 162.848 213.504 162.693 213.349C162.538 213.194 162.451 212.984 162.451 212.765V209.618C162.451 209.078 162.236 208.56 161.854 208.178C161.472 207.796 160.954 207.581 160.414 207.581H154.717C154.176 207.581 153.658 207.796 153.276 208.178C152.894 208.56 152.679 209.078 152.679 209.618V212.761C152.679 212.981 152.592 213.191 152.437 213.346C152.282 213.501 152.072 213.588 151.853 213.588H150.933C150.714 213.588 150.504 213.501 150.349 213.346C150.194 213.191 150.106 212.981 150.106 212.761V209.618C150.106 209.013 150.226 208.413 150.457 207.854C150.689 207.295 151.029 206.787 151.457 206.359C151.885 205.931 152.393 205.591 152.953 205.36C153.512 205.128 154.111 205.009 154.717 205.009H160.414C161.019 205.009 161.618 205.128 162.178 205.36C162.737 205.591 163.245 205.931 163.673 206.359C164.102 206.787 164.441 207.295 164.673 207.854C164.905 208.413 165.024 209.013 165.024 209.618V212.761C165.024 212.87 165.003 212.978 164.962 213.079C164.921 213.18 164.86 213.271 164.783 213.348C164.706 213.425 164.615 213.487 164.514 213.528C164.414 213.57 164.306 213.592 164.197 213.592Z" fill="white"/>
<path d="M165.338 214.333H149.794C149.336 214.333 148.898 214.515 148.574 214.839C148.251 215.162 148.069 215.601 148.069 216.058V227.984C148.069 228.442 148.251 228.88 148.574 229.204C148.898 229.527 149.336 229.709 149.794 229.709H165.338C165.795 229.709 166.234 229.527 166.557 229.204C166.881 228.88 167.063 228.442 167.063 227.984V216.058C167.063 215.601 166.881 215.162 166.558 214.839C166.234 214.515 165.796 214.333 165.338 214.333ZM159.79 225.863C159.812 225.957 159.813 226.055 159.793 226.149C159.772 226.244 159.73 226.332 159.67 226.408C159.611 226.484 159.534 226.545 159.447 226.587C159.36 226.63 159.265 226.651 159.168 226.651H155.968C155.871 226.651 155.776 226.63 155.689 226.587C155.602 226.545 155.526 226.484 155.466 226.408C155.406 226.332 155.364 226.244 155.344 226.149C155.323 226.055 155.324 225.957 155.347 225.863L156.094 222.749C155.553 222.426 155.132 221.934 154.897 221.349C154.661 220.764 154.625 220.117 154.792 219.509C154.96 218.901 155.323 218.365 155.824 217.982C156.326 217.6 156.94 217.393 157.57 217.393C158.201 217.393 158.815 217.6 159.316 217.982C159.818 218.365 160.181 218.901 160.348 219.509C160.516 220.117 160.479 220.764 160.244 221.349C160.009 221.934 159.588 222.426 159.046 222.749L159.79 225.863Z" fill="white"/>
</g>
<path d="M209.447 74.3245C209.384 74.3248 209.322 74.3089 209.268 74.2783C209.182 74.2306 209.118 74.1507 209.091 74.0562C209.064 73.9618 209.076 73.8605 209.124 73.7746C209.363 73.3457 209.594 72.9138 209.818 72.479C209.863 72.3915 209.941 72.3255 210.034 72.2955C210.128 72.2655 210.23 72.2739 210.317 72.319C210.405 72.3641 210.471 72.4421 210.501 72.5358C210.531 72.6295 210.523 72.7314 210.477 72.8189C210.25 73.2588 210.015 73.6987 209.773 74.1386C209.74 74.1959 209.692 74.2433 209.635 74.276C209.578 74.3087 209.513 74.3255 209.447 74.3245Z" fill="#A2518E"/>
<path d="M166.135 99.8175C165.915 99.8175 165.695 99.8175 165.475 99.8175C165.38 99.8123 165.291 99.771 165.226 99.7022C165.161 99.6334 165.124 99.5422 165.124 99.4474C165.124 99.3526 165.161 99.2614 165.226 99.1925C165.291 99.1237 165.38 99.0825 165.475 99.0773C166.433 99.0905 167.4 99.0773 168.355 99.0311C168.453 99.0278 168.548 99.0629 168.621 99.1288C168.693 99.1948 168.737 99.2864 168.742 99.3841C168.747 99.4822 168.712 99.5779 168.646 99.6505C168.58 99.723 168.487 99.7664 168.389 99.7713C167.651 99.8009 166.888 99.8175 166.135 99.8175ZM160.777 99.5304H160.736C159.769 99.4204 158.794 99.2907 157.839 99.1312C157.789 99.1253 157.741 99.1094 157.698 99.0844C157.654 99.0593 157.616 99.0257 157.586 98.9856C157.556 98.9455 157.534 98.8997 157.522 98.8509C157.511 98.8022 157.509 98.7515 157.517 98.702C157.525 98.6525 157.543 98.6052 157.571 98.563C157.598 98.5208 157.633 98.4845 157.675 98.4563C157.716 98.4282 157.763 98.4087 157.812 98.3992C157.861 98.3897 157.912 98.3903 157.961 98.4009C158.903 98.5582 159.863 98.6913 160.821 98.7936C160.915 98.8038 161.001 98.8497 161.063 98.9218C161.124 98.9939 161.155 99.0867 161.151 99.1813C161.146 99.2758 161.105 99.3648 161.036 99.4302C160.968 99.4955 160.877 99.5322 160.782 99.5326L160.777 99.5304ZM173.083 99.3313C172.99 99.3301 172.901 99.294 172.834 99.2301C172.766 99.1663 172.725 99.0794 172.719 98.9867C172.712 98.894 172.741 98.8022 172.799 98.7296C172.857 98.6569 172.94 98.6087 173.032 98.5945C173.98 98.4614 174.935 98.2976 175.872 98.1095C175.921 98.0973 175.971 98.0951 176.021 98.103C176.07 98.111 176.118 98.1289 176.16 98.1556C176.203 98.1824 176.239 98.2175 176.268 98.2588C176.296 98.3 176.316 98.3467 176.326 98.3958C176.336 98.4449 176.335 98.4956 176.325 98.5446C176.315 98.5937 176.295 98.6402 176.266 98.6813C176.237 98.7224 176.201 98.7572 176.158 98.7837C176.116 98.8102 176.068 98.8278 176.019 98.8354C175.067 99.0267 174.097 99.1928 173.135 99.3281L173.083 99.3313ZM153.287 98.1348C153.255 98.1347 153.223 98.1303 153.191 98.1216C152.252 97.8719 151.31 97.5904 150.389 97.2847C150.343 97.2694 150.3 97.2452 150.264 97.2135C150.227 97.1818 150.197 97.1431 150.175 97.0997C150.153 97.0563 150.14 97.009 150.136 96.9605C150.133 96.9121 150.139 96.8634 150.154 96.8172C150.169 96.7711 150.193 96.7284 150.225 96.6916C150.257 96.6548 150.295 96.6246 150.339 96.6028C150.382 96.5809 150.43 96.5678 150.478 96.5642C150.526 96.5607 150.575 96.5667 150.621 96.5819C151.53 96.8821 152.458 97.1604 153.382 97.4067C153.468 97.4304 153.543 97.4844 153.592 97.5589C153.642 97.6334 153.663 97.7232 153.651 97.8119C153.64 97.9006 153.597 97.9822 153.53 98.0415C153.463 98.1008 153.377 98.134 153.287 98.1348ZM180.516 97.6949C180.427 97.695 180.341 97.6633 180.274 97.6055C180.206 97.5477 180.162 97.4676 180.148 97.3798C180.135 97.2921 180.154 97.2025 180.201 97.1273C180.248 97.0521 180.321 96.9963 180.406 96.9701C181.324 96.693 182.242 96.3839 183.139 96.054C183.23 96.024 183.329 96.0305 183.416 96.0723C183.502 96.114 183.569 96.1877 183.602 96.2778C183.635 96.3679 183.632 96.4674 183.594 96.5553C183.555 96.6432 183.484 96.7127 183.395 96.7491C182.485 97.079 181.552 97.3968 180.621 97.6795C180.588 97.6878 180.554 97.6915 180.52 97.6905L180.516 97.6949ZM146.103 95.613C146.052 95.6131 146.001 95.6026 145.954 95.5822C145.064 95.1896 144.175 94.7662 143.314 94.324C143.227 94.2791 143.161 94.2013 143.131 94.1076C143.101 94.014 143.109 93.9122 143.154 93.8247C143.199 93.7372 143.277 93.6712 143.37 93.641C143.464 93.6109 143.566 93.6193 143.653 93.6642C144.501 94.1041 145.376 94.5165 146.253 94.9025C146.331 94.937 146.394 94.997 146.433 95.0726C146.471 95.1481 146.483 95.2347 146.465 95.3177C146.448 95.4008 146.402 95.4753 146.336 95.5288C146.27 95.5824 146.188 95.6117 146.103 95.6119V95.613ZM187.611 94.93C187.528 94.9297 187.447 94.901 187.381 94.8486C187.316 94.7963 187.27 94.7234 187.252 94.6418C187.233 94.5602 187.243 94.4748 187.279 94.3993C187.315 94.3238 187.376 94.2628 187.451 94.2262C188.312 93.8115 189.172 93.365 190.009 92.8987C190.095 92.8509 190.196 92.8391 190.291 92.8661C190.385 92.893 190.465 92.9563 190.513 93.0422C190.561 93.1281 190.573 93.2295 190.546 93.3241C190.519 93.4187 190.455 93.4987 190.37 93.5465C189.519 94.0194 188.646 94.4725 187.771 94.8937C187.722 94.9157 187.669 94.9266 187.616 94.9256L187.611 94.93ZM139.397 92.0134C139.326 92.0136 139.256 91.993 139.197 91.954C138.38 91.4305 137.567 90.8751 136.777 90.3043C136.738 90.2755 136.705 90.2391 136.679 90.1974C136.654 90.1556 136.637 90.1093 136.63 90.061C136.622 90.0128 136.625 89.9635 136.636 89.9161C136.648 89.8687 136.669 89.8241 136.697 89.7847C136.726 89.7453 136.763 89.7121 136.804 89.6867C136.846 89.6614 136.893 89.6446 136.941 89.6372C136.989 89.6298 137.038 89.632 137.086 89.6436C137.133 89.6552 137.178 89.6761 137.217 89.705C137.987 90.2681 138.789 90.8146 139.595 91.3315C139.662 91.3749 139.713 91.4388 139.741 91.5137C139.769 91.5886 139.772 91.6705 139.749 91.7472C139.727 91.8238 139.68 91.8912 139.616 91.9391C139.552 91.9871 139.475 92.0132 139.395 92.0134H139.397ZM194.196 91.1028C194.117 91.1028 194.04 91.0776 193.976 91.0308C193.913 90.984 193.866 90.9181 193.842 90.8428C193.818 90.7674 193.819 90.6864 193.845 90.6117C193.871 90.537 193.92 90.4725 193.985 90.4275C194.772 89.8842 195.555 89.3101 196.31 88.7218C196.387 88.6604 196.485 88.6321 196.583 88.6431C196.68 88.6541 196.77 88.7036 196.831 88.7806C196.893 88.8576 196.921 88.9558 196.91 89.0537C196.899 89.1516 196.85 89.241 196.773 89.3024C196.003 89.8996 195.213 90.4825 194.413 91.0346C194.351 91.077 194.276 91.0993 194.2 91.0984L194.196 91.1028ZM133.326 87.4218C133.236 87.4217 133.149 87.3889 133.081 87.3294C132.356 86.6872 131.639 86.0097 130.948 85.3278C130.911 85.2942 130.881 85.2533 130.86 85.2077C130.839 85.1621 130.827 85.1127 130.826 85.0625C130.825 85.0123 130.834 84.9624 130.852 84.9157C130.871 84.869 130.898 84.8266 130.934 84.791C130.969 84.7554 131.012 84.7274 131.058 84.7087C131.105 84.6899 131.155 84.6809 131.205 84.682C131.255 84.6831 131.305 84.6945 131.35 84.7153C131.396 84.7362 131.437 84.7661 131.471 84.8032C132.15 85.4785 132.858 86.1428 133.572 86.774C133.629 86.824 133.668 86.8898 133.686 86.9629C133.704 87.0359 133.7 87.1126 133.673 87.1829C133.646 87.2532 133.599 87.3137 133.537 87.3564C133.475 87.399 133.401 87.4219 133.326 87.4218ZM200.119 86.311C200.045 86.3112 199.972 86.289 199.911 86.2474C199.849 86.2058 199.802 86.1466 199.774 86.0776C199.747 86.0087 199.741 85.933 199.757 85.8605C199.773 85.788 199.81 85.7219 199.864 85.671C200.561 85.0111 201.248 84.3281 201.903 83.6342C201.971 83.5672 202.063 83.5293 202.159 83.5284C202.255 83.5275 202.347 83.5637 202.417 83.6294C202.486 83.695 202.528 83.7851 202.532 83.8807C202.537 83.9763 202.505 84.07 202.442 84.1423C201.775 84.8472 201.079 85.5423 200.373 86.2099C200.305 86.2719 200.216 86.3064 200.124 86.3066L200.119 86.311ZM128.024 81.9559C127.97 81.9557 127.916 81.9436 127.867 81.9205C127.818 81.8973 127.774 81.8636 127.739 81.8217C127.119 81.0772 126.512 80.3029 125.933 79.521C125.879 79.4418 125.857 79.3445 125.873 79.2496C125.889 79.1548 125.941 79.0699 126.019 79.0128C126.096 78.9557 126.193 78.9309 126.288 78.9437C126.383 78.9564 126.47 79.0057 126.529 79.0811C127.099 79.8509 127.697 80.6142 128.309 81.3488C128.354 81.403 128.382 81.4687 128.391 81.5385C128.4 81.6082 128.389 81.6791 128.359 81.7427C128.329 81.8063 128.282 81.8602 128.222 81.8979C128.163 81.9357 128.094 81.9558 128.024 81.9559ZM205.243 80.6801C205.161 80.6803 205.081 80.6528 205.016 80.6021C204.978 80.5722 204.946 80.535 204.922 80.4927C204.898 80.4504 204.882 80.4037 204.876 80.3554C204.87 80.3071 204.874 80.2581 204.887 80.2111C204.9 80.1642 204.922 80.1203 204.952 80.0819C205.541 79.3241 206.114 78.5422 206.654 77.758C206.712 77.6823 206.796 77.6317 206.89 77.6166C206.984 77.6015 207.08 77.6231 207.159 77.6769C207.237 77.7308 207.292 77.8128 207.312 77.9059C207.331 77.999 207.314 78.0961 207.264 78.177C206.715 78.9744 206.135 79.7684 205.536 80.5372C205.501 80.5804 205.457 80.6153 205.407 80.6392C205.357 80.6632 205.303 80.6757 205.247 80.6758L205.243 80.6801ZM123.613 75.7487C123.549 75.7486 123.486 75.7319 123.43 75.7003C123.375 75.6687 123.328 75.6233 123.295 75.5684C122.794 74.7325 122.312 73.8747 121.865 73.0169C121.82 72.9294 121.811 72.8274 121.841 72.7335C121.871 72.6395 121.937 72.5613 122.024 72.5159C122.112 72.4706 122.214 72.4618 122.308 72.4916C122.402 72.5214 122.48 72.5873 122.525 72.6748C122.965 73.5184 123.441 74.3641 123.935 75.1878C123.969 75.2439 123.987 75.308 123.988 75.3736C123.989 75.4392 123.973 75.5038 123.941 75.5609C123.908 75.618 123.862 75.6655 123.805 75.6985C123.748 75.7315 123.684 75.7488 123.618 75.7487H123.613ZM120.204 68.9367C120.13 68.9366 120.058 68.9144 119.997 68.8731C119.935 68.8317 119.888 68.7731 119.86 68.7046C119.494 67.8028 119.151 66.8812 118.84 65.964C118.812 65.872 118.821 65.7729 118.866 65.6876C118.91 65.6023 118.985 65.5374 119.076 65.5066C119.167 65.4758 119.266 65.4815 119.353 65.5225C119.44 65.5635 119.507 65.6366 119.541 65.7264C119.847 66.6293 120.186 67.5378 120.547 68.4264C120.57 68.4826 120.578 68.5437 120.572 68.6041C120.566 68.6645 120.545 68.7225 120.511 68.7729C120.477 68.8233 120.431 68.8646 120.378 68.8931C120.324 68.9217 120.264 68.9366 120.204 68.9367Z" fill="#A2518E"/>
<path d="M117.897 61.656C117.814 61.656 117.733 61.6279 117.667 61.5762C117.602 61.5246 117.556 61.4523 117.536 61.3712C117.423 60.8858 117.317 60.4 117.217 59.9139C117.198 59.8178 117.217 59.7179 117.271 59.6361C117.326 59.5543 117.41 59.4974 117.506 59.4779C117.602 59.4583 117.702 59.4778 117.784 59.5319C117.866 59.5861 117.923 59.6705 117.942 59.7666C118.04 60.2461 118.145 60.7226 118.258 61.1963C118.278 61.2911 118.261 61.3902 118.209 61.4724C118.158 61.5546 118.076 61.6134 117.982 61.6362C117.954 61.6455 117.926 61.6521 117.897 61.656Z" fill="#A2518E"/>
<path d="M124.175 23.8997C124.109 23.8996 124.044 23.8818 123.987 23.8481C123.93 23.8145 123.883 23.7662 123.851 23.7083C123.819 23.6504 123.803 23.585 123.805 23.5188C123.807 23.4527 123.826 23.3883 123.861 23.3322C124.127 22.9121 124.398 22.4953 124.675 22.0818C124.731 22.0035 124.816 21.9502 124.911 21.9331C125.005 21.916 125.103 21.9366 125.183 21.9903C125.263 22.0441 125.319 22.1269 125.339 22.2212C125.359 22.3154 125.341 22.4138 125.29 22.4953C125.015 22.9022 124.748 23.3128 124.488 23.727C124.455 23.7799 124.408 23.8234 124.354 23.8536C124.299 23.8838 124.237 23.8996 124.175 23.8997Z" fill="#A2518E"/>
<path d="M213.659 36.3028C213.579 36.3029 213.501 36.277 213.437 36.229C213.373 36.181 213.327 36.1135 213.304 36.0367C213.022 35.0711 212.704 34.1032 212.362 33.1563C212.344 33.1102 212.335 33.0609 212.336 33.0114C212.338 32.9619 212.349 32.9132 212.369 32.8681C212.39 32.823 212.419 32.7825 212.456 32.749C212.492 32.7154 212.535 32.6895 212.581 32.6727C212.628 32.656 212.678 32.6487 212.727 32.6514C212.776 32.6541 212.825 32.6666 212.869 32.6884C212.914 32.7101 212.954 32.7405 212.986 32.7778C213.019 32.8151 213.043 32.8586 213.059 32.9056C213.406 33.8646 213.728 34.8478 214.015 35.8277C214.028 35.8744 214.033 35.9233 214.028 35.9717C214.023 36.02 214.008 36.0669 213.985 36.1096C213.961 36.1524 213.93 36.19 213.892 36.2206C213.854 36.2511 213.811 36.2738 213.764 36.2874C213.73 36.2978 213.695 36.303 213.659 36.3028ZM210.79 28.8243C210.721 28.8239 210.653 28.8041 210.595 28.7671C210.537 28.7302 210.49 28.6776 210.46 28.6153C210.02 27.7069 209.553 26.8018 209.062 25.9264C209.017 25.8408 209.007 25.7411 209.035 25.6484C209.062 25.5557 209.125 25.4774 209.209 25.4302C209.294 25.383 209.393 25.3706 209.486 25.3957C209.58 25.4208 209.66 25.4814 209.709 25.5645C210.206 26.4532 210.683 27.3715 211.127 28.2942C211.148 28.338 211.16 28.3854 211.163 28.434C211.166 28.4825 211.159 28.531 211.143 28.5769C211.127 28.6228 211.102 28.665 211.069 28.7013C211.037 28.7375 210.998 28.767 210.954 28.788C210.903 28.8142 210.847 28.8282 210.79 28.8287V28.8243ZM206.747 21.9155C206.687 21.9156 206.629 21.9013 206.575 21.8737C206.522 21.8461 206.477 21.8061 206.443 21.7571C205.867 20.9345 205.257 20.1173 204.63 19.3299C204.571 19.2528 204.544 19.1556 204.556 19.0592C204.568 18.9628 204.617 18.8748 204.693 18.8143C204.769 18.7538 204.866 18.7255 204.962 18.7355C205.059 18.7455 205.148 18.7931 205.21 18.868C205.845 19.6686 206.466 20.4978 207.05 21.3326C207.088 21.388 207.111 21.453 207.116 21.5206C207.12 21.5881 207.106 21.6555 207.075 21.7155C207.044 21.7756 206.997 21.826 206.939 21.8612C206.881 21.8964 206.815 21.9152 206.747 21.9155ZM127.952 18.6832C127.882 18.6832 127.813 18.6631 127.754 18.6254C127.695 18.5877 127.648 18.534 127.618 18.4704C127.588 18.4068 127.577 18.3361 127.586 18.2664C127.595 18.1968 127.624 18.1312 127.669 18.0772C128.317 17.2942 129.003 16.5188 129.703 15.7677C129.771 15.7004 129.863 15.6622 129.959 15.661C130.055 15.6598 130.147 15.6958 130.217 15.7614C130.287 15.827 130.329 15.9171 130.334 16.0128C130.338 16.1085 130.306 16.2024 130.243 16.2747C129.552 17.0104 128.878 17.7748 128.238 18.5457C128.204 18.5891 128.161 18.6244 128.111 18.6489C128.062 18.6735 128.008 18.6867 127.952 18.6876V18.6832ZM201.644 15.7457C201.595 15.746 201.546 15.7364 201.5 15.7175C201.454 15.6986 201.413 15.6708 201.378 15.6357C200.681 14.9165 199.948 14.206 199.205 13.5285C199.169 13.4958 199.14 13.4563 199.119 13.4123C199.098 13.3682 199.086 13.3205 199.084 13.2719C199.081 13.2232 199.088 13.1745 199.105 13.1287C199.121 13.0828 199.146 13.0406 199.179 13.0045C199.212 12.9684 199.251 12.9391 199.295 12.9182C199.339 12.8974 199.387 12.8854 199.436 12.883C199.484 12.8806 199.533 12.8878 199.579 12.9042C199.625 12.9206 199.667 12.9459 199.703 12.9786C200.46 13.6682 201.202 14.3875 201.91 15.1177C201.979 15.1884 202.016 15.2831 202.014 15.3813C202.013 15.4794 201.972 15.5729 201.902 15.6412C201.868 15.6754 201.828 15.7026 201.784 15.7213C201.74 15.74 201.692 15.7498 201.644 15.7501V15.7457ZM133.542 12.9534C133.467 12.953 133.394 12.9298 133.332 12.8868C133.271 12.8438 133.224 12.7831 133.197 12.7127C133.171 12.6423 133.166 12.5656 133.185 12.4927C133.203 12.4198 133.243 12.3541 133.299 12.3045C134.069 11.6314 134.87 10.9748 135.676 10.3513C135.715 10.3215 135.759 10.2996 135.806 10.2869C135.853 10.2742 135.902 10.2708 135.95 10.2771C135.998 10.2833 136.045 10.299 136.087 10.3232C136.129 10.3475 136.167 10.3798 136.196 10.4183C136.226 10.4569 136.248 10.501 136.261 10.548C136.273 10.595 136.277 10.644 136.27 10.6923C136.264 10.7406 136.249 10.7873 136.224 10.8295C136.2 10.8717 136.168 10.9088 136.129 10.9385C135.334 11.5511 134.546 12.1989 133.787 12.8621C133.72 12.9228 133.633 12.9569 133.542 12.9577V12.9534ZM195.627 10.47C195.548 10.4697 195.471 10.4443 195.407 10.3975C194.6 9.79697 193.764 9.21519 192.922 8.6675C192.844 8.61199 192.791 8.52849 192.773 8.43448C192.755 8.34047 192.774 8.24322 192.827 8.16309C192.879 8.08296 192.96 8.02616 193.053 8.00456C193.146 7.98296 193.244 7.99825 193.327 8.04722C194.181 8.60371 195.03 9.19429 195.85 9.80687C195.912 9.85336 195.958 9.91825 195.981 9.99234C196.005 10.0664 196.004 10.146 195.98 10.2198C195.955 10.2936 195.909 10.3579 195.846 10.4036C195.783 10.4493 195.707 10.4741 195.63 10.4744L195.627 10.47ZM139.978 8.18579C139.898 8.18573 139.82 8.15947 139.755 8.11097C139.691 8.06248 139.644 7.99439 139.622 7.91699C139.6 7.83959 139.604 7.7571 139.633 7.68198C139.662 7.60687 139.714 7.54321 139.783 7.50063C140.649 6.96174 141.542 6.44154 142.443 5.96094C142.486 5.93533 142.534 5.91867 142.583 5.91194C142.633 5.90521 142.683 5.90856 142.731 5.92179C142.779 5.93501 142.824 5.95784 142.863 5.9889C142.903 6.01996 142.935 6.05861 142.959 6.10253C142.983 6.14644 142.997 6.19472 143.002 6.24446C143.007 6.29419 143.001 6.34437 142.986 6.39195C142.971 6.43954 142.946 6.48356 142.914 6.52138C142.881 6.55919 142.841 6.59002 142.796 6.612C141.91 7.09041 141.028 7.60181 140.174 8.13411C140.115 8.171 140.046 8.19043 139.976 8.19019L139.978 8.18579ZM188.84 6.23588C188.781 6.23588 188.722 6.22154 188.67 6.19409C187.777 5.73438 186.858 5.29557 185.937 4.89085C185.847 4.85132 185.777 4.77773 185.741 4.68626C185.706 4.59479 185.708 4.49293 185.747 4.40309C185.787 4.31326 185.861 4.2428 185.952 4.20722C186.044 4.17164 186.145 4.17386 186.235 4.21338C187.17 4.6236 188.105 5.06901 189.01 5.53312C189.084 5.57138 189.142 5.63323 189.176 5.70875C189.211 5.78428 189.219 5.86913 189.199 5.94971C189.179 6.0303 189.133 6.10197 189.068 6.15325C189.003 6.20453 188.922 6.23247 188.84 6.23258V6.23588ZM147.095 4.52352C147.009 4.52399 146.926 4.49458 146.86 4.44034C146.793 4.3861 146.747 4.31041 146.731 4.22625C146.714 4.1421 146.727 4.05473 146.768 3.97914C146.808 3.90354 146.874 3.84444 146.953 3.81196C147.894 3.42044 148.861 3.05311 149.828 2.71988C149.874 2.70399 149.923 2.69731 149.971 2.7002C150.02 2.7031 150.067 2.71553 150.111 2.73677C150.155 2.75801 150.194 2.78765 150.226 2.824C150.258 2.86036 150.283 2.9027 150.299 2.94863C150.315 2.99456 150.321 3.04317 150.318 3.09168C150.316 3.14019 150.303 3.18765 150.282 3.23136C150.261 3.27507 150.231 3.31417 150.195 3.34642C150.158 3.37867 150.116 3.40345 150.07 3.41934C149.117 3.74927 148.164 4.11 147.237 4.49603C147.192 4.51422 147.144 4.52356 147.095 4.52352ZM181.45 3.16089C181.413 3.16045 181.376 3.15452 181.34 3.14329C180.384 2.83315 179.407 2.54941 178.432 2.29866C178.385 2.2866 178.341 2.26537 178.302 2.23619C178.263 2.207 178.23 2.17043 178.205 2.12856C178.18 2.08668 178.164 2.04034 178.157 1.99216C178.15 1.94398 178.153 1.8949 178.165 1.84775C178.177 1.80059 178.198 1.75628 178.228 1.71733C178.257 1.67838 178.293 1.64556 178.335 1.62074C178.377 1.59593 178.423 1.5796 178.472 1.57269C178.52 1.56579 178.569 1.56844 178.616 1.5805C179.606 1.83565 180.596 2.1249 181.569 2.43943C181.653 2.46623 181.724 2.52198 181.77 2.59669C181.817 2.6714 181.835 2.76017 181.822 2.84706C181.808 2.93395 181.764 3.01328 181.698 3.0708C181.632 3.12831 181.547 3.16026 181.459 3.16089H181.45ZM154.712 2.06111C154.622 2.05994 154.536 2.02601 154.469 1.96567C154.402 1.90532 154.359 1.82268 154.349 1.73321C154.338 1.64373 154.361 1.55354 154.412 1.47949C154.464 1.40544 154.54 1.3526 154.628 1.33085C155.624 1.0966 156.638 0.890941 157.642 0.718275C157.739 0.701649 157.838 0.724116 157.918 0.780732C157.998 0.837347 158.053 0.923473 158.069 1.02016C158.086 1.11686 158.063 1.21619 158.007 1.29632C157.95 1.37645 157.864 1.4308 157.767 1.44743C156.778 1.6168 155.779 1.82026 154.798 2.05121C154.77 2.05775 154.741 2.06107 154.712 2.06111ZM173.663 1.31986C173.644 1.32145 173.625 1.32145 173.606 1.31986C172.617 1.16699 171.6 1.04381 170.599 0.952529C170.501 0.943633 170.411 0.896284 170.348 0.8209C170.285 0.745516 170.255 0.648272 170.264 0.550559C170.273 0.452846 170.32 0.362669 170.395 0.299866C170.471 0.237063 170.568 0.206778 170.666 0.215674C171.683 0.308056 172.71 0.435632 173.719 0.588502C173.812 0.60095 173.897 0.64875 173.957 0.722091C174.016 0.795432 174.046 0.888748 174.038 0.98289C174.031 1.07703 173.988 1.16486 173.918 1.22834C173.848 1.29182 173.757 1.32614 173.663 1.32426V1.31986ZM162.627 0.865645C162.529 0.869 162.434 0.833285 162.362 0.766357C162.291 0.699429 162.249 0.606771 162.245 0.508767C162.242 0.410762 162.278 0.315437 162.344 0.243766C162.411 0.172094 162.504 0.129946 162.602 0.126592C163.618 0.0551061 164.652 0.0166131 165.675 0.00561523C165.769 0.0107775 165.859 0.0520196 165.924 0.120856C165.989 0.189692 166.025 0.280892 166.025 0.375694C166.025 0.470497 165.989 0.561692 165.924 0.630529C165.859 0.699365 165.769 0.740607 165.675 0.74577C164.667 0.754568 163.649 0.794158 162.647 0.864544L162.627 0.865645Z" fill="#A2518E"/>
<path d="M215.068 42.6067C214.98 42.6065 214.894 42.5748 214.828 42.5173C214.761 42.4599 214.716 42.3804 214.703 42.2933C214.629 41.8094 214.547 41.3266 214.454 40.8449C214.44 40.7501 214.463 40.6535 214.519 40.5754C214.575 40.4974 214.658 40.4439 214.753 40.4263C214.847 40.4086 214.944 40.4282 215.024 40.4808C215.104 40.5334 215.161 40.615 215.182 40.7085C215.273 41.1983 215.357 41.6884 215.434 42.1789C215.442 42.227 215.44 42.2761 215.428 42.3234C215.417 42.3707 215.396 42.4153 215.367 42.4546C215.339 42.494 215.302 42.5272 215.261 42.5526C215.219 42.5779 215.173 42.5948 215.125 42.6023C215.106 42.6049 215.087 42.6063 215.068 42.6067Z" fill="#A2518E"/>
<path d="M204.161 48.8018C204.171 48.6783 204.142 48.5549 204.078 48.4488C204.014 48.3427 203.919 48.2593 203.805 48.2101L197.168 45.3265C196.649 41.9387 195.582 38.6582 194.007 35.6143L197.67 29.3785C197.733 29.2718 197.761 29.1482 197.75 29.025C197.739 28.9018 197.689 28.7851 197.609 28.6912L191.967 22.0925C191.887 21.9985 191.779 21.932 191.659 21.9022C191.539 21.8724 191.412 21.8809 191.297 21.9264L184.564 24.5813C181.801 22.5541 178.726 20.9913 175.459 19.9545L173.639 12.9511C173.607 12.832 173.539 12.7257 173.445 12.6469C173.35 12.5681 173.233 12.5207 173.11 12.5112L164.456 11.837C164.333 11.8274 164.209 11.8564 164.103 11.9201C163.997 11.9837 163.914 12.0789 163.864 12.1922L160.981 18.8294C157.593 19.3487 154.313 20.4163 151.27 21.9902L145.034 18.3268C144.927 18.2644 144.803 18.2369 144.68 18.2479C144.556 18.2589 144.44 18.308 144.345 18.3884L137.747 24.0303C137.652 24.1107 137.585 24.2186 137.555 24.3389C137.525 24.4592 137.534 24.5859 137.58 24.7012L140.243 31.4252C138.216 34.1884 136.654 37.2639 135.617 40.5303L128.613 42.3505C128.494 42.3824 128.387 42.4506 128.309 42.5455C128.23 42.6405 128.183 42.7575 128.173 42.8806L127.499 51.5336C127.489 51.6571 127.518 51.7805 127.582 51.8866C127.646 51.9927 127.742 52.0762 127.855 52.1253L134.492 55.0089C135.011 58.3965 136.078 61.6769 137.652 64.7211L133.99 70.9569C133.927 71.0635 133.899 71.187 133.91 71.3102C133.921 71.4335 133.97 71.5502 134.05 71.6442L139.693 78.2429C139.774 78.3369 139.882 78.4035 140.002 78.4332C140.122 78.463 140.248 78.4545 140.363 78.409L147.09 75.7563C149.854 77.7831 152.929 79.3459 156.196 80.3831L158.017 87.3865C158.048 87.5058 158.116 87.6122 158.211 87.6911C158.306 87.7699 158.423 87.8172 158.546 87.8264L167.2 88.5006C167.323 88.5102 167.446 88.4812 167.553 88.4175C167.659 88.3539 167.742 88.2587 167.792 88.1454L170.674 81.5082C174.062 80.9904 177.342 79.9231 180.385 78.3485L186.621 82.0119C186.728 82.0742 186.851 82.1017 186.974 82.0907C187.098 82.0797 187.214 82.0306 187.308 81.9503L193.907 76.3084C194.001 76.2279 194.067 76.1202 194.097 76.0002C194.127 75.8802 194.119 75.7538 194.074 75.6387L191.422 68.9102C193.448 66.1466 195.01 63.0713 196.047 59.8051L203.041 57.985C203.16 57.953 203.266 57.8848 203.345 57.7899C203.424 57.6949 203.471 57.5779 203.481 57.4549L204.161 48.8018Z" fill="#A2518E"/>
<path opacity="0.7" d="M165.808 58.4326C163.674 58.4304 161.623 57.6042 160.083 56.1262C158.544 54.6483 157.635 52.633 157.545 50.5008C157.456 48.3685 158.194 46.2842 159.604 44.6828C161.015 43.0814 162.99 42.0867 165.116 41.9062C167.242 41.7256 169.356 42.3733 171.017 43.714C172.677 45.0547 173.756 46.9849 174.027 49.1016C174.298 51.2184 173.742 53.3582 172.474 55.0744C171.205 56.7907 169.323 57.9508 167.22 58.3127C166.753 58.3924 166.281 58.4325 165.808 58.4326ZM165.841 43.0137C165.431 43.0141 165.023 43.0491 164.619 43.1181C162.987 43.3977 161.503 44.2343 160.42 45.4854C159.336 46.7365 158.72 48.3247 158.676 49.9794C158.632 51.634 159.163 53.2527 160.179 54.5596C161.194 55.8665 162.632 56.7808 164.246 57.1466C165.86 57.5124 167.551 57.3072 169.031 56.5658C170.511 55.8245 171.688 54.5929 172.362 53.0809C173.036 51.569 173.164 49.8702 172.726 48.2742C172.287 46.6781 171.309 45.2834 169.957 44.3279C168.755 43.4728 167.316 43.0135 165.841 43.0137Z" fill="white"/>
<path opacity="0.7" d="M165.678 71.6708C165.111 71.6708 164.543 71.6488 163.973 71.6048C158.582 71.184 153.548 68.748 149.873 64.7821C146.197 60.8161 144.151 55.6113 144.141 50.2042C144.141 49.6382 144.163 49.0696 144.208 48.4984C144.574 43.8723 146.427 39.4888 149.49 36.0023C152.553 32.5158 156.661 30.1133 161.201 29.1534C165.741 28.1935 170.47 28.7278 174.682 30.6763C178.893 32.6249 182.362 35.8834 184.57 39.9652L183.593 40.4931C182.902 39.2167 182.078 38.0171 181.134 36.9144C178.512 33.8509 175.041 31.6334 171.159 30.5424C167.278 29.4513 163.159 29.5357 159.326 30.7849C155.492 32.034 152.114 34.3918 149.62 37.5602C147.126 40.7286 145.628 44.5653 145.314 48.5853C145.272 49.1264 145.251 49.6653 145.251 50.202C145.261 55.0363 146.988 59.71 150.123 63.3894C153.259 67.0688 157.6 69.5145 162.372 70.2904C167.143 71.0663 172.035 70.1218 176.175 67.6255C180.315 65.1291 183.434 61.2432 184.974 56.661L186.028 57.014C184.594 61.2772 181.86 64.9839 178.211 67.6129C174.562 70.2419 170.18 71.6611 165.682 71.6708H165.678Z" fill="white"/>
<path d="M251.211 86.4783C251.146 86.478 251.082 86.4605 251.025 86.4276C250.969 86.3947 250.923 86.3476 250.89 86.2909C250.858 86.2342 250.841 86.1701 250.842 86.1049C250.842 86.0397 250.86 85.9758 250.893 85.9196C251.142 85.4995 251.38 85.0705 251.6 84.6438C251.623 84.6005 251.653 84.562 251.69 84.5305C251.728 84.499 251.771 84.4752 251.817 84.4603C251.863 84.4454 251.912 84.4399 251.961 84.4439C252.009 84.4479 252.057 84.4615 252.1 84.4838C252.143 84.5061 252.182 84.5368 252.213 84.5739C252.245 84.6111 252.269 84.6542 252.284 84.7006C252.298 84.747 252.304 84.7959 252.3 84.8445C252.296 84.893 252.282 84.9403 252.26 84.9837C252.034 85.4236 251.789 85.8635 251.532 86.2968C251.499 86.3528 251.452 86.3992 251.396 86.4311C251.34 86.463 251.276 86.4792 251.211 86.4783Z" fill="#A2518E"/>
<path d="M227.313 98.8705H227.283C226.277 98.791 225.276 98.6533 224.285 98.4581C224.191 98.4365 224.11 98.3793 224.057 98.2985C224.005 98.2177 223.986 98.1198 224.005 98.0253C224.023 97.9309 224.078 97.8473 224.157 97.7924C224.236 97.7375 224.333 97.7155 224.428 97.7311C225.391 97.921 226.363 98.0551 227.342 98.1325C227.435 98.1424 227.521 98.1875 227.583 98.2586C227.644 98.3297 227.677 98.4215 227.673 98.5154C227.669 98.6094 227.63 98.6984 227.563 98.7646C227.496 98.8307 227.407 98.8689 227.313 98.8716V98.8705ZM232.152 98.7924C232.057 98.7925 231.966 98.7562 231.897 98.6911C231.828 98.6259 231.787 98.5368 231.782 98.4421C231.776 98.3474 231.808 98.2544 231.869 98.182C231.93 98.1097 232.017 98.0636 232.111 98.0533C233.086 97.9442 234.054 97.7786 235.01 97.5573C235.058 97.5464 235.107 97.5448 235.155 97.5528C235.202 97.5607 235.248 97.578 235.289 97.6037C235.331 97.6294 235.366 97.663 235.395 97.7025C235.423 97.742 235.443 97.7866 235.454 97.8339C235.465 97.8812 235.467 97.9302 235.459 97.9781C235.451 98.026 235.433 98.0719 235.408 98.1131C235.382 98.1543 235.348 98.19 235.309 98.2183C235.269 98.2465 235.225 98.2667 235.177 98.2777C234.194 98.5061 233.197 98.6773 232.194 98.7902L232.152 98.7924ZM219.712 97.0767C219.665 97.0767 219.617 97.0677 219.573 97.0503C218.637 96.6698 217.725 96.2346 216.841 95.7471C216.798 95.7237 216.761 95.6922 216.73 95.6543C216.7 95.6164 216.678 95.5729 216.664 95.5262C216.65 95.4796 216.646 95.4308 216.652 95.3825C216.657 95.3343 216.672 95.2876 216.695 95.245C216.718 95.2025 216.75 95.165 216.788 95.1347C216.826 95.1043 216.869 95.0817 216.916 95.0682C216.963 95.0547 217.011 95.0505 217.06 95.0558C217.108 95.0611 217.155 95.0759 217.197 95.0993C218.057 95.5721 218.943 95.9944 219.852 96.3641C219.932 96.396 219.998 96.4549 220.039 96.5305C220.081 96.6062 220.094 96.6938 220.078 96.7783C220.061 96.8628 220.015 96.9389 219.949 96.9933C219.882 97.0478 219.798 97.0773 219.712 97.0767ZM239.687 96.7468C239.602 96.7465 239.52 96.7173 239.454 96.6641C239.389 96.6108 239.343 96.5366 239.325 96.4538C239.308 96.3711 239.319 96.2848 239.357 96.2092C239.395 96.1337 239.458 96.0734 239.535 96.0385C240.431 95.638 241.302 95.1852 242.145 94.6825C242.229 94.638 242.326 94.6274 242.418 94.653C242.509 94.6786 242.588 94.7384 242.636 94.82C242.685 94.9016 242.701 94.9988 242.68 95.0915C242.659 95.1843 242.603 95.2654 242.524 95.3182C241.656 95.8357 240.759 96.3021 239.837 96.7149C239.791 96.7347 239.741 96.7448 239.69 96.7446L239.687 96.7468ZM213.022 93.0614C212.936 93.0613 212.852 93.0309 212.786 92.9756C212.011 92.3285 211.274 91.6366 210.58 90.9037C210.512 90.8325 210.476 90.7374 210.478 90.6393C210.481 90.5413 210.522 90.4482 210.594 90.3807C210.665 90.3132 210.76 90.2767 210.858 90.2793C210.956 90.2819 211.049 90.3233 211.116 90.3945C211.792 91.106 212.507 91.7779 213.26 92.4071C213.32 92.4554 213.364 92.5213 213.385 92.5957C213.406 92.6701 213.403 92.7492 213.377 92.8219C213.351 92.8946 213.303 92.9573 213.239 93.0012C213.175 93.0452 213.1 93.0681 213.022 93.0669V93.0614ZM246.236 92.5027C246.161 92.5029 246.088 92.4802 246.026 92.4377C245.964 92.3953 245.917 92.335 245.89 92.265C245.863 92.1949 245.858 92.1184 245.876 92.0455C245.894 91.9727 245.933 91.907 245.989 91.8572L246.209 91.6603C246.862 91.065 247.483 90.4362 248.07 89.7764C248.137 89.7104 248.227 89.6723 248.321 89.67C248.415 89.6677 248.506 89.7013 248.576 89.764C248.646 89.8266 248.69 89.9136 248.698 90.0072C248.706 90.1009 248.678 90.1941 248.62 90.268C248.016 90.9473 247.377 91.5948 246.705 92.208L246.485 92.4093C246.418 92.4684 246.331 92.5009 246.241 92.5005L246.236 92.5027ZM207.859 87.2062C207.797 87.2065 207.735 87.191 207.681 87.1612C207.626 87.1314 207.58 87.0882 207.547 87.0357C207.002 86.1858 206.507 85.3044 206.066 84.3962C206.045 84.3526 206.033 84.3051 206.03 84.2567C206.027 84.2082 206.034 84.1597 206.05 84.1138C206.066 84.068 206.091 84.0257 206.123 83.9894C206.155 83.9532 206.194 83.9236 206.238 83.9024C206.282 83.8813 206.329 83.8689 206.377 83.8661C206.426 83.8633 206.474 83.87 206.52 83.886C206.566 83.9019 206.608 83.9267 206.645 83.959C206.681 83.9912 206.71 84.0303 206.732 84.074C207.161 84.956 207.641 85.8124 208.17 86.6387C208.206 86.6946 208.226 86.7591 208.229 86.8255C208.231 86.8919 208.216 86.9577 208.184 87.016C208.152 87.0743 208.105 87.123 208.048 87.1568C207.991 87.1907 207.925 87.2085 207.859 87.2084V87.2062Z" fill="#A2518E"/>
<path d="M204.715 80.0454C204.633 80.0452 204.554 80.018 204.489 79.9681C204.424 79.9182 204.378 79.8483 204.357 79.7693C204.23 79.2887 204.114 78.796 204.015 78.3077C204.006 78.2602 204.005 78.2111 204.015 78.1634C204.024 78.1158 204.042 78.0704 204.069 78.0299C204.096 77.9894 204.131 77.9546 204.171 77.9275C204.211 77.9003 204.256 77.8813 204.304 77.8717C204.352 77.862 204.401 77.8618 204.448 77.8711C204.496 77.8803 204.541 77.8989 204.582 77.9257C204.622 77.9525 204.657 77.987 204.684 78.0273C204.711 78.0676 204.73 78.1128 204.74 78.1604C204.837 78.6344 204.949 79.1117 205.07 79.5802C205.095 79.6751 205.081 79.776 205.031 79.8608C204.982 79.9455 204.901 80.0071 204.806 80.0322C204.776 80.0407 204.746 80.0451 204.715 80.0454Z" fill="#A2518E"/>
<path d="M207.769 59.9513C207.703 59.951 207.638 59.9331 207.582 59.8993C207.525 59.8656 207.478 59.8173 207.446 59.7594C207.414 59.7015 207.399 59.6362 207.401 59.5702C207.402 59.5041 207.422 59.4398 207.457 59.3838C207.722 58.9615 208.007 58.5425 208.294 58.1367C208.353 58.062 208.438 58.0129 208.533 57.9995C208.627 57.9862 208.723 58.0095 208.8 58.0648C208.877 58.12 208.931 58.203 208.949 58.2964C208.967 58.3898 208.948 58.4866 208.897 58.5667C208.615 58.9604 208.347 59.3684 208.083 59.7765C208.05 59.8299 208.004 59.874 207.949 59.9046C207.894 59.9352 207.832 59.9513 207.769 59.9513Z" fill="#A2518E"/>
<path d="M252.741 63.552C252.669 63.5527 252.598 63.5322 252.538 63.4931C252.477 63.454 252.429 63.398 252.4 63.332C252.023 62.444 251.594 61.5785 251.117 60.7398C251.074 60.6549 251.066 60.5569 251.093 60.4659C251.12 60.3749 251.182 60.2979 251.264 60.2509C251.347 60.2039 251.445 60.1904 251.537 60.2132C251.629 60.2361 251.709 60.2935 251.76 60.3736C252.251 61.2371 252.692 62.1283 253.08 63.0428C253.118 63.1333 253.119 63.2353 253.082 63.3264C253.045 63.4175 252.973 63.4903 252.883 63.5289C252.838 63.5459 252.79 63.5537 252.741 63.552ZM248.701 57.0204C248.647 57.0204 248.594 57.0088 248.546 56.9864C248.497 56.964 248.454 56.9313 248.419 56.8906C248.23 56.6706 248.036 56.4507 247.838 56.2307C247.386 55.7347 246.91 55.253 246.422 54.801C246.384 54.7683 246.354 54.7284 246.332 54.6836C246.31 54.6389 246.297 54.5902 246.295 54.5404C246.292 54.4907 246.3 54.4409 246.317 54.3941C246.334 54.3473 246.36 54.3044 246.394 54.268C246.428 54.2316 246.469 54.2025 246.515 54.1823C246.56 54.1621 246.609 54.1513 246.659 54.1506C246.709 54.1498 246.758 54.1591 246.805 54.1779C246.851 54.1967 246.893 54.2246 246.928 54.2599C247.43 54.7306 247.918 55.2277 248.385 55.7369C248.59 55.9569 248.789 56.1827 248.983 56.4144C249.029 56.4682 249.059 56.5341 249.069 56.6043C249.079 56.6746 249.068 56.7462 249.038 56.8105C249.009 56.8749 248.961 56.9293 248.901 56.9673C248.841 57.0053 248.772 57.0252 248.701 57.0248V57.0204ZM211.713 55.121C211.639 55.1207 211.567 55.0984 211.506 55.0569C211.445 55.0153 211.398 54.9566 211.37 54.8881C211.343 54.8195 211.337 54.7444 211.352 54.6723C211.368 54.6001 211.404 54.5343 211.458 54.4832C211.604 54.3402 211.756 54.1987 211.912 54.0586C212.491 53.5307 213.1 53.0226 213.722 52.5508C213.76 52.5183 213.805 52.4938 213.853 52.4791C213.901 52.4643 213.952 52.4595 214.002 52.465C214.052 52.4705 214.101 52.4861 214.144 52.5109C214.188 52.5357 214.227 52.5692 214.257 52.6093C214.287 52.6494 214.309 52.6953 214.322 52.7442C214.334 52.7931 214.336 52.8439 214.328 52.8936C214.319 52.9433 214.301 52.9908 214.274 53.0332C214.247 53.0756 214.211 53.1121 214.17 53.1403C213.566 53.5989 212.973 54.0927 212.41 54.6052C212.262 54.7416 212.113 54.8802 211.97 55.0188C211.901 55.0847 211.809 55.1214 211.713 55.121ZM242.905 51.9812C242.835 51.9811 242.766 51.9613 242.707 51.924C241.891 51.409 241.047 50.9416 240.177 50.5239C240.092 50.4793 240.028 50.4034 239.998 50.3122C239.968 50.221 239.974 50.1217 240.016 50.0351C240.057 49.9486 240.131 49.8816 240.221 49.8482C240.311 49.8149 240.41 49.8178 240.498 49.8564C241.394 50.2864 242.263 50.7678 243.103 51.2982C243.171 51.3408 243.223 51.4045 243.252 51.4796C243.281 51.5548 243.284 51.6372 243.262 51.7145C243.24 51.7918 243.193 51.8596 243.128 51.9077C243.064 51.9559 242.985 51.9816 242.905 51.9812ZM217.998 50.6999C217.915 50.6998 217.834 50.6715 217.768 50.6198C217.703 50.568 217.657 50.4958 217.638 50.4146C217.619 50.3335 217.627 50.2483 217.663 50.1728C217.698 50.0972 217.757 50.0357 217.832 49.9982C218.722 49.5569 219.636 49.1669 220.57 48.8303C220.662 48.8001 220.762 48.8069 220.849 48.8492C220.936 48.8915 221.002 48.966 221.035 49.0569C221.068 49.1478 221.064 49.2478 221.024 49.3357C220.984 49.4236 220.911 49.4924 220.821 49.5275C219.913 49.8545 219.024 50.2334 218.16 50.6625C218.109 50.6872 218.054 50.7 217.998 50.6999ZM235.871 48.9084C235.838 48.9083 235.806 48.9039 235.775 48.8952C234.842 48.6481 233.896 48.4546 232.942 48.3156C232.894 48.3086 232.847 48.2922 232.806 48.2673C232.764 48.2423 232.727 48.2094 232.698 48.1704C232.669 48.1314 232.648 48.0871 232.636 48.0399C232.624 47.9927 232.621 47.9436 232.628 47.8955C232.635 47.8471 232.651 47.8006 232.675 47.7585C232.7 47.7164 232.733 47.6798 232.772 47.6506C232.811 47.6215 232.855 47.6005 232.903 47.5889C232.95 47.5773 232.999 47.5754 233.047 47.5831C234.031 47.726 235.005 47.925 235.965 48.1792C236.052 48.2021 236.128 48.2559 236.179 48.3307C236.229 48.4054 236.25 48.496 236.239 48.5854C236.227 48.6748 236.183 48.7569 236.116 48.8164C236.048 48.8758 235.961 48.9085 235.871 48.9084ZM225.313 48.3662C225.22 48.3646 225.132 48.3288 225.065 48.2655C224.998 48.2023 224.956 48.1163 224.949 48.0243C224.942 47.9323 224.97 47.841 225.026 47.7681C225.083 47.6953 225.165 47.6462 225.255 47.6304C226.237 47.4755 227.226 47.3768 228.218 47.3346C228.268 47.3308 228.318 47.337 228.365 47.3529C228.412 47.3687 228.455 47.3939 228.493 47.4269C228.53 47.4599 228.56 47.5 228.581 47.5449C228.603 47.5898 228.615 47.6385 228.617 47.6882C228.619 47.7378 228.611 47.7874 228.594 47.834C228.576 47.8805 228.55 47.9231 228.515 47.9592C228.481 47.9953 228.44 48.0241 228.395 48.0439C228.349 48.0638 228.3 48.0742 228.25 48.0747C227.286 48.1156 226.324 48.2114 225.371 48.3618C225.351 48.3656 225.331 48.3678 225.312 48.3684L225.313 48.3662Z" fill="#A2518E"/>
<path d="M254.455 69.5614C254.366 69.5611 254.281 69.5294 254.214 69.472C254.147 69.4145 254.103 69.3351 254.089 69.2479C254.015 68.7695 253.924 68.2867 253.823 67.8182C253.808 67.7244 253.829 67.6282 253.883 67.5497C253.936 67.4711 254.018 67.4161 254.111 67.396C254.204 67.376 254.301 67.3924 254.382 67.4419C254.463 67.4914 254.522 67.5702 254.547 67.662C254.657 68.1492 254.744 68.6518 254.821 69.1379C254.828 69.186 254.826 69.2351 254.815 69.2824C254.803 69.3298 254.783 69.3743 254.754 69.4137C254.725 69.453 254.689 69.4863 254.648 69.5116C254.606 69.5369 254.56 69.5538 254.512 69.5614C254.493 69.5624 254.474 69.5624 254.455 69.5614Z" fill="#A2518E"/>
<path d="M248.854 72.5636C248.859 72.5001 248.843 72.4367 248.811 72.3821C248.778 72.3275 248.729 72.2845 248.67 72.259L245.261 70.7787C244.995 69.0381 244.447 67.3527 243.638 65.789L245.519 62.5864C245.551 62.5315 245.566 62.4681 245.56 62.4048C245.554 62.3415 245.529 62.2816 245.487 62.2334L242.59 58.845C242.548 58.7965 242.493 58.7622 242.431 58.7468C242.369 58.7314 242.304 58.7357 242.245 58.7592L238.79 60.1218C237.37 59.0807 235.79 58.2779 234.112 57.7452L233.178 54.1478C233.162 54.0861 233.127 54.0309 233.078 53.9901C233.029 53.9492 232.968 53.9248 232.905 53.9201L228.46 53.5737C228.396 53.5687 228.333 53.5836 228.279 53.6163C228.224 53.6491 228.181 53.698 228.156 53.7563L226.675 57.1656C224.935 57.4325 223.25 57.9808 221.686 58.7889L218.482 56.9071C218.427 56.8751 218.364 56.861 218.301 56.8667C218.237 56.8724 218.178 56.8977 218.129 56.939L214.741 59.837C214.693 59.8783 214.658 59.9338 214.643 59.9955C214.628 60.0572 214.633 60.1222 214.656 60.1812L216.019 63.6378C214.977 65.0569 214.175 66.6364 213.642 68.3141L210.044 69.25C209.982 69.2663 209.928 69.3012 209.887 69.3498C209.846 69.3984 209.821 69.4584 209.816 69.5216L209.47 73.967C209.465 74.0304 209.48 74.0937 209.513 74.1481C209.546 74.2025 209.595 74.2453 209.653 74.2705L213.063 75.7519C213.328 77.4921 213.877 79.1772 214.686 80.7405L212.804 83.9442C212.772 83.9989 212.757 84.0623 212.763 84.1256C212.768 84.1889 212.794 84.2489 212.835 84.2972L215.734 87.6856C215.775 87.7338 215.831 87.768 215.892 87.7833C215.954 87.7987 216.019 87.7945 216.078 87.7714L219.534 86.4088C220.954 87.4495 222.533 88.2522 224.211 88.7854L225.147 92.3817C225.163 92.4433 225.198 92.4984 225.247 92.5392C225.296 92.58 225.356 92.6045 225.42 92.6094L229.865 92.9558C229.928 92.9606 229.992 92.9457 230.046 92.9129C230.1 92.8802 230.143 92.8314 230.169 92.7732L231.65 89.3639C233.39 89.0971 235.075 88.5484 236.639 87.7395L239.842 89.6213C239.897 89.6536 239.96 89.668 240.024 89.6625C240.087 89.6569 240.147 89.6318 240.195 89.5905L243.584 86.6914C243.632 86.6502 243.666 86.5947 243.682 86.533C243.697 86.4712 243.692 86.4062 243.668 86.3472L242.304 82.8928C243.345 81.4733 244.148 79.8934 244.68 78.2154L248.279 77.2806C248.34 77.2643 248.395 77.2294 248.436 77.1808C248.476 77.1322 248.501 77.0722 248.506 77.0089L248.854 72.5636Z" fill="#A2518E"/>
<path opacity="0.7" d="M229.15 77.781C227.983 77.7811 226.86 77.3302 226.017 76.5224C225.174 75.7147 224.675 74.6124 224.625 73.4458C224.575 72.2792 224.978 71.1384 225.749 70.2615C226.52 69.3846 227.6 68.8394 228.763 68.7397C229.927 68.64 231.084 68.9935 231.993 69.7264C232.902 70.4593 233.492 71.5149 233.642 72.673C233.791 73.8311 233.487 75.0021 232.794 75.9416C232.1 76.881 231.071 77.5164 229.92 77.715C229.666 77.7587 229.408 77.7807 229.15 77.781ZM229.165 69.8625C228.353 69.862 227.568 70.1518 226.951 70.6795C226.335 71.2072 225.927 71.938 225.802 72.7399C225.678 73.5419 225.844 74.362 226.271 75.0522C226.698 75.7424 227.358 76.2571 228.131 76.5033C228.904 76.7495 229.74 76.711 230.488 76.3948C231.235 76.0785 231.845 75.5054 232.206 74.7789C232.568 74.0524 232.658 73.2205 232.46 72.4334C232.262 71.6463 231.789 70.956 231.127 70.4872C230.554 70.0802 229.868 69.8618 229.165 69.8625Z" fill="white"/>
<path opacity="0.7" d="M229.086 84.5811C228.788 84.5811 228.488 84.5701 228.188 84.5459C226.333 84.4014 224.542 83.8017 222.974 82.7998C221.406 81.7978 220.11 80.4247 219.199 78.8019C218.289 77.1791 217.792 75.3569 217.754 73.4965C217.716 71.6361 218.138 69.7951 218.981 68.1365C219.825 66.478 221.064 65.053 222.59 63.9879C224.116 62.9228 225.881 62.2504 227.728 62.0303C229.576 61.8103 231.449 62.0493 233.183 62.7262C234.916 63.4032 236.456 64.4971 237.665 65.9112C237.697 65.9475 237.729 65.9849 237.76 66.0212C238.199 66.5474 238.589 67.1124 238.925 67.7093V67.7159L238.941 67.7423C238.948 67.7577 238.957 67.7731 238.966 67.7885L238.98 67.8138L239.024 67.8952L238.048 68.4231C237.702 67.7843 237.289 67.1837 236.817 66.6316C235.352 64.9196 233.362 63.7406 231.157 63.2782C228.952 62.8159 226.656 63.0964 224.628 64.0758C222.599 65.0552 220.951 66.6786 219.941 68.6927C218.932 70.7068 218.617 72.9984 219.047 75.21C219.476 77.4216 220.626 79.4289 222.316 80.9188C224.006 82.4087 226.141 83.2974 228.389 83.4463C230.637 83.5952 232.871 82.996 234.743 81.742C236.615 80.488 238.019 78.6498 238.736 76.5142L239.791 76.8672C239.035 79.1106 237.596 81.061 235.675 82.4444C233.754 83.8278 231.448 84.5746 229.081 84.58L229.086 84.5811Z" fill="white"/>
<path d="M156.986 124.304C157.437 123.881 157.973 123.559 158.558 123.358C159.142 123.156 159.763 123.081 160.379 123.136C173.705 124.335 198.569 117.915 214.818 101.289C215.946 100.134 218.007 100.787 219.296 101.753C237.369 115.26 267.326 118.057 277.724 118.629C278.766 118.688 279.753 119.116 280.508 119.836C281.263 120.556 281.736 121.522 281.844 122.56C291.302 213.901 231.829 247 219.494 252.843C218.829 253.157 218.096 253.299 217.362 253.257C216.628 253.214 215.916 252.989 215.292 252.6C153.814 214.308 156.447 164.508 155.597 127.613C155.583 126.995 155.699 126.381 155.939 125.811C156.178 125.24 156.535 124.727 156.986 124.304Z" fill="#A2518E"/>
<path opacity="0.61" d="M217.833 246.208C217.554 246.209 217.28 246.129 217.045 245.979C193.476 230.912 178.112 212.902 170.084 190.916C162.911 171.279 162.559 151.284 162.25 133.643L162.207 131.291C162.204 131.098 162.24 130.905 162.312 130.725C162.384 130.546 162.491 130.382 162.627 130.244C162.763 130.106 162.926 129.997 163.104 129.923C163.283 129.848 163.475 129.81 163.669 129.811C178.264 129.811 200.172 123.366 216.238 108.969C216.479 108.754 216.783 108.624 217.105 108.601C217.427 108.578 217.747 108.662 218.016 108.84C235.669 120.554 260.853 123.966 274.293 124.956C274.637 124.981 274.961 125.127 275.207 125.369C275.454 125.611 275.605 125.932 275.635 126.276C278.76 161.917 271.346 192.054 253.602 215.852C240.35 233.626 224.635 242.887 218.494 246.043C218.29 246.15 218.063 246.207 217.833 246.208ZM218.222 245.517L218.359 245.783L218.222 245.517C224.327 242.379 239.947 233.174 253.125 215.5C270.779 191.823 278.152 161.823 275.042 126.334C275.025 126.131 274.936 125.941 274.791 125.798C274.646 125.654 274.455 125.567 274.252 125.553C260.753 124.563 235.455 121.128 217.687 109.338C217.528 109.234 217.34 109.184 217.15 109.198C216.961 109.212 216.781 109.288 216.64 109.414C200.454 123.917 178.38 130.409 163.682 130.409C163.565 130.407 163.448 130.429 163.34 130.474C163.231 130.518 163.133 130.584 163.051 130.668C162.971 130.748 162.908 130.844 162.866 130.949C162.824 131.054 162.804 131.167 162.807 131.28L162.849 133.632C163.157 151.228 163.509 171.168 170.647 190.71C178.631 212.568 193.913 230.482 217.367 245.479C217.493 245.559 217.638 245.604 217.787 245.61C217.937 245.617 218.085 245.585 218.218 245.517H218.222Z" fill="white"/>
<path opacity="0.61" d="M239.321 158.785H236.541C235.878 158.785 235.242 158.521 234.773 158.052C234.304 157.584 234.041 156.948 234.041 156.285V146.784C234.041 145.15 233.392 143.584 232.237 142.429C231.082 141.274 229.515 140.625 227.882 140.625H210.657C209.024 140.625 207.457 141.274 206.302 142.429C205.147 143.584 204.498 145.15 204.498 146.784V156.285C204.499 156.613 204.434 156.938 204.309 157.241C204.183 157.545 203.999 157.82 203.767 158.052C203.535 158.284 203.259 158.469 202.956 158.594C202.653 158.72 202.328 158.785 202 158.785H199.22C198.891 158.785 198.566 158.72 198.263 158.594C197.96 158.469 197.684 158.284 197.452 158.052C197.22 157.82 197.036 157.545 196.91 157.241C196.784 156.938 196.72 156.613 196.72 156.285V146.784C196.72 143.087 198.188 139.542 200.802 136.928C203.416 134.315 206.961 132.846 210.657 132.846H227.883C229.713 132.846 231.526 133.207 233.217 133.907C234.908 134.608 236.444 135.634 237.738 136.928C239.032 138.223 240.059 139.759 240.759 141.45C241.459 143.141 241.82 144.953 241.82 146.784V156.285C241.82 156.613 241.755 156.938 241.63 157.241C241.504 157.545 241.32 157.82 241.088 158.052C240.856 158.284 240.581 158.469 240.277 158.594C239.974 158.72 239.649 158.785 239.321 158.785Z" fill="white"/>
<path opacity="0.61" d="M242.767 161.027H195.775C194.392 161.027 193.066 161.576 192.088 162.554C191.11 163.532 190.561 164.858 190.561 166.241V202.306C190.561 203.689 191.11 205.015 192.088 205.993C193.066 206.971 194.392 207.52 195.775 207.52H242.767C244.15 207.52 245.476 206.971 246.454 205.993C247.432 205.015 247.981 203.689 247.981 202.306V166.241C247.981 164.858 247.432 163.532 246.454 162.554C245.476 161.576 244.15 161.027 242.767 161.027ZM225.994 195.884C226.063 196.168 226.065 196.464 226.003 196.749C225.94 197.035 225.814 197.302 225.633 197.531C225.452 197.76 225.222 197.946 224.959 198.073C224.696 198.201 224.408 198.267 224.116 198.267H214.426C214.134 198.267 213.845 198.201 213.582 198.073C213.32 197.946 213.089 197.76 212.908 197.531C212.727 197.301 212.601 197.034 212.538 196.749C212.476 196.463 212.479 196.167 212.547 195.883L214.809 186.471C213.444 185.658 212.328 184.487 211.581 183.085C210.835 181.683 210.486 180.104 210.572 178.518C210.803 174.147 214.346 170.569 218.711 170.298C220.661 170.173 222.597 170.708 224.207 171.816C225.817 172.925 227.007 174.542 227.586 176.409C228.166 178.276 228.1 180.283 227.401 182.108C226.701 183.934 225.408 185.47 223.729 186.471L225.994 195.884Z" fill="white"/>
<path d="M39.1407 149.24C39.1407 149.24 42.9459 149.441 43.4133 157.269C43.4133 157.269 34.5876 165.18 22.666 167.063C21.7707 167.205 23.9175 160.954 24.2397 160.107C25.775 156.079 30.6097 153.484 39.1407 149.24Z" fill="#08A8E4"/>
<path d="M82.0033 140.031H73.9749C73.9749 140.031 49.3244 112.806 33.1565 110.059C33.1565 110.059 21.9013 124.425 33.7559 151.269C34.7094 153.427 37.3763 154.386 39.3647 153.116C39.9429 152.756 40.3915 152.221 40.646 151.589L39.6903 128.675C39.6903 128.675 60.7181 147.065 64.3738 150.614C68.0294 154.163 86.607 151.99 82.0033 140.031Z" fill="#8EE0FF"/>
<path d="M4.35469 197.191C7.72112 194.241 13.0837 190.932 20.825 189.983L23.4469 191.582C23.4469 191.582 21.7774 194.046 18.7266 196.646C15.9244 198.274 11.5957 200.479 8.00706 200.958C4.51526 201.424 4.00056 199.316 4.35469 197.191Z" fill="#08A8E4"/>
<path d="M24.2397 160.108C26.3128 160.778 27.2256 163.716 32.4881 161.774C36.33 160.357 39.9682 158.44 43.3088 156.073C43.3517 156.452 43.3891 156.848 43.4188 157.269C43.4188 157.269 34.1125 166.12 22.193 168.004C21.988 168.034 21.7786 168.01 21.5858 167.935C21.3929 167.859 21.2232 167.734 21.0936 167.572C20.964 167.41 20.879 167.218 20.8471 167.013C20.8153 166.808 20.8375 166.598 20.9118 166.405C21.7661 164.181 22.8833 162.067 24.2397 160.108Z" fill="#8EE0FF"/>
<path d="M1.81899 199.71C2.60719 198.817 3.4521 197.975 4.34849 197.191C3.99436 199.316 4.50906 201.424 7.99757 200.96C11.5862 200.482 15.916 198.277 18.7171 196.649C15.2044 199.645 9.85839 202.825 3.11233 202.638C1.61883 202.597 0.828088 200.835 1.81899 199.71Z" fill="#8EE0FF"/>
<path d="M81.7098 145.842L44.0973 146.249C44.0973 146.249 22.6185 164.019 18.722 191.12C18.722 191.12 18.0753 193.114 21.9587 193.455C21.9587 193.455 34.9438 184.973 43.4121 169.978C53.8006 151.588 74.3666 159.864 74.3666 159.864C84.2481 162.045 92.1126 161.233 97.8689 152.377L81.7098 145.842Z" fill="#8EE0FF"/>
<path d="M80.8215 115.543C80.8215 115.543 76.7722 135.835 56.9332 143.863L49.877 143.031L48.2119 145.686L64.7647 146.214C64.7647 146.214 78.9134 140.605 86.4106 125.339C86.6581 124.834 90.7867 116.31 80.8215 115.543Z" fill="url(#paint0_linear_676_2814)"/>
<path d="M78.6547 145.51C78.6547 145.51 83.2583 132.995 84.2481 120.833C84.2481 120.833 80.8795 117.939 78.7745 116.689C78.4446 116.495 78.2001 116.183 78.0899 115.816C77.9796 115.449 78.0116 115.054 78.1796 114.71C79.7281 111.503 89.0883 98.9123 89.79 98.7375C93.6007 97.7862 109.232 90.3538 120.241 105.412C124.97 111.874 119.304 131.768 97.8689 152.373C90.9722 153.5 84.5198 151.513 78.6547 145.51Z" fill="#A2518E"/>
<path d="M96.3937 123.575C96.3937 123.575 83.601 138.722 67.2495 140.936C67.2495 140.936 63.023 137.087 59.881 138.458C56.7389 139.83 52.4277 145.907 52.4277 145.907H73.4336C73.4336 145.907 93.289 145.208 103.211 133.167C102.403 128.954 100.012 126.437 96.3937 123.575Z" fill="url(#paint1_linear_676_2814)"/>
<path d="M103.856 88.1189L106.655 97.4538C106.719 97.6619 106.714 97.8848 106.643 98.0903C106.571 98.2957 106.436 98.4731 106.257 98.5965C104.91 99.5203 101.387 101.356 96.5557 99.572C96.2852 99.4695 96.0495 99.2921 95.8762 99.0605C95.7028 98.8289 95.599 98.5528 95.5769 98.2644L94.917 90.126L103.856 88.1189Z" fill="url(#paint2_linear_676_2814)"/>
<path d="M87.4668 80.5579C87.4668 80.5579 88.8426 90.236 92.5599 93.2054C96.2772 96.1748 103.52 93.9412 105.966 86.6452L101.091 74.177L87.4668 80.5579Z" fill="url(#paint3_linear_676_2814)"/>
<path d="M101.639 82.2495C101.573 82.2712 101.503 82.2782 101.434 82.2701C101.365 82.2619 101.298 82.2387 101.239 82.2022C101.18 82.1656 101.129 82.1166 101.091 82.0584C101.052 82.0003 101.027 81.9345 101.017 81.8656C100.883 80.9726 100.547 79.2042 99.8699 77.9999C99.8699 77.9999 100.224 76.7308 96.6607 78.6488C93.0974 80.5668 87.7459 83.3779 84.5939 81.7062C81.5222 80.0708 78.4098 71.8389 86.5295 73.3632C86.6015 73.3774 86.6758 73.3748 86.7466 73.3557C86.8174 73.3366 86.8829 73.3014 86.938 73.2529C86.993 73.2044 87.0362 73.144 87.0642 73.0761C87.0921 73.0083 87.1041 72.9349 87.0992 72.8617C87.0002 71.509 87.1344 68.3966 90.2886 67.3969C93.2382 66.4621 94.8526 67.7939 95.518 68.5979C95.5635 68.6533 95.6209 68.6977 95.686 68.7278C95.7511 68.7579 95.8221 68.773 95.8938 68.7718C95.9654 68.7707 96.0359 68.7533 96.1 68.7211C96.164 68.6889 96.22 68.6426 96.2637 68.5858C97.1435 67.4321 99.5465 64.9763 103.082 66.5336C105.991 67.8159 106.444 69.613 106.396 70.7249C106.392 70.8072 106.409 70.8893 106.446 70.963C106.483 71.0367 106.539 71.0996 106.607 71.1454C106.676 71.1913 106.755 71.2186 106.837 71.2247C106.92 71.2308 107.002 71.2154 107.077 71.1802C107.968 70.7699 109.401 70.5566 110.774 72.2799C112.672 74.6588 109.959 76.7209 109.145 77.262C109.079 77.3048 109.024 77.3633 108.986 77.4324C108.947 77.5014 108.927 77.5789 108.925 77.6579C108.918 78.894 108.725 84.2896 106.021 87.336C105.966 87.3961 105.897 87.4414 105.821 87.4679C105.744 87.4943 105.662 87.5009 105.581 87.4871C105.501 87.4732 105.426 87.4395 105.363 87.3888C105.299 87.3382 105.249 87.2723 105.218 87.1974L103.136 82.2363C103.089 82.1252 103.003 82.0356 102.893 81.9854C102.784 81.9351 102.659 81.9277 102.545 81.9646L101.639 82.2495Z" fill="#054F6B"/>
<path d="M101.596 83.2534C101.596 83.2534 102.867 78.0745 104.798 79.7561C106.729 81.4376 104.296 85.1373 102.083 85.8434L101.596 83.2534Z" fill="url(#paint4_linear_676_2814)"/>
<path d="M53.4807 147.083L44.0522 115.638C43.8644 115.011 43.49 114.457 42.9792 114.049C42.4683 113.641 41.8451 113.398 41.1928 113.353L28.4628 112.482C28.1646 112.462 27.8659 112.516 27.5937 112.64C27.3215 112.763 27.0842 112.952 26.9031 113.19C26.7221 113.428 26.6029 113.707 26.5563 114.003C26.5097 114.298 26.5371 114.6 26.6361 114.882L37.1764 144.912C37.3431 145.385 37.6411 145.802 38.0357 146.112C38.4302 146.423 38.905 146.615 39.4046 146.666L51.9421 148.057L53.4807 147.083Z" fill="#08A8E4"/>
<path d="M36.093 126.296C36.7968 127.717 38.0121 128.549 38.8083 128.154C39.6046 127.76 39.6783 126.285 38.9744 124.868C38.2705 123.452 37.0542 122.615 36.259 123.008C35.4639 123.402 35.3869 124.875 36.093 126.296Z" fill="#A2518E"/>
<path d="M51.9388 148.057H52.0004L78.7119 146.711C79.029 146.695 79.3267 146.554 79.5395 146.318C79.7524 146.083 79.8629 145.772 79.8469 145.455C79.8308 145.138 79.6895 144.84 79.454 144.628C79.2184 144.415 78.908 144.304 78.591 144.32L51.8794 145.671C51.566 145.684 51.2703 145.82 51.056 146.049C50.8417 146.278 50.726 146.582 50.7338 146.896C50.7416 147.209 50.8722 147.508 51.0976 147.726C51.323 147.944 51.6251 148.065 51.9388 148.063V148.057Z" fill="#08A8E4"/>
<path d="M84.2454 121.018C84.2212 121.018 84.1971 121.013 84.1747 121.004C84.1523 120.995 84.1319 120.981 84.1148 120.964C84.0976 120.947 84.084 120.926 84.0747 120.904C84.0654 120.881 84.0607 120.857 84.0607 120.833C84.042 115.195 86.2118 107.732 86.2338 107.658C86.2475 107.611 86.2794 107.571 86.3224 107.547C86.3654 107.524 86.416 107.518 86.4631 107.532C86.5102 107.545 86.55 107.577 86.5736 107.62C86.5972 107.663 86.6028 107.714 86.5891 107.761C86.5671 107.836 84.4115 115.248 84.4302 120.832C84.4303 120.856 84.4257 120.88 84.4164 120.903C84.4072 120.926 84.3936 120.946 84.3765 120.963C84.3593 120.981 84.3389 120.994 84.3164 121.004C84.2939 121.013 84.2698 121.018 84.2454 121.018Z" fill="#A2518E"/>
<path d="M96.3937 123.76C96.3538 123.759 96.3153 123.745 96.2837 123.721C96.2453 123.69 96.2206 123.646 96.2151 123.597C96.2095 123.548 96.2235 123.499 96.254 123.46C96.3123 123.387 102.118 116.006 104.105 110.97C104.113 110.947 104.126 110.925 104.143 110.907C104.159 110.889 104.179 110.874 104.202 110.864C104.224 110.854 104.248 110.848 104.273 110.847C104.298 110.847 104.322 110.851 104.345 110.86C104.368 110.868 104.39 110.881 104.408 110.898C104.426 110.915 104.44 110.935 104.451 110.957C104.461 110.98 104.466 111.004 104.467 111.029C104.468 111.053 104.464 111.078 104.455 111.101C102.448 116.186 96.6082 123.61 96.5499 123.685C96.532 123.709 96.5084 123.729 96.4812 123.742C96.454 123.755 96.424 123.761 96.3937 123.76Z" fill="#A2518E"/>
<path d="M104.623 135.109L103.567 133.616C103.538 133.576 103.526 133.526 103.534 133.477C103.541 133.428 103.568 133.384 103.608 133.355C103.648 133.325 103.698 133.313 103.747 133.321C103.796 133.329 103.84 133.356 103.869 133.396L104.749 134.645C112.988 131.033 118.087 121.177 118.139 121.077C118.161 121.033 118.2 121 118.247 120.985C118.294 120.97 118.344 120.974 118.388 120.996C118.432 121.019 118.465 121.057 118.48 121.104C118.495 121.151 118.491 121.202 118.469 121.245C118.417 121.348 113.202 131.429 104.758 135.044L104.623 135.109Z" fill="#A2518E"/>
</g>
<defs>
<linearGradient id="paint0_linear_676_2814" x1="59.1558" y1="122.058" x2="76.8744" y2="143.129" gradientUnits="userSpaceOnUse">
<stop stop-color="#FEBBBA"/>
<stop offset="1" stop-color="#FF928E"/>
</linearGradient>
<linearGradient id="paint1_linear_676_2814" x1="79.8167" y1="141.23" x2="44.4004" y2="92.7789" gradientUnits="userSpaceOnUse">
<stop stop-color="#FEBBBA"/>
<stop offset="1" stop-color="#FF928E"/>
</linearGradient>
<linearGradient id="paint2_linear_676_2814" x1="101.483" y1="101.079" x2="100.177" y2="89.3375" gradientUnits="userSpaceOnUse">
<stop stop-color="#FEBBBA"/>
<stop offset="1" stop-color="#FF928E"/>
</linearGradient>
<linearGradient id="paint3_linear_676_2814" x1="94.5241" y1="90.8365" x2="100.274" y2="71.8719" gradientUnits="userSpaceOnUse">
<stop stop-color="#FEBBBA"/>
<stop offset="1" stop-color="#FF928E"/>
</linearGradient>
<linearGradient id="paint4_linear_676_2814" x1="100.478" y1="92.6422" x2="106.229" y2="73.6776" gradientUnits="userSpaceOnUse">
<stop stop-color="#FEBBBA"/>
<stop offset="1" stop-color="#FF928E"/>
</linearGradient>
<clipPath id="clip0_676_2814">
<rect width="306" height="307.939" fill="white"/>
</clipPath>
</defs>
</svg>
