<svg width="17" height="15" viewBox="0 0 17 15" fill="none" xmlns="http://www.w3.org/2000/svg">
<path d="M16.6924 1.05321C16.6802 0.993557 16.6528 0.938062 16.6129 0.892116C16.5729 0.846171 16.5218 0.811327 16.4644 0.790957C16.2483 0.749054 16.0249 0.764801 15.8168 0.836582C15.8168 0.836582 1.43203 6.00851 0.60881 6.58088C0.43322 6.70403 0.38077 6.77699 0.344284 6.85909C0.202899 7.26728 0.645298 7.44745 0.645298 7.44745L4.35322 8.65604C4.41465 8.67102 4.47878 8.67102 4.54021 8.65604C5.38396 8.12243 13.0256 3.29712 13.468 3.13521C13.5364 3.11469 13.5888 3.1352 13.5751 3.18537C13.3973 3.80564 6.75904 9.70504 6.75904 9.70504C6.74287 9.72626 6.7291 9.74918 6.71799 9.77344L6.37365 13.4517C6.37365 13.4517 6.2277 14.5782 7.35422 13.4517C8.15008 12.6559 8.91857 11.99 9.30396 11.6685C10.5787 12.5487 11.9515 13.5224 12.5421 14.0309C12.642 14.1269 12.7599 14.2019 12.8892 14.2517C13.0184 14.3014 13.1563 14.3248 13.2947 14.3206C13.8556 14.3 14.013 13.682 14.013 13.682C14.013 13.682 16.6354 3.13066 16.7221 1.71681C16.7221 1.57999 16.7426 1.48876 16.7426 1.39527C16.744 1.27932 16.727 1.16388 16.6924 1.05321Z" fill="white"/>
</svg>
