<svg width="21" height="17" viewBox="0 0 21 17" fill="none" xmlns="http://www.w3.org/2000/svg">
<path d="M6.73724 16.6396C14.2625 16.6396 18.3673 10.4118 18.3673 5.00954C18.3673 4.83167 18.3673 4.65608 18.3558 4.48049C19.1555 3.9015 19.8458 3.18494 20.3945 2.36428C19.6488 2.69436 18.8578 2.9111 18.048 3.00735C18.9013 2.49597 19.5399 1.69209 19.845 0.7452C19.0429 1.22209 18.1652 1.55835 17.2499 1.73945C16.6891 1.14235 15.9619 0.727433 15.1626 0.548491C14.3632 0.36955 13.5285 0.434828 12.7667 0.735868C12.0049 1.03691 11.3511 1.55983 10.89 2.23686C10.4289 2.91388 10.1817 3.7138 10.1806 4.53294C10.1804 4.84679 10.2156 5.15966 10.2855 5.46562C8.66005 5.38506 7.06969 4.96358 5.61767 4.22853C4.16565 3.49349 2.88443 2.46131 1.85719 1.199C1.33403 2.09845 1.1737 3.16359 1.40888 4.1772C1.64406 5.1908 2.25704 6.07651 3.1228 6.6537C2.47367 6.63359 1.83876 6.45845 1.27112 6.1429V6.19535C1.27139 7.13903 1.59807 8.05356 2.19575 8.78384C2.79344 9.51411 3.62534 10.0152 4.55033 10.202C3.94801 10.3657 3.31629 10.3899 2.70322 10.2727C2.96602 11.0841 3.47506 11.7935 4.15959 12.3023C4.84412 12.8111 5.67015 13.0941 6.52288 13.1118C5.0747 14.2473 3.28699 14.8633 1.44672 14.8609C1.12053 14.8615 0.794595 14.8425 0.470703 14.8038C2.34018 16.0011 4.51498 16.6344 6.73496 16.6282" fill="white"/>
</svg>
