<svg width="21" height="15" viewBox="0 0 21 15" fill="none" xmlns="http://www.w3.org/2000/svg">
<path d="M20.1606 2.59605C20.0437 2.15846 19.8135 1.75942 19.4932 1.43915C19.1729 1.11887 18.7739 0.888659 18.3363 0.771735C16.7446 0.361264 10.3275 0.361267 10.3275 0.361267C10.3275 0.361267 3.91051 0.361268 2.30967 0.789983C1.87208 0.906906 1.47304 1.13711 1.15276 1.45739C0.832479 1.77766 0.60228 2.17671 0.485356 2.6143C0.0566417 4.21058 0.0566406 7.55364 0.0566406 7.55364C0.0566406 7.55364 0.0566417 10.8944 0.485356 12.4952C0.603393 12.9311 0.834153 13.3281 1.15442 13.6463C1.47468 13.9646 1.87314 14.1929 2.30967 14.3082C3.91051 14.7278 10.3275 14.7278 10.3275 14.7278C10.3275 14.7278 16.7446 14.7278 18.3454 14.299C18.7819 14.1837 19.1804 13.9555 19.5007 13.6372C19.8209 13.3189 20.0517 12.9219 20.1697 12.4861C20.5984 10.8899 20.5984 7.54451 20.5984 7.54451C20.5984 7.54451 20.5893 4.19689 20.1606 2.59605ZM8.27518 10.623V4.46598L13.6067 7.54451L8.27518 10.623Z" fill="white"/>
</svg>
