<svg width="1440" height="1024" viewBox="0 0 1440 1024" fill="none" xmlns="http://www.w3.org/2000/svg">
<g clip-path="url(#clip0_0_107)">
<rect width="1440" height="1024" fill="white"/>
<path d="M1088.59 380.023C1376.59 314.173 1374.68 125.398 1459.18 126.147L1456.93 380.023C1461.13 430.535 1520.59 691.892 1520.59 788.173C1520.59 862.173 1544.68 1175.53 1306.59 1150.17C1068.49 1124.81 876.122 1575.95 556.586 1230.17C456.871 1122.27 674.585 886.173 726.586 710.173C769.393 565.288 830.586 439.013 1088.59 380.023Z" fill="#F0FBFF"/>
<path d="M242.232 -42.4332C179.848 -230.282 288.635 -294.806 258.837 -342.944L114.204 -253.414C83.8115 -238.264 -86.5531 -181.475 -141.701 -148.011C-184.087 -122.29 -371.947 -27.1728 -274.666 100.387C-177.384 227.947 -368.923 494.938 -59.8057 557.778C36.6582 577.388 96.2167 370.624 178.952 279.666C247.06 204.788 298.118 125.848 242.232 -42.4332Z" fill="#FEF9FD"/>
<g clip-path="url(#clip1_0_107)">
<path d="M111 336.989L121.87 343.279V330.722L111 336.989Z" fill="#BDEBFC"/>
<path d="M153 336.989L142.13 330.722V343.278L153 336.989Z" fill="#BDEBFC"/>
<path d="M131.991 358.001L138.28 347.13H125.724L131.991 358.001Z" fill="#BDEBFC"/>
<path d="M131.991 316L125.724 326.87H138.28L131.991 316Z" fill="#BDEBFC"/>
</g>
<g clip-path="url(#clip2_0_107)">
<g opacity="0.51">
<path d="M1255.37 706.68C1255.37 706.816 1255.33 706.948 1255.25 707.061C1255.17 707.174 1255.07 707.262 1254.94 707.314C1254.82 707.366 1254.68 707.38 1254.55 707.353C1254.41 707.327 1254.29 707.261 1254.19 707.165C1254.1 707.069 1254.03 706.947 1254.01 706.814C1253.98 706.681 1253.99 706.543 1254.04 706.417C1254.1 706.292 1254.18 706.184 1254.3 706.109C1254.41 706.033 1254.54 705.993 1254.68 705.993C1254.86 705.993 1255.04 706.065 1255.16 706.194C1255.29 706.323 1255.37 706.498 1255.37 706.68Z" fill="#7F2069"/>
<path d="M1264.95 707.36C1265.33 707.36 1265.63 707.055 1265.63 706.68C1265.63 706.304 1265.33 706 1264.95 706C1264.58 706 1264.27 706.304 1264.27 706.68C1264.27 707.055 1264.58 707.36 1264.95 707.36Z" fill="#7F2069"/>
<path d="M1275.23 707.36C1275.6 707.36 1275.91 707.055 1275.91 706.68C1275.91 706.304 1275.6 706 1275.23 706C1274.85 706 1274.55 706.304 1274.55 706.68C1274.55 707.055 1274.85 707.36 1275.23 707.36Z" fill="#7F2069"/>
<path d="M1285.49 707.36C1285.87 707.36 1286.17 707.055 1286.17 706.68C1286.17 706.304 1285.87 706 1285.49 706C1285.11 706 1284.81 706.304 1284.81 706.68C1284.81 707.055 1285.11 707.36 1285.49 707.36Z" fill="#7F2069"/>
<path d="M1296.44 706.68C1296.44 706.816 1296.4 706.949 1296.33 707.061C1296.25 707.174 1296.14 707.262 1296.02 707.314C1295.89 707.366 1295.76 707.38 1295.62 707.353C1295.49 707.327 1295.37 707.262 1295.27 707.166C1295.17 707.069 1295.11 706.947 1295.08 706.814C1295.06 706.681 1295.07 706.543 1295.12 706.417C1295.17 706.292 1295.26 706.184 1295.37 706.109C1295.49 706.034 1295.62 705.993 1295.76 705.993C1295.94 705.993 1296.11 706.066 1296.24 706.194C1296.37 706.323 1296.44 706.498 1296.44 706.68Z" fill="#7F2069"/>
<path d="M1260.5 714.502C1260.5 714.637 1260.46 714.77 1260.38 714.883C1260.3 714.996 1260.2 715.084 1260.07 715.136C1259.95 715.188 1259.81 715.202 1259.68 715.175C1259.54 715.149 1259.42 715.083 1259.32 714.987C1259.23 714.891 1259.16 714.769 1259.14 714.636C1259.11 714.502 1259.12 714.364 1259.17 714.239C1259.23 714.113 1259.31 714.006 1259.43 713.931C1259.54 713.855 1259.67 713.815 1259.81 713.815C1259.99 713.815 1260.17 713.887 1260.29 714.016C1260.42 714.145 1260.5 714.319 1260.5 714.502Z" fill="#7F2069"/>
<path d="M1270.09 715.188C1270.46 715.188 1270.77 714.884 1270.77 714.508C1270.77 714.133 1270.46 713.828 1270.09 713.828C1269.71 713.828 1269.41 714.133 1269.41 714.508C1269.41 714.884 1269.71 715.188 1270.09 715.188Z" fill="#7F2069"/>
<path d="M1280.35 715.188C1280.73 715.188 1281.03 714.884 1281.03 714.508C1281.03 714.133 1280.73 713.828 1280.35 713.828C1279.98 713.828 1279.67 714.133 1279.67 714.508C1279.67 714.884 1279.98 715.188 1280.35 715.188Z" fill="#7F2069"/>
<path d="M1291.29 714.502C1291.29 714.637 1291.25 714.77 1291.18 714.883C1291.1 714.996 1290.99 715.084 1290.87 715.136C1290.74 715.188 1290.61 715.202 1290.47 715.175C1290.34 715.149 1290.22 715.083 1290.12 714.987C1290.03 714.891 1289.96 714.769 1289.93 714.636C1289.91 714.502 1289.92 714.364 1289.97 714.239C1290.02 714.113 1290.11 714.006 1290.23 713.931C1290.34 713.855 1290.47 713.815 1290.61 713.815C1290.79 713.815 1290.96 713.887 1291.09 714.016C1291.22 714.145 1291.29 714.319 1291.29 714.502Z" fill="#7F2069"/>
<path d="M1255.37 722.364C1255.37 722.546 1255.29 722.72 1255.16 722.849C1255.04 722.978 1254.86 723.05 1254.68 723.05C1254.5 723.05 1254.32 722.978 1254.19 722.849C1254.07 722.72 1253.99 722.546 1253.99 722.364C1253.99 722.181 1254.07 722.007 1254.19 721.878C1254.32 721.749 1254.5 721.677 1254.68 721.677C1254.86 721.677 1255.04 721.749 1255.16 721.878C1255.29 722.007 1255.37 722.181 1255.37 722.364Z" fill="#7F2069"/>
<path d="M1264.95 723.05C1265.33 723.05 1265.63 722.746 1265.63 722.371C1265.63 721.995 1265.33 721.691 1264.95 721.691C1264.58 721.691 1264.27 721.995 1264.27 722.371C1264.27 722.746 1264.58 723.05 1264.95 723.05Z" fill="#7F2069"/>
<path d="M1275.23 723.05C1275.6 723.05 1275.91 722.746 1275.91 722.371C1275.91 721.995 1275.6 721.691 1275.23 721.691C1274.85 721.691 1274.55 721.995 1274.55 722.371C1274.55 722.746 1274.85 723.05 1275.23 723.05Z" fill="#7F2069"/>
<path d="M1285.49 723.05C1285.87 723.05 1286.17 722.746 1286.17 722.371C1286.17 721.995 1285.87 721.691 1285.49 721.691C1285.11 721.691 1284.81 721.995 1284.81 722.371C1284.81 722.746 1285.11 723.05 1285.49 723.05Z" fill="#7F2069"/>
<path d="M1296.44 722.364C1296.44 722.499 1296.4 722.632 1296.33 722.745C1296.25 722.858 1296.14 722.946 1296.02 722.998C1295.89 723.05 1295.76 723.064 1295.62 723.037C1295.49 723.011 1295.37 722.945 1295.27 722.849C1295.17 722.753 1295.11 722.631 1295.08 722.498C1295.06 722.364 1295.07 722.226 1295.12 722.101C1295.17 721.975 1295.26 721.868 1295.37 721.793C1295.49 721.717 1295.62 721.677 1295.76 721.677C1295.94 721.677 1296.11 721.749 1296.24 721.878C1296.37 722.007 1296.44 722.181 1296.44 722.364Z" fill="#7F2069"/>
<path d="M1260.5 730.192C1260.5 730.328 1260.46 730.46 1260.38 730.573C1260.3 730.686 1260.2 730.774 1260.07 730.826C1259.95 730.878 1259.81 730.892 1259.68 730.865C1259.54 730.839 1259.42 730.774 1259.32 730.677C1259.23 730.581 1259.16 730.459 1259.14 730.326C1259.11 730.193 1259.12 730.055 1259.17 729.929C1259.23 729.804 1259.31 729.696 1259.43 729.621C1259.54 729.546 1259.67 729.505 1259.81 729.505C1259.99 729.505 1260.17 729.578 1260.29 729.706C1260.42 729.835 1260.5 730.01 1260.5 730.192Z" fill="#7F2069"/>
<path d="M1270.09 730.872C1270.46 730.872 1270.77 730.567 1270.77 730.192C1270.77 729.816 1270.46 729.512 1270.09 729.512C1269.71 729.512 1269.41 729.816 1269.41 730.192C1269.41 730.567 1269.71 730.872 1270.09 730.872Z" fill="#7F2069"/>
<path d="M1280.35 730.872C1280.73 730.872 1281.03 730.567 1281.03 730.192C1281.03 729.816 1280.73 729.512 1280.35 729.512C1279.98 729.512 1279.67 729.816 1279.67 730.192C1279.67 730.567 1279.98 730.872 1280.35 730.872Z" fill="#7F2069"/>
<path d="M1291.29 730.192C1291.29 730.328 1291.25 730.46 1291.18 730.573C1291.1 730.686 1290.99 730.774 1290.87 730.826C1290.74 730.878 1290.61 730.892 1290.47 730.865C1290.34 730.839 1290.22 730.774 1290.12 730.677C1290.03 730.581 1289.96 730.459 1289.93 730.326C1289.91 730.193 1289.92 730.055 1289.97 729.929C1290.02 729.804 1290.11 729.696 1290.23 729.621C1290.34 729.546 1290.47 729.505 1290.61 729.505C1290.79 729.505 1290.96 729.578 1291.09 729.706C1291.22 729.835 1291.29 730.01 1291.29 730.192Z" fill="#7F2069"/>
<path d="M1255.37 738.054C1255.37 738.19 1255.33 738.323 1255.25 738.436C1255.17 738.549 1255.07 738.637 1254.94 738.689C1254.82 738.741 1254.68 738.754 1254.55 738.728C1254.41 738.701 1254.29 738.636 1254.19 738.54C1254.1 738.444 1254.03 738.322 1254.01 738.188C1253.98 738.055 1253.99 737.917 1254.04 737.792C1254.1 737.666 1254.18 737.559 1254.3 737.483C1254.41 737.408 1254.54 737.368 1254.68 737.368C1254.86 737.368 1255.04 737.44 1255.16 737.569C1255.29 737.698 1255.37 737.872 1255.37 738.054Z" fill="#7F2069"/>
<path d="M1264.95 738.734C1265.33 738.734 1265.63 738.43 1265.63 738.055C1265.63 737.679 1265.33 737.375 1264.95 737.375C1264.58 737.375 1264.27 737.679 1264.27 738.055C1264.27 738.43 1264.58 738.734 1264.95 738.734Z" fill="#7F2069"/>
<path d="M1275.23 738.734C1275.6 738.734 1275.91 738.43 1275.91 738.055C1275.91 737.679 1275.6 737.375 1275.23 737.375C1274.85 737.375 1274.55 737.679 1274.55 738.055C1274.55 738.43 1274.85 738.734 1275.23 738.734Z" fill="#7F2069"/>
<path d="M1285.49 738.734C1285.87 738.734 1286.17 738.43 1286.17 738.055C1286.17 737.679 1285.87 737.375 1285.49 737.375C1285.11 737.375 1284.81 737.679 1284.81 738.055C1284.81 738.43 1285.11 738.734 1285.49 738.734Z" fill="#7F2069"/>
<path d="M1296.44 738.054C1296.44 738.236 1296.37 738.411 1296.24 738.54C1296.11 738.669 1295.94 738.741 1295.76 738.741C1295.57 738.741 1295.4 738.669 1295.27 738.54C1295.14 738.411 1295.07 738.236 1295.07 738.054C1295.07 737.872 1295.14 737.698 1295.27 737.569C1295.4 737.44 1295.57 737.368 1295.76 737.368C1295.94 737.368 1296.11 737.44 1296.24 737.569C1296.37 737.698 1296.44 737.872 1296.44 738.054Z" fill="#7F2069"/>
<path d="M1260.5 745.875C1260.5 746.011 1260.46 746.144 1260.38 746.257C1260.3 746.37 1260.2 746.458 1260.07 746.51C1259.95 746.562 1259.81 746.575 1259.68 746.549C1259.54 746.522 1259.42 746.457 1259.32 746.361C1259.23 746.265 1259.16 746.143 1259.14 746.009C1259.11 745.876 1259.12 745.738 1259.17 745.613C1259.23 745.487 1259.31 745.38 1259.43 745.304C1259.54 745.229 1259.67 745.189 1259.81 745.189C1259.99 745.189 1260.17 745.261 1260.29 745.39C1260.42 745.519 1260.5 745.693 1260.5 745.875Z" fill="#7F2069"/>
<path d="M1270.09 746.555C1270.46 746.555 1270.77 746.251 1270.77 745.875C1270.77 745.5 1270.46 745.195 1270.09 745.195C1269.71 745.195 1269.41 745.5 1269.41 745.875C1269.41 746.251 1269.71 746.555 1270.09 746.555Z" fill="#7F2069"/>
<path d="M1280.35 746.555C1280.73 746.555 1281.03 746.251 1281.03 745.875C1281.03 745.5 1280.73 745.195 1280.35 745.195C1279.98 745.195 1279.67 745.5 1279.67 745.875C1279.67 746.251 1279.98 746.555 1280.35 746.555Z" fill="#7F2069"/>
<path d="M1291.29 745.875C1291.29 746.011 1291.25 746.144 1291.18 746.257C1291.1 746.37 1290.99 746.458 1290.87 746.51C1290.74 746.562 1290.61 746.575 1290.47 746.549C1290.34 746.522 1290.22 746.457 1290.12 746.361C1290.03 746.265 1289.96 746.143 1289.93 746.009C1289.91 745.876 1289.92 745.738 1289.97 745.613C1290.02 745.487 1290.11 745.38 1290.23 745.304C1290.34 745.229 1290.47 745.189 1290.61 745.189C1290.79 745.189 1290.96 745.261 1291.09 745.39C1291.22 745.519 1291.29 745.693 1291.29 745.875Z" fill="#7F2069"/>
</g>
</g>
<circle cx="1139" cy="479" r="8" fill="#FFCCF2"/>
<circle cx="1182.5" cy="163.5" r="5.5" fill="#FFCCF2"/>
<circle cx="292.5" cy="488.5" r="5.5" fill="#FFCCF2"/>
<circle cx="1362.5" cy="528.5" r="5.5" fill="#BDEBFC"/>
<circle cx="114.703" cy="701.703" r="27.7027" fill="#FCE9F7"/>
<circle cx="171" cy="126" r="8" fill="#BDEBFC"/>
<circle cx="1066" cy="952" r="8" fill="#BDEBFC"/>
<circle cx="246.5" cy="883.5" r="5.5" fill="#BDEBFC"/>
<g clip-path="url(#clip3_0_107)">
<g opacity="0.51">
<path d="M116.319 701.831C116.319 701.992 116.271 702.149 116.182 702.283C116.093 702.416 115.966 702.52 115.817 702.582C115.669 702.643 115.506 702.659 115.348 702.628C115.191 702.596 115.046 702.519 114.932 702.406C114.819 702.292 114.741 702.147 114.71 701.99C114.679 701.832 114.695 701.669 114.756 701.521C114.818 701.372 114.922 701.245 115.055 701.156C115.189 701.067 115.346 701.019 115.506 701.019C115.722 701.019 115.928 701.105 116.081 701.257C116.233 701.409 116.319 701.616 116.319 701.831Z" fill="#08A8E4"/>
<path d="M127.656 702.635C128.1 702.635 128.46 702.275 128.46 701.831C128.46 701.387 128.1 701.027 127.656 701.027C127.212 701.027 126.852 701.387 126.852 701.831C126.852 702.275 127.212 702.635 127.656 702.635Z" fill="#08A8E4"/>
<path d="M139.806 702.635C140.25 702.635 140.61 702.275 140.61 701.831C140.61 701.387 140.25 701.027 139.806 701.027C139.362 701.027 139.002 701.387 139.002 701.831C139.002 702.275 139.362 702.635 139.806 702.635Z" fill="#08A8E4"/>
<path d="M151.947 702.635C152.391 702.635 152.751 702.275 152.751 701.831C152.751 701.387 152.391 701.027 151.947 701.027C151.503 701.027 151.143 701.387 151.143 701.831C151.143 702.275 151.503 702.635 151.947 702.635Z" fill="#08A8E4"/>
<path d="M164.9 701.831C164.9 701.992 164.853 702.149 164.763 702.283C164.674 702.416 164.547 702.52 164.399 702.582C164.25 702.643 164.087 702.659 163.93 702.628C163.772 702.596 163.627 702.519 163.514 702.406C163.4 702.292 163.323 702.147 163.291 701.99C163.26 701.832 163.276 701.669 163.338 701.521C163.399 701.372 163.503 701.245 163.637 701.156C163.77 701.067 163.927 701.019 164.088 701.019C164.303 701.019 164.51 701.105 164.662 701.257C164.815 701.409 164.9 701.616 164.9 701.831Z" fill="#08A8E4"/>
<path d="M122.386 711.082C122.386 711.243 122.338 711.4 122.249 711.533C122.159 711.667 122.033 711.771 121.884 711.832C121.736 711.894 121.572 711.91 121.415 711.879C121.257 711.847 121.113 711.77 120.999 711.656C120.886 711.543 120.808 711.398 120.777 711.24C120.745 711.083 120.762 710.92 120.823 710.771C120.885 710.623 120.989 710.496 121.122 710.407C121.256 710.318 121.413 710.27 121.573 710.27C121.789 710.27 121.995 710.355 122.148 710.508C122.3 710.66 122.386 710.867 122.386 711.082Z" fill="#08A8E4"/>
<path d="M133.73 711.894C134.174 711.894 134.534 711.534 134.534 711.09C134.534 710.646 134.174 710.286 133.73 710.286C133.286 710.286 132.926 710.646 132.926 711.09C132.926 711.534 133.286 711.894 133.73 711.894Z" fill="#08A8E4"/>
<path d="M145.872 711.894C146.316 711.894 146.676 711.534 146.676 711.09C146.676 710.646 146.316 710.286 145.872 710.286C145.428 710.286 145.068 710.646 145.068 711.09C145.068 711.534 145.428 711.894 145.872 711.894Z" fill="#08A8E4"/>
<path d="M158.81 711.082C158.81 711.243 158.762 711.4 158.673 711.533C158.584 711.667 158.457 711.771 158.308 711.832C158.16 711.894 157.997 711.91 157.839 711.879C157.682 711.847 157.537 711.77 157.423 711.656C157.31 711.543 157.232 711.398 157.201 711.24C157.17 711.083 157.186 710.92 157.247 710.771C157.309 710.623 157.413 710.496 157.547 710.407C157.68 710.318 157.837 710.27 157.998 710.27C158.213 710.27 158.42 710.355 158.572 710.508C158.724 710.66 158.81 710.867 158.81 711.082Z" fill="#08A8E4"/>
<path d="M116.319 720.38C116.319 720.596 116.233 720.802 116.081 720.955C115.928 721.107 115.722 721.193 115.506 721.193C115.291 721.193 115.085 721.107 114.932 720.955C114.78 720.802 114.694 720.596 114.694 720.38C114.694 720.165 114.78 719.958 114.932 719.806C115.085 719.654 115.291 719.568 115.506 719.568C115.722 719.568 115.928 719.654 116.081 719.806C116.233 719.958 116.319 720.165 116.319 720.38Z" fill="#08A8E4"/>
<path d="M127.656 721.193C128.1 721.193 128.46 720.833 128.46 720.389C128.46 719.945 128.1 719.585 127.656 719.585C127.212 719.585 126.852 719.945 126.852 720.389C126.852 720.833 127.212 721.193 127.656 721.193Z" fill="#08A8E4"/>
<path d="M139.806 721.193C140.25 721.193 140.61 720.833 140.61 720.389C140.61 719.945 140.25 719.585 139.806 719.585C139.362 719.585 139.002 719.945 139.002 720.389C139.002 720.833 139.362 721.193 139.806 721.193Z" fill="#08A8E4"/>
<path d="M151.947 721.193C152.391 721.193 152.751 720.833 152.751 720.389C152.751 719.945 152.391 719.585 151.947 719.585C151.503 719.585 151.143 719.945 151.143 720.389C151.143 720.833 151.503 721.193 151.947 721.193Z" fill="#08A8E4"/>
<path d="M164.9 720.38C164.9 720.541 164.853 720.698 164.763 720.832C164.674 720.965 164.547 721.069 164.399 721.131C164.25 721.192 164.087 721.208 163.93 721.177C163.772 721.146 163.627 721.068 163.514 720.955C163.4 720.841 163.323 720.696 163.291 720.539C163.26 720.381 163.276 720.218 163.338 720.07C163.399 719.921 163.503 719.794 163.637 719.705C163.77 719.616 163.927 719.568 164.088 719.568C164.303 719.568 164.51 719.654 164.662 719.806C164.815 719.959 164.9 720.165 164.9 720.38Z" fill="#08A8E4"/>
<path d="M122.386 729.639C122.386 729.8 122.338 729.957 122.249 730.09C122.159 730.224 122.033 730.328 121.884 730.389C121.736 730.451 121.572 730.467 121.415 730.436C121.257 730.404 121.113 730.327 120.999 730.213C120.886 730.1 120.808 729.955 120.777 729.797C120.745 729.64 120.762 729.477 120.823 729.328C120.885 729.18 120.989 729.053 121.122 728.964C121.256 728.875 121.413 728.827 121.573 728.827C121.789 728.827 121.995 728.912 122.148 729.065C122.3 729.217 122.386 729.424 122.386 729.639Z" fill="#08A8E4"/>
<path d="M133.73 730.443C134.174 730.443 134.534 730.083 134.534 729.639C134.534 729.195 134.174 728.835 133.73 728.835C133.286 728.835 132.926 729.195 132.926 729.639C132.926 730.083 133.286 730.443 133.73 730.443Z" fill="#08A8E4"/>
<path d="M145.872 730.443C146.316 730.443 146.676 730.083 146.676 729.639C146.676 729.195 146.316 728.835 145.872 728.835C145.428 728.835 145.068 729.195 145.068 729.639C145.068 730.083 145.428 730.443 145.872 730.443Z" fill="#08A8E4"/>
<path d="M158.81 729.639C158.81 729.8 158.762 729.957 158.673 730.09C158.584 730.224 158.457 730.328 158.308 730.389C158.16 730.451 157.997 730.467 157.839 730.436C157.682 730.404 157.537 730.327 157.423 730.213C157.31 730.1 157.232 729.955 157.201 729.797C157.17 729.64 157.186 729.477 157.247 729.328C157.309 729.18 157.413 729.053 157.547 728.964C157.68 728.875 157.837 728.827 157.998 728.827C158.213 728.827 158.42 728.912 158.572 729.065C158.724 729.217 158.81 729.424 158.81 729.639Z" fill="#08A8E4"/>
<path d="M116.319 738.938C116.319 739.099 116.271 739.256 116.182 739.389C116.093 739.523 115.966 739.627 115.817 739.688C115.669 739.75 115.506 739.766 115.348 739.735C115.191 739.703 115.046 739.626 114.932 739.512C114.819 739.399 114.741 739.254 114.71 739.097C114.679 738.939 114.695 738.776 114.756 738.627C114.818 738.479 114.922 738.352 115.055 738.263C115.189 738.174 115.346 738.126 115.506 738.126C115.722 738.126 115.928 738.212 116.081 738.364C116.233 738.516 116.319 738.723 116.319 738.938Z" fill="#08A8E4"/>
<path d="M127.656 739.742C128.1 739.742 128.46 739.382 128.46 738.938C128.46 738.494 128.1 738.134 127.656 738.134C127.212 738.134 126.852 738.494 126.852 738.938C126.852 739.382 127.212 739.742 127.656 739.742Z" fill="#08A8E4"/>
<path d="M139.806 739.742C140.25 739.742 140.61 739.382 140.61 738.938C140.61 738.494 140.25 738.134 139.806 738.134C139.362 738.134 139.002 738.494 139.002 738.938C139.002 739.382 139.362 739.742 139.806 739.742Z" fill="#08A8E4"/>
<path d="M151.947 739.742C152.391 739.742 152.751 739.382 152.751 738.938C152.751 738.494 152.391 738.134 151.947 738.134C151.503 738.134 151.143 738.494 151.143 738.938C151.143 739.382 151.503 739.742 151.947 739.742Z" fill="#08A8E4"/>
<path d="M164.9 738.938C164.9 739.154 164.815 739.36 164.662 739.512C164.51 739.665 164.303 739.75 164.088 739.75C163.873 739.75 163.666 739.665 163.514 739.512C163.361 739.36 163.276 739.154 163.276 738.938C163.276 738.723 163.361 738.516 163.514 738.364C163.666 738.212 163.873 738.126 164.088 738.126C164.303 738.126 164.51 738.212 164.662 738.364C164.815 738.516 164.9 738.723 164.9 738.938Z" fill="#08A8E4"/>
<path d="M122.386 748.188C122.386 748.349 122.338 748.506 122.249 748.639C122.159 748.773 122.033 748.877 121.884 748.939C121.736 749 121.572 749.016 121.415 748.985C121.257 748.953 121.113 748.876 120.999 748.763C120.886 748.649 120.808 748.504 120.777 748.347C120.745 748.189 120.762 748.026 120.823 747.877C120.885 747.729 120.989 747.602 121.122 747.513C121.256 747.424 121.413 747.376 121.573 747.376C121.789 747.376 121.995 747.462 122.148 747.614C122.3 747.766 122.386 747.973 122.386 748.188Z" fill="#08A8E4"/>
<path d="M133.73 748.992C134.174 748.992 134.534 748.632 134.534 748.188C134.534 747.744 134.174 747.384 133.73 747.384C133.286 747.384 132.926 747.744 132.926 748.188C132.926 748.632 133.286 748.992 133.73 748.992Z" fill="#08A8E4"/>
<path d="M145.872 748.992C146.316 748.992 146.676 748.632 146.676 748.188C146.676 747.744 146.316 747.384 145.872 747.384C145.428 747.384 145.068 747.744 145.068 748.188C145.068 748.632 145.428 748.992 145.872 748.992Z" fill="#08A8E4"/>
<path d="M158.81 748.188C158.81 748.349 158.762 748.506 158.673 748.639C158.584 748.773 158.457 748.877 158.308 748.939C158.16 749 157.997 749.016 157.839 748.985C157.682 748.953 157.537 748.876 157.423 748.763C157.31 748.649 157.232 748.504 157.201 748.347C157.17 748.189 157.186 748.026 157.247 747.877C157.309 747.729 157.413 747.602 157.547 747.513C157.68 747.424 157.837 747.376 157.998 747.376C158.213 747.376 158.42 747.462 158.572 747.614C158.724 747.766 158.81 747.973 158.81 748.188Z" fill="#08A8E4"/>
</g>
</g>
<g clip-path="url(#clip4_0_107)">
<path d="M1275 732.989L1285.87 739.279V726.722L1275 732.989Z" fill="#FFCCF2"/>
<path d="M1317 732.989L1306.13 726.722V739.278L1317 732.989Z" fill="#FFCCF2"/>
<path d="M1295.99 754L1302.28 743.13H1289.72L1295.99 754Z" fill="#FFCCF2"/>
<path d="M1295.99 712L1289.72 722.87H1302.28L1295.99 712Z" fill="#FFCCF2"/>
</g>
<circle cx="1333.7" cy="239.703" r="27.7027" fill="#FCE9F7"/>
<g clip-path="url(#clip5_0_107)">
<g opacity="0.51">
<path d="M1321.77 192.881C1321.77 193.057 1321.72 193.229 1321.62 193.376C1321.52 193.522 1321.38 193.636 1321.22 193.703C1321.06 193.771 1320.88 193.788 1320.71 193.754C1320.53 193.72 1320.38 193.635 1320.25 193.51C1320.13 193.386 1320.04 193.227 1320.01 193.055C1319.97 192.882 1319.99 192.703 1320.06 192.541C1320.13 192.378 1320.24 192.239 1320.39 192.141C1320.53 192.044 1320.7 191.991 1320.88 191.991C1321.12 191.991 1321.34 192.085 1321.51 192.252C1321.68 192.419 1321.77 192.645 1321.77 192.881Z" fill="#7F2069"/>
<path d="M1334.19 193.762C1334.68 193.762 1335.07 193.368 1335.07 192.881C1335.07 192.395 1334.68 192 1334.19 192C1333.71 192 1333.31 192.395 1333.31 192.881C1333.31 193.368 1333.71 193.762 1334.19 193.762Z" fill="#7F2069"/>
<path d="M1347.5 193.762C1347.99 193.762 1348.39 193.368 1348.39 192.881C1348.39 192.395 1347.99 192 1347.5 192C1347.02 192 1346.62 192.395 1346.62 192.881C1346.62 193.368 1347.02 193.762 1347.5 193.762Z" fill="#7F2069"/>
<path d="M1360.81 193.762C1361.29 193.762 1361.69 193.368 1361.69 192.881C1361.69 192.395 1361.29 192 1360.81 192C1360.32 192 1359.93 192.395 1359.93 192.881C1359.93 193.368 1360.32 193.762 1360.81 193.762Z" fill="#7F2069"/>
<path d="M1375 192.881C1375 193.057 1374.95 193.229 1374.85 193.376C1374.75 193.522 1374.61 193.636 1374.45 193.703C1374.29 193.771 1374.11 193.788 1373.94 193.754C1373.76 193.72 1373.6 193.635 1373.48 193.51C1373.36 193.386 1373.27 193.227 1373.24 193.055C1373.2 192.882 1373.22 192.703 1373.29 192.541C1373.35 192.378 1373.47 192.239 1373.62 192.141C1373.76 192.044 1373.93 191.991 1374.11 191.991C1374.35 191.991 1374.57 192.085 1374.74 192.252C1374.91 192.419 1375 192.645 1375 192.881Z" fill="#7F2069"/>
<path d="M1328.42 203.017C1328.42 203.193 1328.37 203.365 1328.27 203.511C1328.17 203.658 1328.03 203.772 1327.87 203.839C1327.71 203.906 1327.53 203.924 1327.35 203.89C1327.18 203.855 1327.02 203.771 1326.9 203.646C1326.77 203.522 1326.69 203.363 1326.66 203.191C1326.62 203.018 1326.64 202.839 1326.71 202.676C1326.77 202.514 1326.89 202.375 1327.03 202.277C1327.18 202.179 1327.35 202.127 1327.53 202.127C1327.76 202.127 1327.99 202.221 1328.16 202.388C1328.32 202.555 1328.42 202.781 1328.42 203.017Z" fill="#7F2069"/>
<path d="M1340.85 203.906C1341.33 203.906 1341.73 203.512 1341.73 203.025C1341.73 202.539 1341.33 202.144 1340.85 202.144C1340.36 202.144 1339.97 202.539 1339.97 203.025C1339.97 203.512 1340.36 203.906 1340.85 203.906Z" fill="#7F2069"/>
<path d="M1354.15 203.907C1354.64 203.907 1355.03 203.512 1355.03 203.026C1355.03 202.539 1354.64 202.145 1354.15 202.145C1353.66 202.145 1353.27 202.539 1353.27 203.026C1353.27 203.512 1353.66 203.907 1354.15 203.907Z" fill="#7F2069"/>
<path d="M1368.33 203.017C1368.33 203.193 1368.27 203.365 1368.18 203.511C1368.08 203.658 1367.94 203.772 1367.78 203.839C1367.61 203.906 1367.44 203.924 1367.26 203.89C1367.09 203.855 1366.93 203.771 1366.81 203.646C1366.68 203.522 1366.6 203.363 1366.56 203.191C1366.53 203.018 1366.55 202.839 1366.61 202.676C1366.68 202.514 1366.8 202.375 1366.94 202.277C1367.09 202.179 1367.26 202.127 1367.44 202.127C1367.67 202.127 1367.9 202.221 1368.07 202.388C1368.23 202.555 1368.33 202.781 1368.33 203.017Z" fill="#7F2069"/>
<path d="M1321.77 213.205C1321.77 213.441 1321.68 213.667 1321.51 213.834C1321.34 214.001 1321.12 214.094 1320.88 214.094C1320.64 214.094 1320.42 214.001 1320.25 213.834C1320.08 213.667 1319.99 213.441 1319.99 213.205C1319.99 212.969 1320.08 212.742 1320.25 212.575C1320.42 212.409 1320.64 212.315 1320.88 212.315C1321.12 212.315 1321.34 212.409 1321.51 212.575C1321.68 212.742 1321.77 212.969 1321.77 213.205Z" fill="#7F2069"/>
<path d="M1334.19 214.095C1334.68 214.095 1335.07 213.7 1335.07 213.214C1335.07 212.727 1334.68 212.333 1334.19 212.333C1333.71 212.333 1333.31 212.727 1333.31 213.214C1333.31 213.7 1333.71 214.095 1334.19 214.095Z" fill="#7F2069"/>
<path d="M1347.5 214.095C1347.99 214.095 1348.39 213.7 1348.39 213.214C1348.39 212.727 1347.99 212.333 1347.5 212.333C1347.02 212.333 1346.62 212.727 1346.62 213.214C1346.62 213.7 1347.02 214.095 1347.5 214.095Z" fill="#7F2069"/>
<path d="M1360.81 214.095C1361.29 214.095 1361.69 213.7 1361.69 213.214C1361.69 212.727 1361.29 212.333 1360.81 212.333C1360.32 212.333 1359.93 212.727 1359.93 213.214C1359.93 213.7 1360.32 214.095 1360.81 214.095Z" fill="#7F2069"/>
<path d="M1375 213.205C1375 213.381 1374.95 213.553 1374.85 213.699C1374.75 213.845 1374.61 213.96 1374.45 214.027C1374.29 214.094 1374.11 214.112 1373.94 214.077C1373.76 214.043 1373.6 213.958 1373.48 213.834C1373.36 213.71 1373.27 213.551 1373.24 213.378C1373.2 213.206 1373.22 213.027 1373.29 212.864C1373.35 212.702 1373.47 212.563 1373.62 212.465C1373.76 212.367 1373.93 212.315 1374.11 212.315C1374.35 212.315 1374.57 212.409 1374.74 212.576C1374.91 212.742 1375 212.969 1375 213.205Z" fill="#7F2069"/>
<path d="M1328.42 223.349C1328.42 223.525 1328.37 223.697 1328.27 223.843C1328.17 223.99 1328.03 224.104 1327.87 224.171C1327.71 224.238 1327.53 224.256 1327.35 224.222C1327.18 224.187 1327.02 224.103 1326.9 223.978C1326.77 223.854 1326.69 223.695 1326.66 223.523C1326.62 223.35 1326.64 223.171 1326.71 223.008C1326.77 222.846 1326.89 222.707 1327.03 222.609C1327.18 222.511 1327.35 222.459 1327.53 222.459C1327.76 222.459 1327.99 222.553 1328.16 222.72C1328.32 222.887 1328.42 223.113 1328.42 223.349Z" fill="#7F2069"/>
<path d="M1340.85 224.23C1341.33 224.23 1341.73 223.836 1341.73 223.349C1341.73 222.863 1341.33 222.468 1340.85 222.468C1340.36 222.468 1339.97 222.863 1339.97 223.349C1339.97 223.836 1340.36 224.23 1340.85 224.23Z" fill="#7F2069"/>
<path d="M1354.15 224.23C1354.64 224.23 1355.03 223.836 1355.03 223.349C1355.03 222.863 1354.64 222.468 1354.15 222.468C1353.66 222.468 1353.27 222.863 1353.27 223.349C1353.27 223.836 1353.66 224.23 1354.15 224.23Z" fill="#7F2069"/>
<path d="M1368.33 223.349C1368.33 223.525 1368.27 223.697 1368.18 223.843C1368.08 223.99 1367.94 224.104 1367.78 224.171C1367.61 224.238 1367.44 224.256 1367.26 224.222C1367.09 224.187 1366.93 224.103 1366.81 223.978C1366.68 223.854 1366.6 223.695 1366.56 223.523C1366.53 223.35 1366.55 223.171 1366.61 223.008C1366.68 222.846 1366.8 222.707 1366.94 222.609C1367.09 222.511 1367.26 222.459 1367.44 222.459C1367.67 222.459 1367.9 222.553 1368.07 222.72C1368.23 222.887 1368.33 223.113 1368.33 223.349Z" fill="#7F2069"/>
<path d="M1321.77 233.538C1321.77 233.714 1321.72 233.886 1321.62 234.032C1321.52 234.178 1321.38 234.292 1321.22 234.36C1321.06 234.427 1320.88 234.445 1320.71 234.41C1320.53 234.376 1320.38 234.291 1320.25 234.167C1320.13 234.042 1320.04 233.884 1320.01 233.711C1319.97 233.539 1319.99 233.36 1320.06 233.197C1320.13 233.034 1320.24 232.895 1320.39 232.798C1320.53 232.7 1320.7 232.648 1320.88 232.648C1321.12 232.648 1321.34 232.741 1321.51 232.908C1321.68 233.075 1321.77 233.302 1321.77 233.538Z" fill="#7F2069"/>
<path d="M1334.19 234.419C1334.68 234.419 1335.07 234.024 1335.07 233.538C1335.07 233.051 1334.68 232.657 1334.19 232.657C1333.71 232.657 1333.31 233.051 1333.31 233.538C1333.31 234.024 1333.71 234.419 1334.19 234.419Z" fill="#7F2069"/>
<path d="M1347.5 234.419C1347.99 234.419 1348.39 234.024 1348.39 233.538C1348.39 233.051 1347.99 232.657 1347.5 232.657C1347.02 232.657 1346.62 233.051 1346.62 233.538C1346.62 234.024 1347.02 234.419 1347.5 234.419Z" fill="#7F2069"/>
<path d="M1360.81 234.419C1361.29 234.419 1361.69 234.024 1361.69 233.538C1361.69 233.051 1361.29 232.657 1360.81 232.657C1360.32 232.657 1359.93 233.051 1359.93 233.538C1359.93 234.024 1360.32 234.419 1360.81 234.419Z" fill="#7F2069"/>
<path d="M1375 233.538C1375 233.774 1374.91 234 1374.74 234.167C1374.57 234.334 1374.35 234.427 1374.11 234.427C1373.87 234.427 1373.65 234.334 1373.48 234.167C1373.31 234 1373.22 233.774 1373.22 233.538C1373.22 233.302 1373.31 233.075 1373.48 232.908C1373.65 232.741 1373.87 232.648 1374.11 232.648C1374.35 232.648 1374.57 232.741 1374.74 232.908C1374.91 233.075 1375 233.302 1375 233.538Z" fill="#7F2069"/>
<path d="M1328.42 243.673C1328.42 243.849 1328.37 244.021 1328.27 244.167C1328.17 244.313 1328.03 244.427 1327.87 244.495C1327.71 244.562 1327.53 244.58 1327.35 244.545C1327.18 244.511 1327.02 244.426 1326.9 244.302C1326.77 244.177 1326.69 244.019 1326.66 243.846C1326.62 243.674 1326.64 243.495 1326.71 243.332C1326.77 243.169 1326.89 243.03 1327.03 242.933C1327.18 242.835 1327.35 242.783 1327.53 242.783C1327.76 242.783 1327.99 242.876 1328.16 243.043C1328.32 243.21 1328.42 243.437 1328.42 243.673Z" fill="#7F2069"/>
<path d="M1340.85 244.553C1341.33 244.553 1341.73 244.159 1341.73 243.672C1341.73 243.186 1341.33 242.791 1340.85 242.791C1340.36 242.791 1339.97 243.186 1339.97 243.672C1339.97 244.159 1340.36 244.553 1340.85 244.553Z" fill="#7F2069"/>
<path d="M1354.15 244.553C1354.64 244.553 1355.03 244.159 1355.03 243.672C1355.03 243.186 1354.64 242.791 1354.15 242.791C1353.66 242.791 1353.27 243.186 1353.27 243.672C1353.27 244.159 1353.66 244.553 1354.15 244.553Z" fill="#7F2069"/>
<path d="M1368.33 243.673C1368.33 243.849 1368.27 244.021 1368.18 244.167C1368.08 244.313 1367.94 244.427 1367.78 244.495C1367.61 244.562 1367.44 244.58 1367.26 244.545C1367.09 244.511 1366.93 244.426 1366.81 244.302C1366.68 244.177 1366.6 244.019 1366.56 243.846C1366.53 243.674 1366.55 243.495 1366.61 243.332C1366.68 243.169 1366.8 243.03 1366.94 242.933C1367.09 242.835 1367.26 242.783 1367.44 242.783C1367.67 242.783 1367.9 242.876 1368.07 243.043C1368.23 243.21 1368.33 243.437 1368.33 243.673Z" fill="#7F2069"/>
</g>
</g>
</g>
<defs>
<clipPath id="clip0_0_107">
<rect width="1440" height="1024" fill="white"/>
</clipPath>
<clipPath id="clip1_0_107">
<rect width="42" height="42" fill="white" transform="translate(111 316)"/>
</clipPath>
<clipPath id="clip2_0_107">
<rect width="42.4434" height="40.5619" fill="white" transform="translate(1254 706)"/>
</clipPath>
<clipPath id="clip3_0_107">
<rect width="50.1982" height="47.973" fill="white" transform="translate(114.703 701.027)"/>
</clipPath>
<clipPath id="clip4_0_107">
<rect width="42" height="42" fill="white" transform="translate(1275 712)"/>
</clipPath>
<clipPath id="clip5_0_107">
<rect width="55" height="52.5619" fill="white" transform="translate(1320 192)"/>
</clipPath>
</defs>
</svg>
