<svg width="45" height="45" viewBox="0 0 45 45" fill="none" xmlns="http://www.w3.org/2000/svg">
<path d="M33.3269 39.7266C31.7104 40.2042 29.8001 40.4246 27.5591 40.4246H16.5378C14.2968 40.4246 12.3865 40.2042 10.77 39.7266C11.1741 34.9507 16.0786 31.1851 22.0485 31.1851C28.0183 31.1851 32.9228 34.9507 33.3269 39.7266Z" fill="white" stroke="#08A8E4" stroke-width="2.06649" stroke-linecap="round" stroke-linejoin="round"/>
<path d="M27.5586 3.68703H16.5374C7.35296 3.68703 3.6792 7.36078 3.6792 16.5452V27.5665C3.6792 34.5099 5.77324 38.3122 10.7696 39.7266C11.1737 34.9507 16.0781 31.185 22.048 31.185C28.0178 31.185 32.9223 34.9507 33.3264 39.7266C38.3227 38.3122 40.4168 34.5099 40.4168 27.5665V16.5452C40.4168 7.36078 36.743 3.68703 27.5586 3.68703ZM22.048 26.0418C18.411 26.0418 15.472 23.0845 15.472 19.4475C15.472 15.8105 18.411 12.8714 22.048 12.8714C25.685 12.8714 28.624 15.8105 28.624 19.4475C28.624 23.0845 25.685 26.0418 22.048 26.0418Z" fill="#F0FBFF" stroke="#08A8E4" stroke-width="2.06649" stroke-linecap="round" stroke-linejoin="round"/>
<path d="M28.6242 19.4475C28.6242 23.0845 25.6852 26.0418 22.0482 26.0418C18.4112 26.0418 15.4722 23.0845 15.4722 19.4475C15.4722 15.8105 18.4112 12.8714 22.0482 12.8714C25.6852 12.8714 28.6242 15.8105 28.6242 19.4475Z" fill="white" stroke="#08A8E4" stroke-width="2.06649" stroke-linecap="round" stroke-linejoin="round"/>
</svg>
